<svg id="kity_svg_6" xmlns="http://www.w3.org/2000/svg" xmlns:xlink="http://www.w3.org/1999/xlink" version="1.1" width="1969" height="1815" style="background: rgb(251, 251, 251); visibility: visible;" viewBox="0 0 1969 1815"><defs id="kity_defs_7"><linearGradient id="kity_linearGradient_17" x1="0" y1="0" x2="0" y2="1"><stop id="kity_stop_18" offset="0" stop-color="rgb(255, 255, 255)"></stop><stop id="kity_stop_19" offset="1" stop-color="rgb(204, 204, 204)"></stop></linearGradient><marker id="kity_marker_2" orient="auto" refX="6" refY="0" viewBox="-7 -7 14 14" markerWidth="7" markerHeight="7" markerUnits="userSpaceOnUse"><path id="kity_path_3" fill="rgb(115, 161, 191)" stroke="none" d="M6,0A6,6,0,1,1,-6,0A6,6,0,1,1,6,0"></path></marker></defs><g id="kity_g_8"><g id="minder1" text-rendering="geometricPrecision"><g id="minder_connect_group1"><path id="kity_path_31" fill="none" stroke="rgb(115, 161, 191)" stroke-width="1" d="M721.4999991878867,871.4999988749623A189,432,0,0,1,910.4999991878867,439.49999887496233"></path><path id="kity_path_33" fill="none" stroke="rgb(115, 161, 191)" stroke-width="1" d="M1066.4999991878867,439.49999887496233C1081.4999991878867,439.49999887496233,1081.4999991878867,105.49999887496233,1096.4999991878867,105.49999887496233L1229.4999991878867,105.49999887496233"></path><path id="kity_path_35" fill="none" stroke="rgb(115, 161, 191)" stroke-width="1" d="M1229.4999991878867,105.49999887496233C1244.4999991878867,105.49999887496233,1244.4999991878867,49.49999887496233,1259.4999991878867,49.49999887496233L1427.4999991878867,49.49999887496233"></path><path id="kity_path_37" fill="none" stroke="rgb(115, 161, 191)" stroke-width="1" d="M1229.4999991878867,105.49999887496233C1244.4999991878867,105.49999887496233,1244.4999991878867,105.49999887496233,1259.4999991878867,105.49999887496233L1457.4999991878867,105.49999887496233"></path><path id="kity_path_39" fill="none" stroke="rgb(115, 161, 191)" stroke-width="1" d="M1229.4999991878867,105.49999887496233C1244.4999991878867,105.49999887496233,1244.4999991878867,161.49999887496233,1259.4999991878867,161.49999887496233L1502.4999991878867,161.49999887496233"></path><path id="kity_path_41" fill="none" stroke="rgb(115, 161, 191)" stroke-width="1" d="M1066.4999991878867,439.49999887496233C1081.4999991878867,439.49999887496233,1081.4999991878867,245.49999887496233,1096.4999991878867,245.49999887496233L1254.4999991878867,245.49999887496233"></path><path id="kity_path_43" fill="none" stroke="rgb(115, 161, 191)" stroke-width="1" d="M1254.4999991878867,245.49999887496233C1269.4999991878867,245.49999887496233,1269.4999991878867,217.49999887496233,1284.4999991878867,217.49999887496233L1481.4999991878867,217.49999887496233"></path><path id="kity_path_45" fill="none" stroke="rgb(115, 161, 191)" stroke-width="1" d="M1254.4999991878867,245.49999887496233C1269.4999991878867,245.49999887496233,1269.4999991878867,273.49999887496233,1284.4999991878867,273.49999887496233L1473.4999991878867,273.49999887496233"></path><path id="kity_path_47" fill="none" stroke="rgb(115, 161, 191)" stroke-width="1" d="M1066.4999991878867,439.49999887496233C1081.4999991878867,439.49999887496233,1081.4999991878867,427.49999887496233,1096.4999991878867,427.49999887496233L1345.4999991878867,427.49999887496233"></path><path id="kity_path_49" fill="none" stroke="rgb(115, 161, 191)" stroke-width="1" d="M1345.4999991878867,427.49999887496233C1360.4999991878867,427.49999887496233,1360.4999991878867,329.49999887496233,1375.4999991878867,329.49999887496233L1465.4999991878867,329.49999887496233"></path><path id="kity_path_51" fill="none" stroke="rgb(115, 161, 191)" stroke-width="1" d="M1465.4999991878867,329.49999887496233C1480.4999991878867,329.49999887496233,1480.4999991878867,329.49999887496233,1495.4999991878867,329.49999887496233L1680.4999991878867,329.49999887496233"></path><path id="kity_path_53" fill="none" stroke="rgb(115, 161, 191)" stroke-width="1" d="M1345.4999991878867,427.49999887496233C1360.4999991878867,427.49999887496233,1360.4999991878867,385.49999887496233,1375.4999991878867,385.49999887496233L1539.4999991878867,385.49999887496233"></path><path id="kity_path_55" fill="none" stroke="rgb(115, 161, 191)" stroke-width="1" d="M1539.4999991878867,385.49999887496233C1554.4999991878867,385.49999887496233,1554.4999991878867,385.49999887496233,1569.4999991878867,385.49999887496233L1628.4999991878867,385.49999887496233"></path><path id="kity_path_57" fill="none" stroke="rgb(115, 161, 191)" stroke-width="1" d="M1345.4999991878867,427.49999887496233C1360.4999991878867,427.49999887496233,1360.4999991878867,525.4999988749623,1375.4999991878867,525.4999988749623L1499.4999991878867,525.4999988749623"></path><path id="kity_path_59" fill="none" stroke="rgb(115, 161, 191)" stroke-width="1" d="M1499.4999991878867,525.4999988749623C1514.4999991878867,525.4999988749623,1514.4999991878867,441.49999887496233,1529.4999991878867,441.49999887496233L1690.4999991878867,441.49999887496233"></path><path id="kity_path_61" fill="none" stroke="rgb(115, 161, 191)" stroke-width="1" d="M1499.4999991878867,525.4999988749623C1514.4999991878867,525.4999988749623,1514.4999991878867,497.49999887496233,1529.4999991878867,497.49999887496233L1782.4999991878867,497.49999887496233"></path><path id="kity_path_63" fill="none" stroke="rgb(115, 161, 191)" stroke-width="1" d="M1499.4999991878867,525.4999988749623C1514.4999991878867,525.4999988749623,1514.4999991878867,553.4999988749623,1529.4999991878867,553.4999988749623L1714.4999991878867,553.4999988749623"></path><path id="kity_path_65" fill="none" stroke="rgb(115, 161, 191)" stroke-width="1" d="M1499.4999991878867,525.4999988749623C1514.4999991878867,525.4999988749623,1514.4999991878867,609.4999988749623,1529.4999991878867,609.4999988749623L1848.4999991878867,609.4999988749623"></path><path id="kity_path_67" fill="none" stroke="rgb(115, 161, 191)" stroke-width="1" d="M1066.4999991878867,439.49999887496233C1081.4999991878867,439.49999887496233,1081.4999991878867,805.4999988749623,1096.4999991878867,805.4999988749623L1323.4999991878867,805.4999988749623"></path><path id="kity_path_69" fill="none" stroke="rgb(115, 161, 191)" stroke-width="1" d="M1323.4999991878867,805.4999988749623C1338.4999991878867,805.4999988749623,1338.4999991878867,721.4999988749623,1353.4999991878867,721.4999988749623L1436.4999991878867,721.4999988749623"></path><path id="kity_path_71" fill="none" stroke="rgb(115, 161, 191)" stroke-width="1" d="M1436.4999991878867,721.4999988749623C1451.4999991878867,721.4999988749623,1451.4999991878867,665.4999988749623,1466.4999991878867,665.4999988749623L1610.4999991878867,665.4999988749623"></path><path id="kity_path_73" fill="none" stroke="rgb(115, 161, 191)" stroke-width="1" d="M1436.4999991878867,721.4999988749623C1451.4999991878867,721.4999988749623,1451.4999991878867,721.4999988749623,1466.4999991878867,721.4999988749623L1661.4999991878867,721.4999988749623"></path><path id="kity_path_75" fill="none" stroke="rgb(115, 161, 191)" stroke-width="1" d="M1436.4999991878867,721.4999988749623C1451.4999991878867,721.4999988749623,1451.4999991878867,777.4999988749623,1466.4999991878867,777.4999988749623L1595.4999991878867,777.4999988749623"></path><path id="kity_path_77" fill="none" stroke="rgb(115, 161, 191)" stroke-width="1" d="M1323.4999991878867,805.4999988749623C1338.4999991878867,805.4999988749623,1338.4999991878867,889.4999988749623,1353.4999991878867,889.4999988749623L1462.4999991878867,889.4999988749623"></path><path id="kity_path_79" fill="none" stroke="rgb(115, 161, 191)" stroke-width="1" d="M1462.4999991878867,889.4999988749623C1477.4999991878867,889.4999988749623,1477.4999991878867,833.4999988749623,1492.4999991878867,833.4999988749623L1623.4999991878867,833.4999988749623"></path><path id="kity_path_81" fill="none" stroke="rgb(115, 161, 191)" stroke-width="1" d="M1462.4999991878867,889.4999988749623C1477.4999991878867,889.4999988749623,1477.4999991878867,889.4999988749623,1492.4999991878867,889.4999988749623L1605.4999991878867,889.4999988749623"></path><path id="kity_path_83" fill="none" stroke="rgb(115, 161, 191)" stroke-width="1" d="M1462.4999991878867,889.4999988749623C1477.4999991878867,889.4999988749623,1477.4999991878867,945.4999988749623,1492.4999991878867,945.4999988749623L1608.4999991878867,945.4999988749623"></path><path id="kity_path_85" fill="none" stroke="rgb(115, 161, 191)" stroke-width="1" d="M721.4999991878867,871.4999988749623A189,432,0,0,0,910.4999991878867,1303.4999988749623"></path><path id="kity_path_87" fill="none" stroke="rgb(115, 161, 191)" stroke-width="1" d="M1049.4999991878867,1303.4999988749623C1064.4999991878867,1303.4999988749623,1064.4999991878867,1067.4999988749623,1079.4999991878867,1067.4999988749623L1258.4999991878867,1067.4999988749623"></path><path id="kity_path_89" fill="none" stroke="rgb(115, 161, 191)" stroke-width="1" d="M1258.4999991878867,1067.4999988749623C1273.4999991878867,1067.4999988749623,1273.4999991878867,1011.4999988749623,1288.4999991878867,1011.4999988749623L1500.4999991878867,1011.4999988749623"></path><path id="kity_path_91" fill="none" stroke="rgb(115, 161, 191)" stroke-width="1" d="M1258.4999991878867,1067.4999988749623C1273.4999991878867,1067.4999988749623,1273.4999991878867,1067.4999988749623,1288.4999991878867,1067.4999988749623L1608.4999991878867,1067.4999988749623"></path><path id="kity_path_93" fill="none" stroke="rgb(115, 161, 191)" stroke-width="1" d="M1258.4999991878867,1067.4999988749623C1273.4999991878867,1067.4999988749623,1273.4999991878867,1123.4999988749623,1288.4999991878867,1123.4999988749623L1515.4999991878867,1123.4999988749623"></path><path id="kity_path_95" fill="none" stroke="rgb(115, 161, 191)" stroke-width="1" d="M1049.4999991878867,1303.4999988749623C1064.4999991878867,1303.4999988749623,1064.4999991878867,1291.4999988749623,1079.4999991878867,1291.4999988749623L1214.4999991878867,1291.4999988749623"></path><path id="kity_path_97" fill="none" stroke="rgb(115, 161, 191)" stroke-width="1" d="M1214.4999991878867,1291.4999988749623C1229.4999991878867,1291.4999988749623,1229.4999991878867,1179.4999988749623,1244.4999991878867,1179.4999988749623L1330.4999991878867,1179.4999988749623"></path><path id="kity_path_99" fill="none" stroke="rgb(115, 161, 191)" stroke-width="1" d="M1330.4999991878867,1179.4999988749623C1345.4999991878867,1179.4999988749623,1345.4999991878867,1179.4999988749623,1360.4999991878867,1179.4999988749623L1400.4999991878867,1179.4999988749623"></path><path id="kity_path_101" fill="none" stroke="rgb(115, 161, 191)" stroke-width="1" d="M1214.4999991878867,1291.4999988749623C1229.4999991878867,1291.4999988749623,1229.4999991878867,1263.4999988749623,1244.4999991878867,1263.4999988749623L1340.4999991878867,1263.4999988749623"></path><path id="kity_path_103" fill="none" stroke="rgb(115, 161, 191)" stroke-width="1" d="M1340.4999991878867,1263.4999988749623C1355.4999991878867,1263.4999988749623,1355.4999991878867,1235.4999988749623,1370.4999991878867,1235.4999988749623L1524.4999991878867,1235.4999988749623"></path><path id="kity_path_105" fill="none" stroke="rgb(115, 161, 191)" stroke-width="1" d="M1340.4999991878867,1263.4999988749623C1355.4999991878867,1263.4999988749623,1355.4999991878867,1291.4999988749623,1370.4999991878867,1291.4999988749623L1590.4999991878867,1291.4999988749623"></path><path id="kity_path_107" fill="none" stroke="rgb(115, 161, 191)" stroke-width="1" d="M1214.4999991878867,1291.4999988749623C1229.4999991878867,1291.4999988749623,1229.4999991878867,1347.4999988749623,1244.4999991878867,1347.4999988749623L1347.4999991878867,1347.4999988749623"></path><path id="kity_path_109" fill="none" stroke="rgb(115, 161, 191)" stroke-width="1" d="M1347.4999991878867,1347.4999988749623C1362.4999991878867,1347.4999988749623,1362.4999991878867,1347.4999988749623,1377.4999991878867,1347.4999988749623L1635.4999991878867,1347.4999988749623"></path><path id="kity_path_111" fill="none" stroke="rgb(115, 161, 191)" stroke-width="1" d="M1214.4999991878867,1291.4999988749623C1229.4999991878867,1291.4999988749623,1229.4999991878867,1403.4999988749623,1244.4999991878867,1403.4999988749623L1392.4999991878867,1403.4999988749623"></path><path id="kity_path_113" fill="none" stroke="rgb(115, 161, 191)" stroke-width="1" d="M1392.4999991878867,1403.4999988749623C1407.4999991878867,1403.4999988749623,1407.4999991878867,1403.4999988749623,1422.4999991878867,1403.4999988749623L1706.4999991878867,1403.4999988749623"></path><path id="kity_path_115" fill="none" stroke="rgb(115, 161, 191)" stroke-width="1" d="M1049.4999991878867,1303.4999988749623C1064.4999991878867,1303.4999988749623,1064.4999991878867,1571.4999988749623,1079.4999991878867,1571.4999988749623L1179.4999991878867,1571.4999988749623"></path><path id="kity_path_117" fill="none" stroke="rgb(115, 161, 191)" stroke-width="1" d="M1179.4999991878867,1571.4999988749623C1194.4999991878867,1571.4999988749623,1194.4999991878867,1459.4999988749623,1209.4999991878867,1459.4999988749623L1327.4999991878867,1459.4999988749623"></path><path id="kity_path_119" fill="none" stroke="rgb(115, 161, 191)" stroke-width="1" d="M1179.4999991878867,1571.4999988749623C1194.4999991878867,1571.4999988749623,1194.4999991878867,1515.4999988749623,1209.4999991878867,1515.4999988749623L1460.4999991878867,1515.4999988749623"></path><path id="kity_path_121" fill="none" stroke="rgb(115, 161, 191)" stroke-width="1" d="M1179.4999991878867,1571.4999988749623C1194.4999991878867,1571.4999988749623,1194.4999991878867,1571.4999988749623,1209.4999991878867,1571.4999988749623L1486.4999991878867,1571.4999988749623"></path><path id="kity_path_399" fill="none" stroke="rgb(115, 161, 191)" stroke-width="1" d="M1179.4999991878867,1571.4999988749623C1194.4999991878867,1571.4999988749623,1194.4999991878867,1683.4999988749623,1209.4999991878867,1683.4999988749623L1496.4999991878867,1683.4999988749623"></path><path id="kity_path_407" fill="none" stroke="rgb(115, 161, 191)" stroke-width="1" d="M1496.4999991878867,1683.4999988749623C1511.4999991878867,1683.4999988749623,1511.4999991878867,1627.4999988749623,1526.4999991878867,1627.4999988749623L1685.4999991878867,1627.4999988749623"></path><path id="kity_path_415" fill="none" stroke="rgb(115, 161, 191)" stroke-width="1" d="M1496.4999991878867,1683.4999988749623C1511.4999991878867,1683.4999988749623,1511.4999991878867,1739.4999988749623,1526.4999991878867,1739.4999988749623L1729.4999991878867,1739.4999988749623"></path><path id="kity_path_423" fill="none" stroke="rgb(115, 161, 191)" stroke-width="1" d="M1729.4999991878867,1739.4999988749623C1744.4999991878867,1739.4999988749623,1744.4999991878867,1683.4999988749623,1759.4999991878867,1683.4999988749623L1928.4999991878867,1683.4999988749623"></path><path id="kity_path_431" fill="none" stroke="rgb(115, 161, 191)" stroke-width="1" d="M1729.4999991878867,1739.4999988749623C1744.4999991878867,1739.4999988749623,1744.4999991878867,1739.4999988749623,1759.4999991878867,1739.4999988749623L1920.4999991878867,1739.4999988749623"></path><path id="kity_path_439" fill="none" stroke="rgb(115, 161, 191)" stroke-width="1" d="M1729.4999991878867,1739.4999988749623C1744.4999991878867,1739.4999988749623,1744.4999991878867,1795.4999988749623,1759.4999991878867,1795.4999988749623L1949.4999991878867,1795.4999988749623"></path><path id="kity_path_447" fill="none" stroke="rgb(115, 161, 191)" stroke-width="1" d="M721.4999991878867,871.4999988749623A189,0,0,0,1,532.4999991878867,871.4999988749623"></path><path id="kity_path_455" fill="none" stroke="rgb(115, 161, 191)" stroke-width="1" d="M368.4999991878867,871.4999988749623C353.4999991878867,871.4999988749623,353.4999991878867,775.4999988749623,338.4999991878867,775.4999988749623L20.499999187886715,775.4999988749623"></path><path id="kity_path_463" fill="none" stroke="rgb(115, 161, 191)" stroke-width="1" d="M368.4999991878867,871.4999988749623C353.4999991878867,871.4999988749623,353.4999991878867,831.4999988749623,338.4999991878867,831.4999988749623L83.49999918788671,831.4999988749623"></path><path id="kity_path_471" fill="none" stroke="rgb(115, 161, 191)" stroke-width="1" d="M368.4999991878867,871.4999988749623C353.4999991878867,871.4999988749623,353.4999991878867,887.4999988749623,338.4999991878867,887.4999988749623L99.49999918788671,887.4999988749623"></path><path id="kity_path_479" fill="none" stroke="rgb(115, 161, 191)" stroke-width="1" d="M368.4999991878867,871.4999988749623C353.4999991878867,871.4999988749623,353.4999991878867,943.4999988749623,338.4999991878867,943.4999988749623L68.49999918788671,943.4999988749623"></path><path id="kity_path_487" fill="none" stroke="rgb(115, 161, 191)" stroke-width="1" d="M368.4999991878867,871.4999988749623C353.4999991878867,871.4999988749623,353.4999991878867,999.4999988749623,338.4999991878867,999.4999988749623L146.49999918788671,999.4999988749623"></path></g><g id="minder_node1"><path id="node_outline1" fill="rgb(115, 161, 191)" stroke="rgb(115, 161, 191)" d="M655.4999991878867,851.4999988749623h132a5,5,0,0,1,5,5v30a5,5,0,0,1,-5,5h-132a5,5,0,0,1,-5,-5v-30a5,5,0,0,1,5,-5z" stroke-width="3"></path><g id="node_text1" fill="white"><text id="kity_text_22" text-rendering="inherit" font-size="16" dy=".8em" y="861.0999988391995" x="674.4999991878867">Convolution</text></g></g><g id="kity_g_14" display="none"><path id="kity_path_15" fill="rgba(0, 92, 153, 0.5)" stroke="none" d="M-161.50000081211329,1259.4999988749623h150v15h-150z"></path><path id="kity_path_16" fill="none" stroke="rgb(0, 76, 128)" d="M-161.50000081211329,1259.4999988749623L-11.500000812113285,1259.4999988749623" stroke-width="1"></path></g><g id="minder_node2"><g id="node_expander27" style="cursor: pointer;"><path id="kity_path_339" fill="white" stroke="gray" d="M911.500002630055,439.4999924376607A6,6,0,1,1,899.500002630055,439.4999924376607A6,6,0,1,1,911.500002630055,439.4999924376607"></path><path id="kity_path_340" fill="none" stroke="gray" d="M901.000002630055,439.4999924376607L910.000002630055,439.4999924376607"></path></g><path id="node_outline28" fill="rgb(238, 243, 246)" stroke="rgb(115, 161, 191)" d="M915.5000030323863,425.4999924376607h148a3,3,0,0,1,3,3v22a3,3,0,0,1,-3,3h-148a3,3,0,0,1,-3,-3v-22a3,3,0,0,1,3,-3z" stroke-width="1"></path><g id="node_text28" fill="black"><text id="kity_text_175" text-rendering="inherit" font-size="16" dy=".8em" y="429.0999924018979" x="932.5000030323863">Linear Systems</text></g></g><g id="minder_node3"><g id="node_expander4" style="cursor: pointer;"><path id="kity_path_270" fill="white" stroke="gray" d="M1106.5000055357814,89.49998722225428A6,6,0,1,1,1094.5000055357814,89.49998722225428A6,6,0,1,1,1106.5000055357814,89.49998722225428"></path><path id="kity_path_271" fill="none" stroke="gray" d="M1096.0000055357814,89.49998722225428L1105.0000055357814,89.49998722225428"></path></g><path id="node_outline5" fill="none" stroke="none" d="M1111.5000057742,76.49998722225428h113a5,5,0,0,1,5,5v16a5,5,0,0,1,-5,5h-113a5,5,0,0,1,-5,-5v-16a5,5,0,0,1,5,-5z" stroke-width="3"></path><g id="node_text5" fill="black"><text id="kity_text_129" text-rendering="inherit" font-size="16" dy=".8em" y="79.09998718649149" x="1116.5000057742">single system</text></g></g><g id="minder_node4"><g id="node_expander1" style="cursor: pointer;" display="none"><path id="kity_path_261" fill="white" stroke="gray" d="M1269.5000079646707,33.49998638778925A6,6,0,1,1,1257.5000079646707,33.49998638778925A6,6,0,1,1,1269.5000079646707,33.49998638778925"></path><path id="kity_path_262" fill="none" stroke="gray"></path></g><path id="node_outline2" fill="none" stroke="none" d="M1274.5000082030892,20.49998638778925h148a5,5,0,0,1,5,5v16a5,5,0,0,1,-5,5h-148a5,5,0,0,1,-5,-5v-16a5,5,0,0,1,5,-5z" stroke-width="3"></path><g id="node_text2" fill="black"><text id="kity_text_123" text-rendering="inherit" font-size="16" dy=".8em" y="23.099986352026463" x="1279.5000082030892">Additivity (可加性)</text></g></g><g id="minder_node5"><g id="node_expander2" style="cursor: pointer;" display="none"><path id="kity_path_264" fill="white" stroke="gray" d="M1269.5000079646707,89.49998722225428A6,6,0,1,1,1257.5000079646707,89.49998722225428A6,6,0,1,1,1269.5000079646707,89.49998722225428"></path><path id="kity_path_265" fill="none" stroke="gray"></path></g><path id="node_outline3" fill="none" stroke="none" d="M1274.5000082030892,76.49998722225428h178a5,5,0,0,1,5,5v16a5,5,0,0,1,-5,5h-178a5,5,0,0,1,-5,-5v-16a5,5,0,0,1,5,-5z" stroke-width="3"></path><g id="node_text3" fill="black"><text id="kity_text_125" text-rendering="inherit" font-size="16" dy=".8em" y="79.09998718649149" x="1279.5000082030892">Homogeneity (同质性)</text></g></g><g id="minder_node6"><g id="node_expander3" style="cursor: pointer;" display="none"><path id="kity_path_267" fill="white" stroke="gray" d="M1269.5000079646707,145.4999880567193A6,6,0,1,1,1257.5000079646707,145.4999880567193A6,6,0,1,1,1269.5000079646707,145.4999880567193"></path><path id="kity_path_268" fill="none" stroke="gray"></path></g><path id="node_outline4" fill="none" stroke="none" d="M1274.5000082030892,132.4999880567193h223a5,5,0,0,1,5,5v16a5,5,0,0,1,-5,5h-223a5,5,0,0,1,-5,-5v-16a5,5,0,0,1,5,-5z" stroke-width="3"></path><g id="node_text4" fill="black"><text id="kity_text_127" text-rendering="inherit" font-size="16" dy=".8em" y="135.09998802095652" x="1279.5000082030892">Shift Invariance (移位不变性)</text></g></g><g id="minder_node7"><g id="node_expander7" style="cursor: pointer;"><path id="kity_path_279" fill="white" stroke="gray" d="M1106.5000055357814,229.49998930841684A6,6,0,1,1,1094.5000055357814,229.49998930841684A6,6,0,1,1,1106.5000055357814,229.49998930841684"></path><path id="kity_path_280" fill="none" stroke="gray" d="M1096.0000055357814,229.49998930841684L1105.0000055357814,229.49998930841684"></path></g><path id="node_outline8" fill="none" stroke="none" d="M1111.5000057742,216.49998930841684h138a5,5,0,0,1,5,5v16a5,5,0,0,1,-5,5h-138a5,5,0,0,1,-5,-5v-16a5,5,0,0,1,5,-5z" stroke-width="3"></path><g id="node_text8" fill="black"><text id="kity_text_135" text-rendering="inherit" font-size="16" dy=".8em" y="219.09998927265406" x="1116.5000057742">multiple systems</text></g></g><g id="minder_node8"><g id="node_expander5" style="cursor: pointer;" display="none"><path id="kity_path_273" fill="white" stroke="gray" d="M1294.5000083371997,201.49998889118433A6,6,0,1,1,1282.5000083371997,201.49998889118433A6,6,0,1,1,1294.5000083371997,201.49998889118433"></path><path id="kity_path_274" fill="none" stroke="gray"></path></g><path id="node_outline6" fill="none" stroke="none" d="M1299.5000085756183,188.49998889118433h177a5,5,0,0,1,5,5v16a5,5,0,0,1,-5,5h-177a5,5,0,0,1,-5,-5v-16a5,5,0,0,1,5,-5z" stroke-width="3"></path><g id="node_text6" fill="black"><text id="kity_text_131" text-rendering="inherit" font-size="16" dy=".8em" y="191.09998885542154" x="1304.5000085756183">Commutative (可交换)</text></g></g><g id="minder_node9"><g id="node_expander6" style="cursor: pointer;" display="none"><path id="kity_path_276" fill="white" stroke="gray" d="M1294.5000083371997,257.49998972564936A6,6,0,1,1,1282.5000083371997,257.49998972564936A6,6,0,1,1,1294.5000083371997,257.49998972564936"></path><path id="kity_path_277" fill="none" stroke="gray"></path></g><path id="node_outline7" fill="none" stroke="none" d="M1299.5000085756183,244.49998972564936h169a5,5,0,0,1,5,5v16a5,5,0,0,1,-5,5h-169a5,5,0,0,1,-5,-5v-16a5,5,0,0,1,5,-5z" stroke-width="3"></path><g id="node_text7" fill="black"><text id="kity_text_133" text-rendering="inherit" font-size="16" dy=".8em" y="247.09998968988657" x="1304.5000085756183">Superposition (叠加)&#xa0;</text></g></g><g id="minder_node10"><g id="node_expander17" style="cursor: pointer;"><path id="kity_path_309" fill="white" stroke="gray" d="M1106.5000055357814,411.4999920204282A6,6,0,1,1,1094.5000055357814,411.4999920204282A6,6,0,1,1,1106.5000055357814,411.4999920204282"></path><path id="kity_path_310" fill="none" stroke="gray" d="M1096.0000055357814,411.4999920204282L1105.0000055357814,411.4999920204282"></path></g><path id="node_outline18" fill="none" stroke="none" d="M1111.5000057742,398.4999920204282h229a5,5,0,0,1,5,5v16a5,5,0,0,1,-5,5h-229a5,5,0,0,1,-5,-5v-16a5,5,0,0,1,5,-5z" stroke-width="3"></path><g id="node_text18" fill="black"><text id="kity_text_155" text-rendering="inherit" font-size="16" dy=".8em" y="401.0999919846654" x="1116.5000057742">Response of a Linear System</text></g></g><g id="minder_node11"><g id="node_expander9" style="cursor: pointer;"><path id="kity_path_285" fill="white" stroke="gray" d="M1385.5000096932054,313.4999905601144A6,6,0,1,1,1373.5000096932054,313.4999905601144A6,6,0,1,1,1385.5000096932054,313.4999905601144"></path><path id="kity_path_286" fill="none" stroke="gray" d="M1375.0000096932054,313.4999905601144L1384.0000096932054,313.4999905601144"></path></g><path id="node_outline10" fill="none" stroke="none" d="M1390.500009931624,300.4999905601144h70a5,5,0,0,1,5,5v16a5,5,0,0,1,-5,5h-70a5,5,0,0,1,-5,-5v-16a5,5,0,0,1,5,-5z" stroke-width="3"></path><g id="node_text10" fill="black"><text id="kity_text_139" text-rendering="inherit" font-size="16" dy=".8em" y="303.0999905243516" x="1395.500009931624">impulse</text></g></g><g id="minder_node12"><g id="node_expander8" style="cursor: pointer;" display="none"><path id="kity_path_282" fill="white" stroke="gray" d="M1505.5000114813447,313.4999905601144A6,6,0,1,1,1493.5000114813447,313.4999905601144A6,6,0,1,1,1505.5000114813447,313.4999905601144"></path><path id="kity_path_283" fill="none" stroke="gray"></path></g><path id="node_outline9" fill="none" stroke="none" d="M1510.5000117197633,300.4999905601144h165a5,5,0,0,1,5,5v16a5,5,0,0,1,-5,5h-165a5,5,0,0,1,-5,-5v-16a5,5,0,0,1,5,-5z" stroke-width="3"></path><g id="node_text9" fill="black"><text id="kity_text_137" text-rendering="inherit" font-size="16" dy=".8em" y="303.0999905243516" x="1515.5000117197633">δ[t] (simplest signal)</text></g></g><g id="minder_node13"><g id="node_expander11" style="cursor: pointer;"><path id="kity_path_291" fill="white" stroke="gray" d="M1385.5000096932054,369.4999913945794A6,6,0,1,1,1373.5000096932054,369.4999913945794A6,6,0,1,1,1385.5000096932054,369.4999913945794"></path><path id="kity_path_292" fill="none" stroke="gray" d="M1375.0000096932054,369.4999913945794L1384.0000096932054,369.4999913945794"></path></g><path id="node_outline12" fill="none" stroke="none" d="M1390.500009931624,356.4999913945794h144a5,5,0,0,1,5,5v16a5,5,0,0,1,-5,5h-144a5,5,0,0,1,-5,-5v-16a5,5,0,0,1,5,-5z" stroke-width="3"></path><g id="node_text12" fill="black"><text id="kity_text_143" text-rendering="inherit" font-size="16" dy=".8em" y="359.0999913588166" x="1395.500009931624">impluse response</text></g></g><g id="minder_node14"><g id="node_expander10" style="cursor: pointer;" display="none"><path id="kity_path_288" fill="white" stroke="gray" d="M1579.5000125840306,369.4999913945794A6,6,0,1,1,1567.5000125840306,369.4999913945794A6,6,0,1,1,1579.5000125840306,369.4999913945794"></path><path id="kity_path_289" fill="none" stroke="gray"></path></g><path id="node_outline11" fill="none" stroke="none" d="M1584.5000128224492,356.4999913945794h39a5,5,0,0,1,5,5v16a5,5,0,0,1,-5,5h-39a5,5,0,0,1,-5,-5v-16a5,5,0,0,1,5,-5z" stroke-width="3"></path><g id="node_text11" fill="black"><text id="kity_text_141" text-rendering="inherit" font-size="16" dy=".8em" y="359.0999913588166" x="1589.5000128224492">size</text></g></g><g id="minder_node15"><g id="node_expander16" style="cursor: pointer;"><path id="kity_path_306" fill="white" stroke="gray" d="M1385.5000096932054,509.499993480742A6,6,0,1,1,1373.5000096932054,509.499993480742A6,6,0,1,1,1385.5000096932054,509.499993480742"></path><path id="kity_path_307" fill="none" stroke="gray" d="M1375.0000096932054,509.499993480742L1384.0000096932054,509.499993480742"></path></g><path id="node_outline17" fill="none" stroke="none" d="M1390.500009931624,496.499993480742h104a5,5,0,0,1,5,5v16a5,5,0,0,1,-5,5h-104a5,5,0,0,1,-5,-5v-16a5,5,0,0,1,5,-5z" stroke-width="3"></path><g id="node_text17" fill="black"><text id="kity_text_153" text-rendering="inherit" font-size="16" dy=".8em" y="499.0999934449792" x="1395.500009931624">Convolution</text></g></g><g id="minder_node16"><g id="node_expander12" style="cursor: pointer;" display="none"><path id="kity_path_294" fill="white" stroke="gray" d="M1539.5000119879842,425.49999222904444A6,6,0,1,1,1527.5000119879842,425.49999222904444A6,6,0,1,1,1539.5000119879842,425.49999222904444"></path><path id="kity_path_295" fill="none" stroke="gray"></path></g><path id="node_outline13" fill="none" stroke="none" d="M1544.5000122264028,412.49999222904444h141a5,5,0,0,1,5,5v16a5,5,0,0,1,-5,5h-141a5,5,0,0,1,-5,-5v-16a5,5,0,0,1,5,-5z" stroke-width="3"></path><g id="node_text13" fill="black"><text id="kity_text_145" text-rendering="inherit" font-size="16" dy=".8em" y="415.09999219328165" x="1549.5000122264028">size my be larger</text></g></g><g id="minder_node17"><g id="node_expander13" style="cursor: pointer;" display="none"><path id="kity_path_297" fill="white" stroke="gray" d="M1539.5000119879842,481.49999306350946A6,6,0,1,1,1527.5000119879842,481.49999306350946A6,6,0,1,1,1539.5000119879842,481.49999306350946"></path><path id="kity_path_298" fill="none" stroke="gray"></path></g><path id="node_outline14" fill="none" stroke="none" d="M1544.5000122264028,468.49999306350946h233a5,5,0,0,1,5,5v16a5,5,0,0,1,-5,5h-233a5,5,0,0,1,-5,-5v-16a5,5,0,0,1,5,-5z" stroke-width="3"></path><g id="node_text14" fill="black"><text id="kity_text_147" text-rendering="inherit" font-size="16" dy=".8em" y="471.0999930277467" x="1549.5000122264028">some values are not accurate</text></g></g><g id="minder_node18"><g id="node_expander14" style="cursor: pointer;" display="none"><path id="kity_path_300" fill="white" stroke="gray" d="M1539.5000119879842,537.4999938979745A6,6,0,1,1,1527.5000119879842,537.4999938979745A6,6,0,1,1,1539.5000119879842,537.4999938979745"></path><path id="kity_path_301" fill="none" stroke="gray"></path></g><path id="node_outline15" fill="none" stroke="none" d="M1544.5000122264028,524.4999938979745h165a5,5,0,0,1,5,5v16a5,5,0,0,1,-5,5h-165a5,5,0,0,1,-5,-5v-16a5,5,0,0,1,5,-5z" stroke-width="3"></path><g id="node_text15" fill="black"><text id="kity_text_149" text-rendering="inherit" font-size="16" dy=".8em" y="527.0999938622117" x="1549.5000122264028">input side algorithm</text></g></g><g id="minder_node19"><g id="node_expander15" style="cursor: pointer;" display="none"><path id="kity_path_303" fill="white" stroke="gray" d="M1539.5000119879842,593.4999947324395A6,6,0,1,1,1527.5000119879842,593.4999947324395A6,6,0,1,1,1539.5000119879842,593.4999947324395"></path><path id="kity_path_304" fill="none" stroke="gray"></path></g><path id="node_outline16" fill="none" stroke="none" d="M1544.5000122264028,580.4999947324395h299a5,5,0,0,1,5,5v16a5,5,0,0,1,-5,5h-299a5,5,0,0,1,-5,-5v-16a5,5,0,0,1,5,-5z" stroke-width="3"></path><g id="node_text16" fill="black"><text id="kity_text_151" text-rendering="inherit" font-size="16" dy=".8em" y="583.0999946966767" x="1549.5000122264028">output side algorithm (more efficient)</text></g></g><g id="minder_node20"><g id="node_expander26" style="cursor: pointer;"><path id="kity_path_336" fill="white" stroke="gray" d="M1106.5000055357814,789.4999976530671A6,6,0,1,1,1094.5000055357814,789.4999976530671A6,6,0,1,1,1106.5000055357814,789.4999976530671"></path><path id="kity_path_337" fill="none" stroke="gray" d="M1096.0000055357814,789.4999976530671L1105.0000055357814,789.4999976530671"></path></g><path id="node_outline27" fill="none" stroke="none" d="M1111.5000057742,776.4999976530671h207a5,5,0,0,1,5,5v16a5,5,0,0,1,-5,5h-207a5,5,0,0,1,-5,-5v-16a5,5,0,0,1,5,-5z" stroke-width="3"></path><g id="node_text27" fill="black"><text id="kity_text_173" text-rendering="inherit" font-size="16" dy=".8em" y="779.0999976173043" x="1116.5000057742">Properties of Convolution</text></g></g><g id="minder_node21"><g id="node_expander21" style="cursor: pointer;"><path id="kity_path_321" fill="white" stroke="gray" d="M1363.5000093653798,705.4999964013696A6,6,0,1,1,1351.5000093653798,705.4999964013696A6,6,0,1,1,1363.5000093653798,705.4999964013696"></path><path id="kity_path_322" fill="none" stroke="gray" d="M1353.0000093653798,705.4999964013696L1362.0000093653798,705.4999964013696"></path></g><path id="node_outline22" fill="none" stroke="none" d="M1368.5000096037984,692.4999964013696h63a5,5,0,0,1,5,5v16a5,5,0,0,1,-5,5h-63a5,5,0,0,1,-5,-5v-16a5,5,0,0,1,5,-5z" stroke-width="3"></path><g id="node_text22" fill="black"><text id="kity_text_163" text-rendering="inherit" font-size="16" dy=".8em" y="695.0999963656068" x="1373.5000096037984">system</text></g></g><g id="minder_node22"><g id="node_expander18" style="cursor: pointer;" display="none"><path id="kity_path_312" fill="white" stroke="gray" d="M1476.500011049211,649.4999955669045A6,6,0,1,1,1464.500011049211,649.4999955669045A6,6,0,1,1,1476.500011049211,649.4999955669045"></path><path id="kity_path_313" fill="none" stroke="gray"></path></g><path id="node_outline19" fill="none" stroke="none" d="M1481.5000112876296,636.4999955669045h124a5,5,0,0,1,5,5v16a5,5,0,0,1,-5,5h-124a5,5,0,0,1,-5,-5v-16a5,5,0,0,1,5,-5z" stroke-width="3"></path><g id="node_text19" fill="black"><text id="kity_text_157" text-rendering="inherit" font-size="16" dy=".8em" y="639.0999955311418" x="1486.5000112876296">all pass system</text></g></g><g id="minder_node23"><g id="node_expander19" style="cursor: pointer;" display="none"><path id="kity_path_315" fill="white" stroke="gray" d="M1476.500011049211,705.4999964013696A6,6,0,1,1,1464.500011049211,705.4999964013696A6,6,0,1,1,1476.500011049211,705.4999964013696"></path><path id="kity_path_316" fill="none" stroke="gray"></path></g><path id="node_outline20" fill="none" stroke="none" d="M1481.5000112876296,692.4999964013696h175a5,5,0,0,1,5,5v16a5,5,0,0,1,-5,5h-175a5,5,0,0,1,-5,-5v-16a5,5,0,0,1,5,-5z" stroke-width="3"></path><g id="node_text20" fill="black"><text id="kity_text_159" text-rendering="inherit" font-size="16" dy=".8em" y="695.0999963656068" x="1486.5000112876296">amplifier / attenuator</text></g></g><g id="minder_node24"><g id="node_expander20" style="cursor: pointer;" display="none"><path id="kity_path_318" fill="white" stroke="gray" d="M1476.500011049211,761.4999972358346A6,6,0,1,1,1464.500011049211,761.4999972358346A6,6,0,1,1,1476.500011049211,761.4999972358346"></path><path id="kity_path_319" fill="none" stroke="gray"></path></g><path id="node_outline21" fill="none" stroke="none" d="M1481.5000112876296,748.4999972358346h109a5,5,0,0,1,5,5v16a5,5,0,0,1,-5,5h-109a5,5,0,0,1,-5,-5v-16a5,5,0,0,1,5,-5z" stroke-width="3"></path><g id="node_text21" fill="black"><text id="kity_text_161" text-rendering="inherit" font-size="16" dy=".8em" y="751.0999972000718" x="1486.5000112876296">delay system</text></g></g><g id="minder_node25"><g id="node_expander25" style="cursor: pointer;"><path id="kity_path_333" fill="white" stroke="gray" d="M1363.5000093653798,873.4999989047647A6,6,0,1,1,1351.5000093653798,873.4999989047647A6,6,0,1,1,1363.5000093653798,873.4999989047647"></path><path id="kity_path_334" fill="none" stroke="gray" d="M1353.0000093653798,873.4999989047647L1362.0000093653798,873.4999989047647"></path></g><path id="node_outline26" fill="none" stroke="none" d="M1368.5000096037984,860.4999989047647h89a5,5,0,0,1,5,5v16a5,5,0,0,1,-5,5h-89a5,5,0,0,1,-5,-5v-16a5,5,0,0,1,5,-5z" stroke-width="3"></path><g id="node_text26" fill="black"><text id="kity_text_171" text-rendering="inherit" font-size="16" dy=".8em" y="863.0999988690019" x="1373.5000096037984">properties</text></g></g><g id="minder_node26"><g id="node_expander22" style="cursor: pointer;" display="none"><path id="kity_path_324" fill="white" stroke="gray" d="M1502.5000114366412,817.4999980702996A6,6,0,1,1,1490.5000114366412,817.4999980702996A6,6,0,1,1,1502.5000114366412,817.4999980702996"></path><path id="kity_path_325" fill="none" stroke="gray"></path></g><path id="node_outline23" fill="none" stroke="none" d="M1507.5000116750598,804.4999980702996h111a5,5,0,0,1,5,5v16a5,5,0,0,1,-5,5h-111a5,5,0,0,1,-5,-5v-16a5,5,0,0,1,5,-5z" stroke-width="3"></path><g id="node_text23" fill="black"><text id="kity_text_165" text-rendering="inherit" font-size="16" dy=".8em" y="807.0999980345368" x="1512.5000116750598">commutative</text></g></g><g id="minder_node27"><g id="node_expander23" style="cursor: pointer;" display="none"><path id="kity_path_327" fill="white" stroke="gray" d="M1502.5000114366412,873.4999989047647A6,6,0,1,1,1490.5000114366412,873.4999989047647A6,6,0,1,1,1502.5000114366412,873.4999989047647"></path><path id="kity_path_328" fill="none" stroke="gray"></path></g><path id="node_outline24" fill="none" stroke="none" d="M1507.5000116750598,860.4999989047647h93a5,5,0,0,1,5,5v16a5,5,0,0,1,-5,5h-93a5,5,0,0,1,-5,-5v-16a5,5,0,0,1,5,-5z" stroke-width="3"></path><g id="node_text24" fill="black"><text id="kity_text_167" text-rendering="inherit" font-size="16" dy=".8em" y="863.0999988690019" x="1512.5000116750598">associative</text></g></g><g id="minder_node28"><g id="node_expander24" style="cursor: pointer;" display="none"><path id="kity_path_330" fill="white" stroke="gray" d="M1502.5000114366412,929.4999997392297A6,6,0,1,1,1490.5000114366412,929.4999997392297A6,6,0,1,1,1502.5000114366412,929.4999997392297"></path><path id="kity_path_331" fill="none" stroke="gray"></path></g><path id="node_outline25" fill="none" stroke="none" d="M1507.5000116750598,916.4999997392297h96a5,5,0,0,1,5,5v16a5,5,0,0,1,-5,5h-96a5,5,0,0,1,-5,-5v-16a5,5,0,0,1,5,-5z" stroke-width="3"></path><g id="node_text25" fill="black"><text id="kity_text_169" text-rendering="inherit" font-size="16" dy=".8em" y="919.0999997034669" x="1512.5000116750598">distributive</text></g></g><g id="minder_node29"><g id="node_expander46" style="cursor: pointer;"><path id="kity_path_396" fill="white" stroke="gray" d="M911.500002630055,1303.500005312264A6,6,0,1,1,899.500002630055,1303.500005312264A6,6,0,1,1,911.500002630055,1303.500005312264"></path><path id="kity_path_397" fill="none" stroke="gray" d="M901.000002630055,1303.500005312264L910.000002630055,1303.500005312264"></path></g><path id="node_outline47" fill="rgb(238, 243, 246)" stroke="rgb(115, 161, 191)" d="M915.5000030323863,1289.500005312264h131a3,3,0,0,1,3,3v22a3,3,0,0,1,-3,3h-131a3,3,0,0,1,-3,-3v-22a3,3,0,0,1,3,-3z" stroke-width="1"></path><g id="node_text47" fill="black"><text id="kity_text_213" text-rendering="inherit" font-size="16" dy=".8em" y="1293.1000052765012" x="932.5000030323863">Linear Filters</text></g></g><g id="minder_node30"><g id="node_expander31" style="cursor: pointer;"><path id="kity_path_351" fill="white" stroke="gray" d="M1089.5000052824616,1051.5000015571713A6,6,0,1,1,1077.5000052824616,1051.5000015571713A6,6,0,1,1,1089.5000052824616,1051.5000015571713"></path><path id="kity_path_352" fill="none" stroke="gray" d="M1079.0000052824616,1051.5000015571713L1088.0000052824616,1051.5000015571713"></path></g><path id="node_outline32" fill="none" stroke="none" d="M1094.5000055208802,1038.5000015571713h159a5,5,0,0,1,5,5v16a5,5,0,0,1,-5,5h-159a5,5,0,0,1,-5,-5v-16a5,5,0,0,1,5,-5z" stroke-width="3"></path><g id="node_text32" fill="black"><text id="kity_text_183" text-rendering="inherit" font-size="16" dy=".8em" y="1041.1000015214086" x="1099.5000055208802">blurred delta signal</text></g></g><g id="minder_node31"><g id="node_expander28" style="cursor: pointer;" display="none"><path id="kity_path_342" fill="white" stroke="gray" d="M1298.5000083968043,995.5000007227063A6,6,0,1,1,1286.5000083968043,995.5000007227063A6,6,0,1,1,1298.5000083968043,995.5000007227063"></path><path id="kity_path_343" fill="none" stroke="gray"></path></g><path id="node_outline29" fill="none" stroke="none" d="M1303.500008635223,982.5000007227063h192a5,5,0,0,1,5,5v16a5,5,0,0,1,-5,5h-192a5,5,0,0,1,-5,-5v-16a5,5,0,0,1,5,-5z" stroke-width="3"></path><g id="node_text29" fill="black"><text id="kity_text_177" text-rendering="inherit" font-size="16" dy=".8em" y="985.1000006869435" x="1308.500008635223">fix the base of the spike</text></g></g><g id="minder_node32"><g id="node_expander29" style="cursor: pointer;" display="none"><path id="kity_path_345" fill="white" stroke="gray" d="M1298.5000083968043,1051.5000015571713A6,6,0,1,1,1286.5000083968043,1051.5000015571713A6,6,0,1,1,1298.5000083968043,1051.5000015571713"></path><path id="kity_path_346" fill="none" stroke="gray"></path></g><path id="node_outline30" fill="none" stroke="none" d="M1303.500008635223,1038.5000015571713h300a5,5,0,0,1,5,5v16a5,5,0,0,1,-5,5h-300a5,5,0,0,1,-5,-5v-16a5,5,0,0,1,5,-5z" stroke-width="3"></path><g id="node_text30" fill="black"><text id="kity_text_179" text-rendering="inherit" font-size="16" dy=".8em" y="1041.1000015214086" x="1308.500008635223">decide the height of the blurred spike</text></g></g><g id="minder_node33"><g id="node_expander30" style="cursor: pointer;" display="none"><path id="kity_path_348" fill="white" stroke="gray" d="M1298.5000083968043,1107.5000023916364A6,6,0,1,1,1286.5000083968043,1107.5000023916364A6,6,0,1,1,1298.5000083968043,1107.5000023916364"></path><path id="kity_path_349" fill="none" stroke="gray"></path></g><path id="node_outline31" fill="none" stroke="none" d="M1303.500008635223,1094.5000023916364h207a5,5,0,0,1,5,5v16a5,5,0,0,1,-5,5h-207a5,5,0,0,1,-5,-5v-16a5,5,0,0,1,5,-5z" stroke-width="3"></path><g id="node_text31" fill="black"><text id="kity_text_181" text-rendering="inherit" font-size="16" dy=".8em" y="1097.1000023558736" x="1308.500008635223">box filters (low pass filter)</text></g></g><g id="minder_node34"><g id="node_expander41" style="cursor: pointer;"><path id="kity_path_381" fill="white" stroke="gray" d="M1089.5000052824616,1275.5000048950315A6,6,0,1,1,1077.5000052824616,1275.5000048950315A6,6,0,1,1,1089.5000052824616,1275.5000048950315"></path><path id="kity_path_382" fill="none" stroke="gray" d="M1079.0000052824616,1275.5000048950315L1088.0000052824616,1275.5000048950315"></path></g><path id="node_outline42" fill="none" stroke="none" d="M1094.5000055208802,1262.5000048950315h115a5,5,0,0,1,5,5v16a5,5,0,0,1,-5,5h-115a5,5,0,0,1,-5,-5v-16a5,5,0,0,1,5,-5z" stroke-width="3"></path><g id="node_text42" fill="black"><text id="kity_text_203" text-rendering="inherit" font-size="16" dy=".8em" y="1265.1000048592687" x="1099.5000055208802">duality 二元性</text></g></g><g id="minder_node35"><g id="node_expander33" style="cursor: pointer;"><path id="kity_path_357" fill="white" stroke="gray" d="M1254.5000077411532,1163.5000032261014A6,6,0,1,1,1242.5000077411532,1163.5000032261014A6,6,0,1,1,1254.5000077411532,1163.5000032261014"></path><path id="kity_path_358" fill="none" stroke="gray" d="M1244.0000077411532,1163.5000032261014L1253.0000077411532,1163.5000032261014"></path></g><path id="node_outline34" fill="none" stroke="none" d="M1259.5000079795718,1150.5000032261014h66a5,5,0,0,1,5,5v16a5,5,0,0,1,-5,5h-66a5,5,0,0,1,-5,-5v-16a5,5,0,0,1,5,-5z" stroke-width="3"></path><g id="node_text34" fill="black"><text id="kity_text_187" text-rendering="inherit" font-size="16" dy=".8em" y="1153.1000031903386" x="1264.5000079795718">all pass</text></g></g><g id="minder_node36"><g id="node_expander32" style="cursor: pointer;" display="none"><path id="kity_path_354" fill="white" stroke="gray" d="M1370.500009469688,1163.5000032261014A6,6,0,1,1,1358.500009469688,1163.5000032261014A6,6,0,1,1,1370.500009469688,1163.5000032261014"></path><path id="kity_path_355" fill="none" stroke="gray"></path></g><path id="node_outline33" fill="none" stroke="none" d="M1375.5000097081065,1150.5000032261014h20a5,5,0,0,1,5,5v16a5,5,0,0,1,-5,5h-20a5,5,0,0,1,-5,-5v-16a5,5,0,0,1,5,-5z" stroke-width="3"></path><g id="node_text33" fill="black"><text id="kity_text_185" text-rendering="inherit" font-size="16" dy=".8em" y="1153.1000031903386" x="1380.5000097081065">δ</text></g></g><g id="minder_node37"><g id="node_expander36" style="cursor: pointer;"><path id="kity_path_366" fill="white" stroke="gray" d="M1254.5000077411532,1247.500004477799A6,6,0,1,1,1242.5000077411532,1247.500004477799A6,6,0,1,1,1254.5000077411532,1247.500004477799"></path><path id="kity_path_367" fill="none" stroke="gray" d="M1244.0000077411532,1247.500004477799L1253.0000077411532,1247.500004477799"></path></g><path id="node_outline37" fill="none" stroke="none" d="M1259.5000079795718,1234.500004477799h76a5,5,0,0,1,5,5v16a5,5,0,0,1,-5,5h-76a5,5,0,0,1,-5,-5v-16a5,5,0,0,1,5,-5z" stroke-width="3"></path><g id="node_text37" fill="black"><text id="kity_text_193" text-rendering="inherit" font-size="16" dy=".8em" y="1237.1000044420362" x="1264.5000079795718">low pass</text></g></g><g id="minder_node38"><g id="node_expander34" style="cursor: pointer;" display="none"><path id="kity_path_360" fill="white" stroke="gray" d="M1380.5000096186996,1219.5000040605664A6,6,0,1,1,1368.5000096186996,1219.5000040605664A6,6,0,1,1,1380.5000096186996,1219.5000040605664"></path><path id="kity_path_361" fill="none" stroke="gray"></path></g><path id="node_outline35" fill="none" stroke="none" d="M1385.5000098571181,1206.5000040605664h134a5,5,0,0,1,5,5v16a5,5,0,0,1,-5,5h-134a5,5,0,0,1,-5,-5v-16a5,5,0,0,1,5,-5z" stroke-width="3"></path><g id="node_text35" fill="black"><text id="kity_text_189" text-rendering="inherit" font-size="16" dy=".8em" y="1209.1000040248036" x="1390.5000098571181">blurrier function</text></g></g><g id="minder_node39"><g id="node_expander35" style="cursor: pointer;" display="none"><path id="kity_path_363" fill="white" stroke="gray" d="M1380.5000096186996,1275.5000048950315A6,6,0,1,1,1368.5000096186996,1275.5000048950315A6,6,0,1,1,1380.5000096186996,1275.5000048950315"></path><path id="kity_path_364" fill="none" stroke="gray"></path></g><path id="node_outline36" fill="none" stroke="none" d="M1385.5000098571181,1262.5000048950315h200a5,5,0,0,1,5,5v16a5,5,0,0,1,-5,5h-200a5,5,0,0,1,-5,-5v-16a5,5,0,0,1,5,-5z" stroke-width="3"></path><g id="node_text36" fill="black"><text id="kity_text_191" text-rendering="inherit" font-size="16" dy=".8em" y="1265.1000048592687" x="1390.5000098571181">Gaussian pyramid 金字塔</text></g></g><g id="minder_node40"><g id="node_expander38" style="cursor: pointer;"><path id="kity_path_372" fill="white" stroke="gray" d="M1254.5000077411532,1331.5000057294965A6,6,0,1,1,1242.5000077411532,1331.5000057294965A6,6,0,1,1,1254.5000077411532,1331.5000057294965"></path><path id="kity_path_373" fill="none" stroke="gray" d="M1244.0000077411532,1331.5000057294965L1253.0000077411532,1331.5000057294965"></path></g><path id="node_outline39" fill="none" stroke="none" d="M1259.5000079795718,1318.5000057294965h83a5,5,0,0,1,5,5v16a5,5,0,0,1,-5,5h-83a5,5,0,0,1,-5,-5v-16a5,5,0,0,1,5,-5z" stroke-width="3"></path><g id="node_text39" fill="black"><text id="kity_text_197" text-rendering="inherit" font-size="16" dy=".8em" y="1321.1000056937337" x="1264.5000079795718">high pass</text></g></g><g id="minder_node41"><g id="node_expander37" style="cursor: pointer;" display="none"><path id="kity_path_369" fill="white" stroke="gray" d="M1387.5000097230077,1331.5000057294965A6,6,0,1,1,1375.5000097230077,1331.5000057294965A6,6,0,1,1,1387.5000097230077,1331.5000057294965"></path><path id="kity_path_370" fill="none" stroke="gray"></path></g><path id="node_outline38" fill="none" stroke="none" d="M1392.5000099614263,1318.5000057294965h238a5,5,0,0,1,5,5v16a5,5,0,0,1,-5,5h-238a5,5,0,0,1,-5,-5v-16a5,5,0,0,1,5,-5z" stroke-width="3"></path><g id="node_text38" fill="black"><text id="kity_text_195" text-rendering="inherit" font-size="16" dy=".8em" y="1321.1000056937337" x="1397.5000099614263">another pyramid Li=Gi-G{i+1}</text></g></g><g id="minder_node42"><g id="node_expander40" style="cursor: pointer;"><path id="kity_path_378" fill="white" stroke="gray" d="M1254.5000077411532,1387.5000065639615A6,6,0,1,1,1242.5000077411532,1387.5000065639615A6,6,0,1,1,1254.5000077411532,1387.5000065639615"></path><path id="kity_path_379" fill="none" stroke="gray" d="M1244.0000077411532,1387.5000065639615L1253.0000077411532,1387.5000065639615"></path></g><path id="node_outline41" fill="none" stroke="none" d="M1259.5000079795718,1374.5000065639615h128a5,5,0,0,1,5,5v16a5,5,0,0,1,-5,5h-128a5,5,0,0,1,-5,-5v-16a5,5,0,0,1,5,-5z" stroke-width="3"></path><g id="node_text41" fill="black"><text id="kity_text_201" text-rendering="inherit" font-size="16" dy=".8em" y="1377.1000065281987" x="1264.5000079795718">band pass filter</text></g></g><g id="minder_node43"><g id="node_expander39" style="cursor: pointer;" display="none"><path id="kity_path_375" fill="white" stroke="gray" d="M1432.50001039356,1387.5000065639615A6,6,0,1,1,1420.50001039356,1387.5000065639615A6,6,0,1,1,1432.50001039356,1387.5000065639615"></path><path id="kity_path_376" fill="none" stroke="gray"></path></g><path id="node_outline40" fill="none" stroke="none" d="M1437.5000106319785,1374.5000065639615h264a5,5,0,0,1,5,5v16a5,5,0,0,1,-5,5h-264a5,5,0,0,1,-5,-5v-16a5,5,0,0,1,5,-5z" stroke-width="3"></path><g id="node_text40" fill="black"><text id="kity_text_199" text-rendering="inherit" font-size="16" dy=".8em" y="1377.1000065281987" x="1442.5000106319785">frequencies between fi and f{i+1}</text></g></g><g id="minder_node44"><g id="node_expander45" style="cursor: pointer;"><path id="kity_path_393" fill="white" stroke="gray" d="M1089.5000052824616,1555.5000090673566A6,6,0,1,1,1077.5000052824616,1555.5000090673566A6,6,0,1,1,1089.5000052824616,1555.5000090673566"></path><path id="kity_path_394" fill="none" stroke="gray" d="M1079.0000052824616,1555.5000090673566L1088.0000052824616,1555.5000090673566"></path></g><path id="node_outline46" fill="none" stroke="none" d="M1094.5000055208802,1542.5000090673566h80a5,5,0,0,1,5,5v16a5,5,0,0,1,-5,5h-80a5,5,0,0,1,-5,-5v-16a5,5,0,0,1,5,-5z" stroke-width="3"></path><g id="node_text46" fill="black"><text id="kity_text_211" text-rendering="inherit" font-size="16" dy=".8em" y="1545.1000090315938" x="1099.5000055208802">2D filters</text></g></g><g id="minder_node45"><g id="node_expander42" style="cursor: pointer;" display="none"><path id="kity_path_384" fill="white" stroke="gray" d="M1219.5000072196126,1443.5000073984265A6,6,0,1,1,1207.5000072196126,1443.5000073984265A6,6,0,1,1,1219.5000072196126,1443.5000073984265"></path><path id="kity_path_385" fill="none" stroke="gray"></path></g><path id="node_outline43" fill="none" stroke="none" d="M1224.5000074580312,1430.5000073984265h98a5,5,0,0,1,5,5v16a5,5,0,0,1,-5,5h-98a5,5,0,0,1,-5,-5v-16a5,5,0,0,1,5,-5z" stroke-width="3"></path><g id="node_text43" fill="black"><text id="kity_text_205" text-rendering="inherit" font-size="16" dy=".8em" y="1433.1000073626637" x="1229.5000074580312">separability</text></g></g><g id="minder_node46"><g id="node_expander43" style="cursor: pointer;" display="none"><path id="kity_path_387" fill="white" stroke="gray" d="M1219.5000072196126,1499.5000082328916A6,6,0,1,1,1207.5000072196126,1499.5000082328916A6,6,0,1,1,1219.5000072196126,1499.5000082328916"></path><path id="kity_path_388" fill="none" stroke="gray"></path></g><path id="node_outline44" fill="none" stroke="none" d="M1224.5000074580312,1486.5000082328916h231a5,5,0,0,1,5,5v16a5,5,0,0,1,-5,5h-231a5,5,0,0,1,-5,-5v-16a5,5,0,0,1,5,-5z" stroke-width="3"></path><g id="node_text44" fill="black"><text id="kity_text_207" text-rendering="inherit" font-size="16" dy=".8em" y="1489.1000081971288" x="1229.5000074580312">减小计算量 2pqN -&gt; 2(p+q)N</text></g></g><g id="minder_node47"><g id="node_expander44" style="cursor: pointer;" display="none"><path id="kity_path_390" fill="white" stroke="gray" d="M1219.5000072196126,1555.5000090673566A6,6,0,1,1,1207.5000072196126,1555.5000090673566A6,6,0,1,1,1219.5000072196126,1555.5000090673566"></path><path id="kity_path_391" fill="none" stroke="gray"></path></g><path id="node_outline45" fill="none" stroke="none" d="M1224.5000074580312,1542.5000090673566h257a5,5,0,0,1,5,5v16a5,5,0,0,1,-5,5h-257a5,5,0,0,1,-5,-5v-16a5,5,0,0,1,5,-5z" stroke-width="3"></path><g id="node_text45" fill="black"><text id="kity_text_209" text-rendering="inherit" font-size="16" dy=".8em" y="1545.1000090315938" x="1229.5000074580312">Correlation and Pattern Matchin</text></g></g><g id="minder_node48"><g id="node_expander47" style="cursor: pointer;"><path id="kity_path_404" fill="white" stroke="gray" d="M1219.5000072196126,1667.5000107362866A6,6,0,1,1,1207.5000072196126,1667.5000107362866A6,6,0,1,1,1219.5000072196126,1667.5000107362866"></path><path id="kity_path_405" fill="none" stroke="gray" d="M1209.0000072196126,1667.5000107362866L1218.0000072196126,1667.5000107362866"></path></g><path id="node_outline48" fill="none" stroke="none" d="M1224.5000074580312,1654.5000107362866h267a5,5,0,0,1,5,5v16a5,5,0,0,1,-5,5h-267a5,5,0,0,1,-5,-5v-16a5,5,0,0,1,5,-5z" stroke-width="3"></path><g id="node_text48" fill="black"><text id="kity_text_401" text-rendering="inherit" font-size="16" dy=".8em" y="1657.1000107005239" x="1229.5000074580312">Correlation and Pattern Matching</text></g></g><g id="minder_node49"><g id="node_expander48" style="cursor: pointer;" display="none"><path id="kity_path_412" fill="white" stroke="gray" d="M1536.5000119432807,1611.5000099018216A6,6,0,1,1,1524.5000119432807,1611.5000099018216A6,6,0,1,1,1536.5000119432807,1611.5000099018216"></path><path id="kity_path_413" fill="none" stroke="gray"></path></g><path id="node_outline49" fill="none" stroke="none" d="M1541.5000121816993,1598.5000099018216h139a5,5,0,0,1,5,5v16a5,5,0,0,1,-5,5h-139a5,5,0,0,1,-5,-5v-16a5,5,0,0,1,5,-5z" stroke-width="3"></path><g id="node_text49" fill="black"><text id="kity_text_409" text-rendering="inherit" font-size="16" dy=".8em" y="1601.1000098660588" x="1546.5000121816993">corss-correlation</text></g></g><g id="minder_node50"><g id="node_expander49" style="cursor: pointer;"><path id="kity_path_420" fill="white" stroke="gray" d="M1536.5000119432807,1723.5000115707517A6,6,0,1,1,1524.5000119432807,1723.5000115707517A6,6,0,1,1,1536.5000119432807,1723.5000115707517"></path><path id="kity_path_421" fill="none" stroke="gray" d="M1526.0000119432807,1723.5000115707517L1535.0000119432807,1723.5000115707517"></path></g><path id="node_outline50" fill="none" stroke="none" d="M1541.5000121816993,1710.5000115707517h183a5,5,0,0,1,5,5v16a5,5,0,0,1,-5,5h-183a5,5,0,0,1,-5,-5v-16a5,5,0,0,1,5,-5z" stroke-width="3"></path><g id="node_text50" fill="black"><text id="kity_text_417" text-rendering="inherit" font-size="16" dy=".8em" y="1713.1000115349889" x="1546.5000121816993">normalized correlation</text></g></g><g id="minder_node51" opacity="1"><g id="node_expander50" style="cursor: pointer;" display="none"><path id="kity_path_428" fill="white" stroke="gray" d="M1769.5000154152513,1667.5000107362866A6,6,0,1,1,1757.5000154152513,1667.5000107362866A6,6,0,1,1,1769.5000154152513,1667.5000107362866"></path><path id="kity_path_429" fill="none" stroke="gray" d="M1759.0000154152513,1667.5000107362866L1768.0000154152513,1667.5000107362866"></path></g><path id="node_outline51" fill="none" stroke="none" d="M1774.5000156536698,1654.5000107362866h149a5,5,0,0,1,5,5v16a5,5,0,0,1,-5,5h-149a5,5,0,0,1,-5,-5v-16a5,5,0,0,1,5,-5z" stroke-width="3"></path><g id="node_text51" fill="black"><text id="kity_text_425" text-rendering="inherit" font-size="16" dy=".8em" y="1657.1000107005239" x="1779.5000156536698">scene illumination</text></g></g><g id="minder_node52" opacity="1"><g id="node_expander51" style="cursor: pointer;" display="none"><path id="kity_path_436" fill="white" stroke="gray" d="M1769.5000154152513,1723.5000115707517A6,6,0,1,1,1757.5000154152513,1723.5000115707517A6,6,0,1,1,1769.5000154152513,1723.5000115707517"></path><path id="kity_path_437" fill="none" stroke="gray"></path></g><path id="node_outline52" fill="none" stroke="none" d="M1774.5000156536698,1710.5000115707517h141a5,5,0,0,1,5,5v16a5,5,0,0,1,-5,5h-141a5,5,0,0,1,-5,-5v-16a5,5,0,0,1,5,-5z" stroke-width="3"></path><g id="node_text52" fill="black"><text id="kity_text_433" text-rendering="inherit" font-size="16" dy=".8em" y="1713.1000115349889" x="1779.5000156536698">camera exposure</text></g></g><g id="minder_node53" opacity="1"><g id="node_expander52" style="cursor: pointer;" display="none"><path id="kity_path_444" fill="white" stroke="gray" d="M1769.5000154152513,1779.5000124052167A6,6,0,1,1,1757.5000154152513,1779.5000124052167A6,6,0,1,1,1769.5000154152513,1779.5000124052167"></path><path id="kity_path_445" fill="none" stroke="gray"></path></g><path id="node_outline53" fill="none" stroke="none" d="M1774.5000156536698,1766.5000124052167h170a5,5,0,0,1,5,5v16a5,5,0,0,1,-5,5h-170a5,5,0,0,1,-5,-5v-16a5,5,0,0,1,5,-5z" stroke-width="3"></path><g id="node_text53" fill="black"><text id="kity_text_441" text-rendering="inherit" font-size="16" dy=".8em" y="1769.100012369454" x="1779.5000156536698">contrastof the image</text></g></g><g id="minder_node54" opacity="1"><g id="node_expander53" style="cursor: pointer;"><path id="kity_path_452" fill="white" stroke="gray" d="M543.4999971464276,871.4999988749623A6,6,0,1,1,531.4999971464276,871.4999988749623A6,6,0,1,1,543.4999971464276,871.4999988749623"></path><path id="kity_path_453" fill="none" stroke="gray" d="M532.9999971464276,871.4999988749623L541.9999971464276,871.4999988749623"></path></g><path id="node_outline54" fill="rgb(238, 243, 246)" stroke="rgb(115, 161, 191)" d="M371.4999949261546,857.4999988749623h156a3,3,0,0,1,3,3v22a3,3,0,0,1,-3,3h-156a3,3,0,0,1,-3,-3v-22a3,3,0,0,1,3,-3z" stroke-width="1"></path><g id="node_text54" fill="black"><text id="kity_text_449" text-rendering="inherit" font-size="16" dy=".8em" y="861.0999988391995" x="388.4999949261546">Implementation</text></g></g><g id="kity_g_12" display="none"><path id="kity_path_13" fill="none" stroke="rgb(66, 94, 112)" d="M655.4999991878867,851.4999988749623h132a5,5,0,0,1,5,5v30a5,5,0,0,1,-5,5h-132a5,5,0,0,1,-5,-5v-30a5,5,0,0,1,5,-5z" stroke-width="5"></path></g><g id="minder_node55"><g id="node_expander54" style="cursor: pointer;" display="none"><path id="kity_path_460" fill="white" stroke="gray" d="M340.4999941214919,759.4999972060323A6,6,0,1,1,328.4999941214919,759.4999972060323A6,6,0,1,1,340.4999941214919,759.4999972060323"></path><path id="kity_path_461" fill="none" stroke="gray"></path></g><path id="node_outline55" fill="none" stroke="none" d="M25.499989591538906,746.4999972060323h298a5,5,0,0,1,5,5v16a5,5,0,0,1,-5,5h-298a5,5,0,0,1,-5,-5v-16a5,5,0,0,1,5,-5z" stroke-width="3"></path><g id="node_text55" fill="black"><text id="kity_text_457" text-rendering="inherit" font-size="16" dy=".8em" y="749.0999971702695" x="30.499989591538906">每个像素的卷积结果要存储再不同的图中</text></g></g><g id="minder_node56"><g id="node_expander55" style="cursor: pointer;" display="none"><path id="kity_path_468" fill="white" stroke="gray" d="M340.4999941214919,815.4999980404973A6,6,0,1,1,328.4999941214919,815.4999980404973A6,6,0,1,1,340.4999941214919,815.4999980404973"></path><path id="kity_path_469" fill="none" stroke="gray"></path></g><path id="node_outline56" fill="none" stroke="none" d="M88.49999053031206,802.4999980404973h235a5,5,0,0,1,5,5v16a5,5,0,0,1,-5,5h-235a5,5,0,0,1,-5,-5v-16a5,5,0,0,1,5,-5z" stroke-width="3"></path><g id="node_text56" fill="black"><text id="kity_text_465" text-rendering="inherit" font-size="16" dy=".8em" y="805.0999980047345" x="93.49999053031206">过滤器大小偶数时，无中心像素</text></g></g><g id="minder_node57"><g id="node_expander56" style="cursor: pointer;" display="none"><path id="kity_path_476" fill="white" stroke="gray" d="M340.4999941214919,871.4999988749623A6,6,0,1,1,328.4999941214919,871.4999988749623A6,6,0,1,1,340.4999941214919,871.4999988749623"></path><path id="kity_path_477" fill="none" stroke="gray"></path></g><path id="node_outline57" fill="none" stroke="none" d="M104.49999076873064,858.4999988749623h219a5,5,0,0,1,5,5v16a5,5,0,0,1,-5,5h-219a5,5,0,0,1,-5,-5v-16a5,5,0,0,1,5,-5z" stroke-width="3"></path><g id="node_text57" fill="black"><text id="kity_text_473" text-rendering="inherit" font-size="16" dy=".8em" y="861.0999988391995" x="109.49999076873064">图片边界之外的位置值未定义</text></g></g><g id="minder_node58"><g id="node_expander57" style="cursor: pointer;" display="none"><path id="kity_path_484" fill="white" stroke="gray" d="M340.4999941214919,927.4999997094274A6,6,0,1,1,328.4999941214919,927.4999997094274A6,6,0,1,1,340.4999941214919,927.4999997094274"></path><path id="kity_path_485" fill="none" stroke="gray"></path></g><path id="node_outline58" fill="none" stroke="none" d="M73.49999030679464,914.4999997094274h250a5,5,0,0,1,5,5v16a5,5,0,0,1,-5,5h-250a5,5,0,0,1,-5,-5v-16a5,5,0,0,1,5,-5z" stroke-width="3"></path><g id="node_text58" fill="black"><text id="kity_text_481" text-rendering="inherit" font-size="16" dy=".8em" y="917.0999996736646" x="78.49999030679464">数据精度，图片通常为 8-bit 整形</text></g></g><g id="minder_node59"><g id="node_expander58" style="cursor: pointer;" display="none"><path id="kity_path_492" fill="white" stroke="gray" d="M340.4999941214919,983.5000005438924A6,6,0,1,1,328.4999941214919,983.5000005438924A6,6,0,1,1,340.4999941214919,983.5000005438924"></path><path id="kity_path_493" fill="none" stroke="gray"></path></g><path id="node_outline59" fill="none" stroke="none" d="M151.49999146908522,970.5000005438924h172a5,5,0,0,1,5,5v16a5,5,0,0,1,-5,5h-172a5,5,0,0,1,-5,-5v-16a5,5,0,0,1,5,-5z" stroke-width="3"></path><g id="node_text59" fill="black"><text id="kity_text_489" text-rendering="inherit" font-size="16" dy=".8em" y="973.1000005081296" x="156.49999146908522">取值超出图片值上下界</text></g></g></g></g></svg>