<svg id="kity_svg_6" xmlns="http://www.w3.org/2000/svg" xmlns:xlink="http://www.w3.org/1999/xlink" version="1.1" width="1216" height="381" style="background: rgb(251, 251, 251); visibility: visible;" viewBox="0 0 1216 381"><defs id="kity_defs_7"><linearGradient id="kity_linearGradient_17" x1="0" y1="0" x2="0" y2="1"><stop id="kity_stop_18" offset="0" stop-color="rgb(255, 255, 255)"></stop><stop id="kity_stop_19" offset="1" stop-color="rgb(204, 204, 204)"></stop></linearGradient><marker id="kity_marker_2" orient="auto" refX="6" refY="0" viewBox="-7 -7 14 14" markerWidth="7" markerHeight="7" markerUnits="userSpaceOnUse"><path id="kity_path_3" fill="rgb(115, 161, 191)" stroke="none" d="M6,0A6,6,0,1,1,-6,0A6,6,0,1,1,6,0"></path></marker></defs><g id="kity_g_8"><g id="minder1" text-rendering="optimize-speed"><g id="minder_connect_group1"><path id="kity_path_31" fill="none" stroke="rgb(115, 161, 191)" stroke-width="1" d="M729.0000057891011,203.5000028386712A41.5,48,0,0,1,770.5000057891011,155.5000028386712"></path><path id="kity_path_33" fill="none" stroke="rgb(115, 161, 191)" stroke-width="1" d="M729.0000057891011,203.5000028386712A41.5,48,0,0,0,770.5000057891011,251.5000028386712"></path><path id="kity_path_35" fill="none" stroke="rgb(115, 161, 191)" stroke-width="1" d="M890.5000057891011,251.5000028386712C893.5000057891011,251.5000028386712,893.5000057891011,218.5000028386712,896.5000057891011,218.5000028386712L958.5000057891011,218.5000028386712"></path><path id="kity_path_37" fill="none" stroke="rgb(115, 161, 191)" stroke-width="1" d="M958.5000057891011,218.5000028386712C961.5000057891011,218.5000028386712,961.5000057891011,205.5000028386712,964.5000057891011,205.5000028386712L1086.5000057891011,205.5000028386712"></path><path id="kity_path_39" fill="none" stroke="rgb(115, 161, 191)" stroke-width="1" d="M958.5000057891011,218.5000028386712C961.5000057891011,218.5000028386712,961.5000057891011,231.5000028386712,964.5000057891011,231.5000028386712L1102.5000057891011,231.5000028386712"></path><path id="kity_path_41" fill="none" stroke="rgb(115, 161, 191)" stroke-width="1" d="M890.5000057891011,251.5000028386712C893.5000057891011,251.5000028386712,893.5000057891011,270.5000028386712,896.5000057891011,270.5000028386712L999.5000057891011,270.5000028386712"></path><path id="kity_path_43" fill="none" stroke="rgb(115, 161, 191)" stroke-width="1" d="M999.5000057891011,270.5000028386712C1002.5000057891011,270.5000028386712,1002.5000057891011,257.5000028386712,1005.5000057891011,257.5000028386712L1195.5000057891011,257.5000028386712"></path><path id="kity_path_45" fill="none" stroke="rgb(115, 161, 191)" stroke-width="1" d="M999.5000057891011,270.5000028386712C1002.5000057891011,270.5000028386712,1002.5000057891011,283.5000028386712,1005.5000057891011,283.5000028386712L1152.5000057891011,283.5000028386712"></path><path id="kity_path_47" fill="none" stroke="rgb(115, 161, 191)" stroke-width="1" d="M890.5000057891011,251.5000028386712C893.5000057891011,251.5000028386712,893.5000057891011,309.5000028386712,896.5000057891011,309.5000028386712L990.5000057891011,309.5000028386712"></path><path id="kity_path_49" fill="none" stroke="rgb(115, 161, 191)" stroke-width="1" d="M729.0000057891011,203.5000028386712A41.5,107,0,0,0,687.5000057891011,96.50000283867121"></path><path id="kity_path_51" fill="none" stroke="rgb(115, 161, 191)" stroke-width="1" d="M558.5000057891011,96.50000283867121C555.5000057891011,96.50000283867121,555.5000057891011,53.50000283867121,552.5000057891011,53.50000283867121L448.5000057891011,53.50000283867121"></path><path id="kity_path_53" fill="none" stroke="rgb(115, 161, 191)" stroke-width="1" d="M448.5000057891011,53.50000283867121C445.5000057891011,53.50000283867121,445.5000057891011,40.50000283867121,442.5000057891011,40.50000283867121L202.50000578910112,40.50000283867121"></path><path id="kity_path_55" fill="none" stroke="rgb(115, 161, 191)" stroke-width="1" d="M448.5000057891011,53.50000283867121C445.5000057891011,53.50000283867121,445.5000057891011,66.50000283867121,442.5000057891011,66.50000283867121L230.50000578910112,66.50000283867121"></path><path id="kity_path_57" fill="none" stroke="rgb(115, 161, 191)" stroke-width="1" d="M558.5000057891011,96.50000283867121C555.5000057891011,96.50000283867121,555.5000057891011,163.5000028386712,552.5000057891011,163.5000028386712L442.5000057891011,163.5000028386712"></path><path id="kity_path_59" fill="none" stroke="rgb(115, 161, 191)" stroke-width="1" d="M442.5000057891011,163.5000028386712C439.5000057891011,163.5000028386712,439.5000057891011,118.50000283867121,436.5000057891011,118.50000283867121L257.5000057891011,118.50000283867121"></path><path id="kity_path_61" fill="none" stroke="rgb(115, 161, 191)" stroke-width="1" d="M257.5000057891011,118.50000283867121C254.50000578910112,118.50000283867121,254.50000578910112,92.50000283867121,251.50000578910112,92.50000283867121L188.50000578910112,92.50000283867121"></path><path id="kity_path_63" fill="none" stroke="rgb(115, 161, 191)" stroke-width="1" d="M257.5000057891011,118.50000283867121C254.50000578910112,118.50000283867121,254.50000578910112,118.50000283867121,251.50000578910112,118.50000283867121L127.50000578910112,118.50000283867121"></path><path id="kity_path_65" fill="none" stroke="rgb(115, 161, 191)" stroke-width="1" d="M257.5000057891011,118.50000283867121C254.50000578910112,118.50000283867121,254.50000578910112,144.5000028386712,251.50000578910112,144.5000028386712L169.50000578910112,144.5000028386712"></path><path id="kity_path_67" fill="none" stroke="rgb(115, 161, 191)" stroke-width="1" d="M442.5000057891011,163.5000028386712C439.5000057891011,163.5000028386712,439.5000057891011,209.5000028386712,436.5000057891011,209.5000028386712L241.50000578910112,209.5000028386712"></path><path id="kity_path_191" fill="none" stroke="rgb(115, 161, 191)" stroke-width="1" d="M241.50000578910112,209.5000028386712C238.50000578910112,209.5000028386712,238.50000578910112,170.5000028386712,235.50000578910112,170.5000028386712L19.500005789101124,170.5000028386712"></path><path id="kity_path_193" fill="none" stroke="rgb(115, 161, 191)" stroke-width="1" d="M241.50000578910112,209.5000028386712C238.50000578910112,209.5000028386712,238.50000578910112,196.5000028386712,235.50000578910112,196.5000028386712L88.50000578910112,196.5000028386712"></path><path id="kity_path_201" fill="none" stroke="rgb(115, 161, 191)" stroke-width="1" d="M241.50000578910112,209.5000028386712C238.50000578910112,209.5000028386712,238.50000578910112,222.5000028386712,235.50000578910112,222.5000028386712L179.50000578910112,222.5000028386712"></path><path id="kity_path_209" fill="none" stroke="rgb(115, 161, 191)" stroke-width="1" d="M241.50000578910112,209.5000028386712C238.50000578910112,209.5000028386712,238.50000578910112,248.5000028386712,235.50000578910112,248.5000028386712L156.50000578910112,248.5000028386712"></path><path id="kity_path_217" fill="none" stroke="rgb(115, 161, 191)" stroke-width="1" d="M729.0000057891011,203.5000028386712A41.5,106,0,0,1,687.5000057891011,309.5000028386712"></path><path id="kity_path_225" fill="none" stroke="rgb(115, 161, 191)" stroke-width="1" d="M606.5000057891011,309.5000028386712C603.5000057891011,309.5000028386712,603.5000057891011,282.5000028386712,600.5000057891011,282.5000028386712L500.5000057891011,282.5000028386712"></path><path id="kity_path_233" fill="none" stroke="rgb(115, 161, 191)" stroke-width="1" d="M500.5000057891011,282.5000028386712C497.5000057891011,282.5000028386712,497.5000057891011,282.5000028386712,494.5000057891011,282.5000028386712L310.5000057891011,282.5000028386712"></path><path id="kity_path_241" fill="none" stroke="rgb(115, 161, 191)" stroke-width="1" d="M606.5000057891011,309.5000028386712C603.5000057891011,309.5000028386712,603.5000057891011,321.5000028386712,600.5000057891011,321.5000028386712L537.5000057891011,321.5000028386712"></path><path id="kity_path_249" fill="none" stroke="rgb(115, 161, 191)" stroke-width="1" d="M537.5000057891011,321.5000028386712C534.5000057891011,321.5000028386712,534.5000057891011,308.5000028386712,531.5000057891011,308.5000028386712L315.5000057891011,308.5000028386712"></path><path id="kity_path_257" fill="none" stroke="rgb(115, 161, 191)" stroke-width="1" d="M537.5000057891011,321.5000028386712C534.5000057891011,321.5000028386712,534.5000057891011,334.5000028386712,531.5000057891011,334.5000028386712L183.50000578910112,334.5000028386712"></path><path id="kity_path_265" fill="none" stroke="rgb(115, 161, 191)" stroke-width="1" d="M606.5000057891011,309.5000028386712C603.5000057891011,309.5000028386712,603.5000057891011,360.5000028386712,600.5000057891011,360.5000028386712L326.5000057891011,360.5000028386712"></path><path id="kity_path_273" fill="none" stroke="rgb(115, 161, 191)" stroke-width="1" d="M326.5000057891011,360.5000028386712C323.5000057891011,360.5000028386712,323.5000057891011,360.5000028386712,320.5000057891011,360.5000028386712L172.50000578910112,360.5000028386712"></path></g><g id="minder_node1"><path id="node_outline1" fill="rgb(115, 161, 191)" stroke="rgb(115, 161, 191)" d="M708.5000057891011,191.5000028386712h41a5,5,0,0,1,5,5v14a5,5,0,0,1,-5,5h-41a5,5,0,0,1,-5,-5v-14a5,5,0,0,1,5,-5z" stroke-width="3"></path><g id="node_text1" fill="white"><text id="kity_text_22" text-rendering="inherit" font-size="12" dy=".8em" y="195.70000281184912" x="715.5000057891011">Data</text></g></g><g id="kity_g_12" display="none"><path id="kity_path_13" fill="none" stroke="none" d="M715.5000057891011,203.5000028386712h0v0h0z"></path></g><g id="kity_g_14" display="none"><path id="kity_path_15" fill="none" stroke="none" d="M715.5000057891011,203.5000028386712h0v0h0z"></path><path id="kity_path_16" fill="none" stroke="none"></path></g><g id="minder_node2"><g id="node_expander1" style="cursor: pointer;" display="none"><path id="kity_path_131" fill="white" stroke="gray" d="M771.5000065341592,155.50000212341547A6,6,0,1,1,759.5000065341592,155.50000212341547A6,6,0,1,1,771.5000065341592,155.50000212341547"></path><path id="kity_path_132" fill="none" stroke="gray"></path></g><path id="node_outline2" fill="rgb(238, 243, 246)" stroke="rgb(115, 161, 191)" d="M775.5000069364905,143.50000212341547h107a3,3,0,0,1,3,3v18a3,3,0,0,1,-3,3h-107a3,3,0,0,1,-3,-3v-18a3,3,0,0,1,3,-3z" stroke-width="1"></path><g id="node_text2" fill="black"><text id="kity_text_71" text-rendering="inherit" font-size="12" dy=".8em" y="147.70000209659338" x="792.5000069364905">Visualization</text></g></g><g id="minder_node3"><g id="node_expander9" style="cursor: pointer;"><path id="kity_path_155" fill="white" stroke="gray" d="M771.5000065341592,251.50000355392694A6,6,0,1,1,759.5000065341592,251.50000355392694A6,6,0,1,1,771.5000065341592,251.50000355392694"></path><path id="kity_path_156" fill="none" stroke="gray" d="M761.0000065341592,251.50000355392694L770.0000065341592,251.50000355392694"></path></g><path id="node_outline10" fill="rgb(238, 243, 246)" stroke="rgb(115, 161, 191)" d="M775.5000069364905,239.50000355392694h112a3,3,0,0,1,3,3v18a3,3,0,0,1,-3,3h-112a3,3,0,0,1,-3,-3v-18a3,3,0,0,1,3,-3z" stroke-width="1"></path><g id="node_text10" fill="black"><text id="kity_text_87" text-rendering="inherit" font-size="12" dy=".8em" y="243.70000352710485" x="792.5000069364905">Discretization</text></g></g><g id="minder_node4"><g id="node_expander4" style="cursor: pointer;"><path id="kity_path_140" fill="white" stroke="gray" d="M906.500008545816,206.5000028833747A6,6,0,1,1,894.500008545816,206.5000028833747A6,6,0,1,1,906.500008545816,206.5000028833747"></path><path id="kity_path_141" fill="none" stroke="gray" d="M896.000008545816,206.5000028833747L905.000008545816,206.5000028833747"></path></g><path id="node_outline5" fill="none" stroke="none" d="M911.5000087097287,197.5000028833747h42a5,5,0,0,1,5,5v8a5,5,0,0,1,-5,5h-42a5,5,0,0,1,-5,-5v-8a5,5,0,0,1,5,-5z" stroke-width="3"></path><g id="node_text5" fill="black"><text id="kity_text_77" text-rendering="inherit" font-size="12" dy=".8em" y="198.7000028565526" x="911.5000087097287">sample</text></g></g><g id="minder_node5"><g id="node_expander2" style="cursor: pointer;" display="none"><path id="kity_path_134" fill="white" stroke="gray" d="M974.5000095590949,193.5000026896596A6,6,0,1,1,962.5000095590949,193.5000026896596A6,6,0,1,1,974.5000095590949,193.5000026896596"></path><path id="kity_path_135" fill="none" stroke="gray"></path></g><path id="node_outline3" fill="none" stroke="none" d="M979.5000097230077,184.5000026896596h102a5,5,0,0,1,5,5v8a5,5,0,0,1,-5,5h-102a5,5,0,0,1,-5,-5v-8a5,5,0,0,1,5,-5z" stroke-width="3"></path><g id="node_text3" fill="black"><text id="kity_text_73" text-rendering="inherit" font-size="12" dy=".8em" y="185.7000026628375" x="979.5000097230077">uniform sampling</text></g></g><g id="minder_node6"><g id="node_expander3" style="cursor: pointer;" display="none"><path id="kity_path_137" fill="white" stroke="gray" d="M974.5000095590949,219.5000030770898A6,6,0,1,1,962.5000095590949,219.5000030770898A6,6,0,1,1,974.5000095590949,219.5000030770898"></path><path id="kity_path_138" fill="none" stroke="gray"></path></g><path id="node_outline4" fill="none" stroke="none" d="M979.5000097230077,210.5000030770898h118a5,5,0,0,1,5,5v8a5,5,0,0,1,-5,5h-118a5,5,0,0,1,-5,-5v-8a5,5,0,0,1,5,-5z" stroke-width="3"></path><g id="node_text4" fill="black"><text id="kity_text_75" text-rendering="inherit" font-size="12" dy=".8em" y="211.7000030502677" x="979.5000097230077">non-uniform smaple</text></g></g><g id="minder_node7"><g id="node_expander7" style="cursor: pointer;"><path id="kity_path_149" fill="white" stroke="gray" d="M906.500008545816,258.5000036582351A6,6,0,1,1,894.500008545816,258.5000036582351A6,6,0,1,1,906.500008545816,258.5000036582351"></path><path id="kity_path_150" fill="none" stroke="gray" d="M896.000008545816,258.5000036582351L905.000008545816,258.5000036582351"></path></g><path id="node_outline8" fill="none" stroke="none" d="M911.5000087097287,249.50000365823507h83a5,5,0,0,1,5,5v8a5,5,0,0,1,-5,5h-83a5,5,0,0,1,-5,-5v-8a5,5,0,0,1,5,-5z" stroke-width="3"></path><g id="node_text8" fill="black"><text id="kity_text_83" text-rendering="inherit" font-size="12" dy=".8em" y="250.70000363141298" x="911.5000087097287">reconstruction</text></g></g><g id="minder_node8"><g id="node_expander5" style="cursor: pointer;" display="none"><path id="kity_path_143" fill="white" stroke="gray" d="M1015.5000101700425,245.50000346451998A6,6,0,1,1,1003.5000101700425,245.50000346451998A6,6,0,1,1,1015.5000101700425,245.50000346451998"></path><path id="kity_path_144" fill="none" stroke="gray"></path></g><path id="node_outline6" fill="none" stroke="none" d="M1020.5000103339553,236.50000346451998h170a5,5,0,0,1,5,5v8a5,5,0,0,1,-5,5h-170a5,5,0,0,1,-5,-5v-8a5,5,0,0,1,5,-5z" stroke-width="3"></path><g id="node_text6" fill="black"><text id="kity_text_79" text-rendering="inherit" font-size="12" dy=".8em" y="237.7000034376979" x="1020.5000103339553">aliase (for imposters), aliasing</text></g></g><g id="minder_node9"><g id="node_expander6" style="cursor: pointer;" display="none"><path id="kity_path_146" fill="white" stroke="gray" d="M1015.5000101700425,271.50000385195017A6,6,0,1,1,1003.5000101700425,271.50000385195017A6,6,0,1,1,1015.5000101700425,271.50000385195017"></path><path id="kity_path_147" fill="none" stroke="gray"></path></g><path id="node_outline7" fill="none" stroke="none" d="M1020.5000103339553,262.50000385195017h127a5,5,0,0,1,5,5v8a5,5,0,0,1,-5,5h-127a5,5,0,0,1,-5,-5v-8a5,5,0,0,1,5,-5z" stroke-width="3"></path><g id="node_text7" fill="black"><text id="kity_text_81" text-rendering="inherit" font-size="12" dy=".8em" y="263.7000038251281" x="1020.5000103339553">Nyquist sampling rate</text></g></g><g id="minder_node10"><g id="node_expander8" style="cursor: pointer;" display="none"><path id="kity_path_152" fill="white" stroke="gray" d="M906.500008545816,297.50000423938036A6,6,0,1,1,894.500008545816,297.50000423938036A6,6,0,1,1,906.500008545816,297.50000423938036"></path><path id="kity_path_153" fill="none" stroke="gray"></path></g><path id="node_outline9" fill="none" stroke="none" d="M911.5000087097287,288.50000423938036h74a5,5,0,0,1,5,5v8a5,5,0,0,1,-5,5h-74a5,5,0,0,1,-5,-5v-8a5,5,0,0,1,5,-5z" stroke-width="3"></path><g id="node_text9" fill="black"><text id="kity_text_85" text-rendering="inherit" font-size="12" dy=".8em" y="289.70000421255827" x="911.5000087097287">Quantization</text></g></g><g id="minder_node11"><g id="node_expander20" style="cursor: pointer;"><path id="kity_path_188" fill="white" stroke="gray" d="M698.5000054463744,96.50000124424696A6,6,0,1,1,686.5000054463744,96.50000124424696A6,6,0,1,1,698.5000054463744,96.50000124424696"></path><path id="kity_path_189" fill="none" stroke="gray" d="M688.0000054463744,96.50000124424696L697.0000054463744,96.50000124424696"></path></g><path id="node_outline21" fill="rgb(238, 243, 246)" stroke="rgb(115, 161, 191)" d="M561.500003747642,84.50000124424696h121a3,3,0,0,1,3,3v18a3,3,0,0,1,-3,3h-121a3,3,0,0,1,-3,-3v-18a3,3,0,0,1,3,-3z" stroke-width="1"></path><g id="node_text21" fill="black"><text id="kity_text_109" text-rendering="inherit" font-size="12" dy=".8em" y="88.70000121742487" x="578.500003747642">Representation</text></g></g><g id="minder_node12"><g id="node_expander12" style="cursor: pointer;"><path id="kity_path_164" fill="white" stroke="gray" d="M554.5000033006072,41.500000424683094A6,6,0,1,1,542.5000033006072,41.500000424683094A6,6,0,1,1,554.5000033006072,41.500000424683094"></path><path id="kity_path_165" fill="none" stroke="gray" d="M544.0000033006072,41.500000424683094L553.0000033006072,41.500000424683094"></path></g><path id="node_outline13" fill="none" stroke="none" d="M453.5000018849969,32.500000424683094h84a5,5,0,0,1,5,5v8a5,5,0,0,1,-5,5h-84a5,5,0,0,1,-5,-5v-8a5,5,0,0,1,5,-5z" stroke-width="3"></path><g id="node_text13" fill="black"><text id="kity_text_93" text-rendering="inherit" font-size="12" dy=".8em" y="33.700000397861004" x="453.5000018849969">representation</text></g></g><g id="minder_node13"><g id="node_expander10" style="cursor: pointer;" display="none"><path id="kity_path_158" fill="white" stroke="gray" d="M444.5000016614795,28.500000230968A6,6,0,1,1,432.5000016614795,28.500000230968A6,6,0,1,1,444.5000016614795,28.500000230968"></path><path id="kity_path_159" fill="none" stroke="gray"></path></g><path id="node_outline11" fill="none" stroke="none" d="M207.49999821931124,19.500000230968h220a5,5,0,0,1,5,5v8a5,5,0,0,1,-5,5h-220a5,5,0,0,1,-5,-5v-8a5,5,0,0,1,5,-5z" stroke-width="3"></path><g id="node_text11" fill="black"><text id="kity_text_89" text-rendering="inherit" font-size="12" dy=".8em" y="20.70000020414591" x="207.49999821931124">Time or spatial domain representation</text></g></g><g id="minder_node14"><g id="node_expander11" style="cursor: pointer;" display="none"><path id="kity_path_161" fill="white" stroke="gray" d="M444.5000016614795,54.50000061839819A6,6,0,1,1,432.5000016614795,54.50000061839819A6,6,0,1,1,444.5000016614795,54.50000061839819"></path><path id="kity_path_162" fill="none" stroke="gray"></path></g><path id="node_outline12" fill="none" stroke="none" d="M235.49999863654375,45.50000061839819h192a5,5,0,0,1,5,5v8a5,5,0,0,1,-5,5h-192a5,5,0,0,1,-5,-5v-8a5,5,0,0,1,5,-5z" stroke-width="3"></path><g id="node_text12" fill="black"><text id="kity_text_91" text-rendering="inherit" font-size="12" dy=".8em" y="46.7000005915761" x="235.49999863654375">frequency domain representation</text></g></g><g id="minder_node15"><g id="node_expander19" style="cursor: pointer;"><path id="kity_path_185" fill="white" stroke="gray" d="M554.5000033006072,151.50000206381083A6,6,0,1,1,542.5000033006072,151.50000206381083A6,6,0,1,1,554.5000033006072,151.50000206381083"></path><path id="kity_path_186" fill="none" stroke="gray" d="M544.0000033006072,151.50000206381083L553.0000033006072,151.50000206381083"></path></g><path id="node_outline20" fill="none" stroke="none" d="M447.5000017955899,142.50000206381083h90a5,5,0,0,1,5,5v8a5,5,0,0,1,-5,5h-90a5,5,0,0,1,-5,-5v-8a5,5,0,0,1,5,-5z" stroke-width="3"></path><g id="node_text20" fill="black"><text id="kity_text_107" text-rendering="inherit" font-size="12" dy=".8em" y="143.70000203698874" x="447.5000017955899">Geometric Data</text></g></g><g id="minder_node16"><g id="node_expander16" style="cursor: pointer;"><path id="kity_path_176" fill="white" stroke="gray" d="M438.5000015720725,106.50000139325857A6,6,0,1,1,426.5000015720725,106.50000139325857A6,6,0,1,1,438.5000015720725,106.50000139325857"></path><path id="kity_path_177" fill="none" stroke="gray" d="M428.0000015720725,106.50000139325857L437.0000015720725,106.50000139325857"></path></g><path id="node_outline17" fill="none" stroke="none" d="M262.4999990388751,97.50000139325857h159a5,5,0,0,1,5,5v8a5,5,0,0,1,-5,5h-159a5,5,0,0,1,-5,-5v-8a5,5,0,0,1,5,-5z" stroke-width="3"></path><g id="node_text17" fill="black"><text id="kity_text_101" text-rendering="inherit" font-size="12" dy=".8em" y="98.70000136643648" x="262.4999990388751">Continuous representations</text></g></g><g id="minder_node17"><g id="node_expander13" style="cursor: pointer;" display="none"><path id="kity_path_167" fill="white" stroke="gray" d="M253.49999881535769,80.50000100582838A6,6,0,1,1,241.49999881535769,80.50000100582838A6,6,0,1,1,253.49999881535769,80.50000100582838"></path><path id="kity_path_168" fill="none" stroke="gray"></path></g><path id="node_outline14" fill="none" stroke="none" d="M193.49999801069498,71.50000100582838h43a5,5,0,0,1,5,5v8a5,5,0,0,1,-5,5h-43a5,5,0,0,1,-5,-5v-8a5,5,0,0,1,5,-5z" stroke-width="3"></path><g id="node_text14" fill="black"><text id="kity_text_95" text-rendering="inherit" font-size="12" dy=".8em" y="72.70000097900629" x="193.49999801069498">implicit</text></g></g><g id="minder_node18"><g id="node_expander14" style="cursor: pointer;" display="none"><path id="kity_path_170" fill="white" stroke="gray" d="M253.49999881535769,106.50000139325857A6,6,0,1,1,241.49999881535769,106.50000139325857A6,6,0,1,1,253.49999881535769,106.50000139325857"></path><path id="kity_path_171" fill="none" stroke="gray"></path></g><path id="node_outline15" fill="none" stroke="none" d="M132.49999710172415,97.50000139325857h104a5,5,0,0,1,5,5v8a5,5,0,0,1,-5,5h-104a5,5,0,0,1,-5,-5v-8a5,5,0,0,1,5,-5z" stroke-width="3"></path><g id="node_text15" fill="black"><text id="kity_text_97" text-rendering="inherit" font-size="12" dy=".8em" y="98.70000136643648" x="132.49999710172415">explicit 有特殊情况</text></g></g><g id="minder_node19"><g id="node_expander15" style="cursor: pointer;" display="none"><path id="kity_path_173" fill="white" stroke="gray" d="M253.49999881535769,132.50000178068876A6,6,0,1,1,241.49999881535769,132.50000178068876A6,6,0,1,1,253.49999881535769,132.50000178068876"></path><path id="kity_path_174" fill="none" stroke="gray"></path></g><path id="node_outline16" fill="none" stroke="none" d="M174.49999772757292,123.50000178068876h62a5,5,0,0,1,5,5v8a5,5,0,0,1,-5,5h-62a5,5,0,0,1,-5,-5v-8a5,5,0,0,1,5,-5z" stroke-width="3"></path><g id="node_text16" fill="black"><text id="kity_text_99" text-rendering="inherit" font-size="12" dy=".8em" y="124.70000175386667" x="174.49999772757292">parametric</text></g></g><g id="minder_node20" opacity="1"><g id="node_expander18" style="cursor: pointer;"><path id="kity_path_182" fill="white" stroke="gray" d="M438.5000015720725,197.50000274926424A6,6,0,1,1,426.5000015720725,197.50000274926424A6,6,0,1,1,438.5000015720725,197.50000274926424"></path><path id="kity_path_183" fill="none" stroke="gray" d="M428.0000015720725,197.50000274926424L437.0000015720725,197.50000274926424"></path></g><path id="node_outline19" fill="none" stroke="none" d="M246.49999880045652,188.50000274926424h175a5,5,0,0,1,5,5v8a5,5,0,0,1,-5,5h-175a5,5,0,0,1,-5,-5v-8a5,5,0,0,1,5,-5z" stroke-width="3"></path><g id="node_text19" fill="black"><text id="kity_text_105" text-rendering="inherit" font-size="12" dy=".8em" y="189.70000272244215" x="246.49999880045652">Discrete representation : mesh</text></g></g><g id="minder_node21" opacity="1"><g id="node_expander17" style="cursor: pointer;" display="none"><path id="kity_path_179" fill="white" stroke="gray" d="M237.4999985769391,158.50000216811895A6,6,0,1,1,225.4999985769391,158.50000216811895A6,6,0,1,1,237.4999985769391,158.50000216811895"></path><path id="kity_path_180" fill="none" stroke="gray"></path></g><path id="node_outline18" fill="none" stroke="none" d="M24.49999549239874,149.50000216811895h196a5,5,0,0,1,5,5v8a5,5,0,0,1,-5,5h-196a5,5,0,0,1,-5,-5v-8a5,5,0,0,1,5,-5z" stroke-width="3"></path><g id="node_text18" fill="black"><text id="kity_text_103" text-rendering="inherit" font-size="12" dy=".8em" y="150.70000214129686" x="24.49999549239874">geometric properties or attributes</text></g></g><g id="minder_node22" opacity="1"><g id="node_expander21" style="cursor: pointer;" display="none"><path id="kity_path_198" fill="white" stroke="gray" d="M237.4999985769391,184.50000255554914A6,6,0,1,1,225.4999985769391,184.50000255554914A6,6,0,1,1,237.4999985769391,184.50000255554914"></path><path id="kity_path_199" fill="none" stroke="gray"></path></g><path id="node_outline22" fill="none" stroke="none" d="M93.49999652057886,175.50000255554914h127a5,5,0,0,1,5,5v8a5,5,0,0,1,-5,5h-127a5,5,0,0,1,-5,-5v-8a5,5,0,0,1,5,-5z" stroke-width="3"></path><g id="node_text22" fill="black"><text id="kity_text_195" text-rendering="inherit" font-size="12" dy=".8em" y="176.70000252872705" x="93.49999652057886">topological properties</text></g></g><g id="minder_node23" opacity="1"><g id="node_expander22" style="cursor: pointer;" display="none"><path id="kity_path_206" fill="white" stroke="gray" d="M237.4999985769391,210.50000294297934A6,6,0,1,1,225.4999985769391,210.50000294297934A6,6,0,1,1,237.4999985769391,210.50000294297934"></path><path id="kity_path_207" fill="none" stroke="gray"></path></g><path id="node_outline23" fill="none" stroke="none" d="M184.49999787658453,201.50000294297934h36a5,5,0,0,1,5,5v8a5,5,0,0,1,-5,5h-36a5,5,0,0,1,-5,-5v-8a5,5,0,0,1,5,-5z" stroke-width="3"></path><g id="node_text23" fill="black"><text id="kity_text_203" text-rendering="inherit" font-size="12" dy=".8em" y="202.70000291615725" x="184.49999787658453">Genus</text></g></g><g id="minder_node24" opacity="1"><g id="node_expander23" style="cursor: pointer;" display="none"><path id="kity_path_214" fill="white" stroke="gray" d="M237.4999985769391,236.50000333040953A6,6,0,1,1,225.4999985769391,236.50000333040953A6,6,0,1,1,237.4999985769391,236.50000333040953"></path><path id="kity_path_215" fill="none" stroke="gray"></path></g><path id="node_outline24" fill="none" stroke="none" d="M161.49999753385782,227.50000333040953h59a5,5,0,0,1,5,5v8a5,5,0,0,1,-5,5h-59a5,5,0,0,1,-5,-5v-8a5,5,0,0,1,5,-5z" stroke-width="3"></path><g id="node_text24" fill="black"><text id="kity_text_211" text-rendering="inherit" font-size="12" dy=".8em" y="228.70000330358744" x="161.49999753385782">orientable</text></g></g><g id="minder_node25" opacity="1"><g id="node_expander24" style="cursor: pointer;"><path id="kity_path_222" fill="white" stroke="gray" d="M698.5000054463744,309.5000044181943A6,6,0,1,1,686.5000054463744,309.5000044181943A6,6,0,1,1,698.5000054463744,309.5000044181943"></path><path id="kity_path_223" fill="none" stroke="gray" d="M688.0000054463744,309.5000044181943L697.0000054463744,309.5000044181943"></path></g><path id="node_outline25" fill="rgb(238, 243, 246)" stroke="rgb(115, 161, 191)" d="M609.5000044628978,296.5000044181943h73a3,3,0,0,1,3,3v20a3,3,0,0,1,-3,3h-73a3,3,0,0,1,-3,-3v-20a3,3,0,0,1,3,-3z" stroke-width="1"></path><g id="node_text25" fill="black"><text id="kity_text_219" text-rendering="inherit" font-size="14" dy=".8em" y="300.40000438690186" x="626.5000044628978">Noise</text></g></g><g id="minder_node26" opacity="1"><g id="node_expander25" style="cursor: pointer;"><path id="kity_path_230" fill="white" stroke="gray" d="M602.5000040158629,270.500003837049A6,6,0,1,1,590.5000040158629,270.500003837049A6,6,0,1,1,602.5000040158629,270.500003837049"></path><path id="kity_path_231" fill="none" stroke="gray" d="M592.0000040158629,270.500003837049L601.0000040158629,270.500003837049"></path></g><path id="node_outline26" fill="none" stroke="none" d="M505.5000026598573,261.500003837049h80a5,5,0,0,1,5,5v8a5,5,0,0,1,-5,5h-80a5,5,0,0,1,-5,-5v-8a5,5,0,0,1,5,-5z" stroke-width="3"></path><g id="node_text26" fill="black"><text id="kity_text_227" text-rendering="inherit" font-size="12" dy=".8em" y="262.7000038102269" x="505.5000026598573">random noise</text></g></g><g id="minder_node27"><g id="node_expander26" style="cursor: pointer;" display="none"><path id="kity_path_238" fill="white" stroke="gray" d="M496.50000243633986,270.500003837049A6,6,0,1,1,484.50000243633986,270.500003837049A6,6,0,1,1,496.50000243633986,270.500003837049"></path><path id="kity_path_239" fill="none" stroke="gray"></path></g><path id="node_outline27" fill="none" stroke="none" d="M315.49999982863665,261.500003837049h164a5,5,0,0,1,5,5v8a5,5,0,0,1,-5,5h-164a5,5,0,0,1,-5,-5v-8a5,5,0,0,1,5,-5z" stroke-width="3"></path><g id="node_text27" fill="black"><text id="kity_text_235" text-rendering="inherit" font-size="12" dy=".8em" y="262.7000038102269" font-weight="bold" x="315.49999982863665">solution : low pass filtering</text></g></g><g id="minder_node28" opacity="1"><g id="node_expander27" style="cursor: pointer;"><path id="kity_path_246" fill="white" stroke="gray" d="M602.5000040158629,309.5000044181943A6,6,0,1,1,590.5000040158629,309.5000044181943A6,6,0,1,1,602.5000040158629,309.5000044181943"></path><path id="kity_path_247" fill="none" stroke="gray" d="M592.0000040158629,309.5000044181943L601.0000040158629,309.5000044181943"></path></g><path id="node_outline28" fill="none" stroke="none" d="M542.5000032112002,300.5000044181943h43a5,5,0,0,1,5,5v8a5,5,0,0,1,-5,5h-43a5,5,0,0,1,-5,-5v-8a5,5,0,0,1,5,-5z" stroke-width="3"></path><g id="node_text28" fill="black"><text id="kity_text_243" text-rendering="inherit" font-size="12" dy=".8em" y="301.7000043913722" x="542.5000032112002">outliers</text></g></g><g id="minder_node29"><g id="node_expander28" style="cursor: pointer;" display="none"><path id="kity_path_254" fill="white" stroke="gray" d="M533.5000029876828,296.5000042244792A6,6,0,1,1,521.5000029876828,296.5000042244792A6,6,0,1,1,533.5000029876828,296.5000042244792"></path><path id="kity_path_255" fill="none" stroke="gray"></path></g><path id="node_outline29" fill="none" stroke="none" d="M320.49999990314245,287.5000042244792h196a5,5,0,0,1,5,5v8a5,5,0,0,1,-5,5h-196a5,5,0,0,1,-5,-5v-8a5,5,0,0,1,5,-5z" stroke-width="3"></path><g id="node_text29" fill="black"><text id="kity_text_251" text-rendering="inherit" font-size="12" dy=".8em" y="288.7000041976571" x="320.49999990314245">2D 图像中叫 salt and pepper noise</text></g></g><g id="minder_node30"><g id="node_expander29" style="cursor: pointer;" display="none"><path id="kity_path_262" fill="white" stroke="gray" d="M533.5000029876828,322.5000046119094A6,6,0,1,1,521.5000029876828,322.5000046119094A6,6,0,1,1,533.5000029876828,322.5000046119094"></path><path id="kity_path_263" fill="none" stroke="gray"></path></g><path id="node_outline30" fill="none" stroke="none" d="M188.49999793618917,313.5000046119094h328a5,5,0,0,1,5,5v8a5,5,0,0,1,-5,5h-328a5,5,0,0,1,-5,-5v-8a5,5,0,0,1,5,-5z" stroke-width="3"></path><g id="node_text30" fill="black"><text id="kity_text_259" text-rendering="inherit" font-size="12" dy=".8em" y="314.7000045850873" font-weight="bold" x="188.49999793618917">solution : median filters or other order statistics filters</text></g></g><g id="minder_node31" opacity="1"><g id="node_expander30" style="cursor: pointer;"><path id="kity_path_270" fill="white" stroke="gray" d="M602.5000040158629,348.5000049993396A6,6,0,1,1,590.5000040158629,348.5000049993396A6,6,0,1,1,602.5000040158629,348.5000049993396"></path><path id="kity_path_271" fill="none" stroke="gray" d="M592.0000040158629,348.5000049993396L601.0000040158629,348.5000049993396"></path></g><path id="node_outline31" fill="none" stroke="none" d="M331.5000000670552,339.5000049993396h254a5,5,0,0,1,5,5v8a5,5,0,0,1,-5,5h-254a5,5,0,0,1,-5,-5v-8a5,5,0,0,1,5,-5z" stroke-width="3"></path><g id="node_text31" fill="black"><text id="kity_text_267" text-rendering="inherit" font-size="12" dy=".8em" y="340.7000049725175" x="331.5000000670552">空间上似乎随机实际可分布在频谱域的几个频段</text></g></g><g id="minder_node32"><g id="node_expander31" style="cursor: pointer;" display="none"><path id="kity_path_278" fill="white" stroke="gray" d="M322.4999998435378,348.5000049993396A6,6,0,1,1,310.4999998435378,348.5000049993396A6,6,0,1,1,322.4999998435378,348.5000049993396"></path><path id="kity_path_279" fill="none" stroke="gray"></path></g><path id="node_outline32" fill="none" stroke="none" d="M177.4999977722764,339.5000049993396h128a5,5,0,0,1,5,5v8a5,5,0,0,1,-5,5h-128a5,5,0,0,1,-5,-5v-8a5,5,0,0,1,5,-5z" stroke-width="3"></path><g id="node_text32" fill="black"><text id="kity_text_275" text-rendering="inherit" font-size="12" dy=".8em" y="340.7000049725175" font-weight="bold" x="177.4999977722764">solution : notch filter</text></g></g></g></g></svg>