<svg id="kity_svg_6" xmlns="http://www.w3.org/2000/svg" xmlns:xlink="http://www.w3.org/1999/xlink" version="1.1" width="2108" height="1478" style="background: rgb(251, 251, 251); visibility: visible;" viewBox="0 0 2108 1478"><defs id="kity_defs_7"><linearGradient id="kity_linearGradient_17" x1="0" y1="0" x2="0" y2="1"><stop id="kity_stop_18" offset="0" stop-color="rgb(255, 255, 255)"></stop><stop id="kity_stop_19" offset="1" stop-color="rgb(204, 204, 204)"></stop></linearGradient><marker id="kity_marker_2" orient="auto" refX="6" refY="0" viewBox="-7 -7 14 14" markerWidth="7" markerHeight="7" markerUnits="userSpaceOnUse"><path id="kity_path_3" fill="rgb(115, 161, 191)" stroke="none" d="M6,0A6,6,0,1,1,-6,0A6,6,0,1,1,6,0"></path></marker></defs><g id="kity_g_8"><g id="minder1" text-rendering="geometricPrecision"><g id="minder_connect_group1"><path id="kity_path_31" fill="none" stroke="rgb(115, 161, 191)" stroke-width="1" d="M578.0000005438924,1071.500004850328A210.5,333,0,0,1,788.5000005438924,738.500004850328"></path><path id="kity_path_33" fill="none" stroke="rgb(115, 161, 191)" stroke-width="1" d="M933.5000005438924,738.500004850328C948.5000005438924,738.500004850328,948.5000005438924,752.500004850328,963.5000005438924,752.500004850328L1084.5000005438924,752.500004850328"></path><path id="kity_path_35" fill="none" stroke="rgb(115, 161, 191)" stroke-width="1" d="M1084.5000005438924,752.500004850328C1099.5000005438924,752.500004850328,1099.5000005438924,239.50000485032797,1114.5000005438924,239.50000485032797L1291.5000005438924,239.50000485032797"></path><path id="kity_path_37" fill="none" stroke="rgb(115, 161, 191)" stroke-width="1" d="M1291.5000005438924,239.50000485032797C1306.5000005438924,239.50000485032797,1306.5000005438924,44.50000485032797,1321.5000005438924,44.50000485032797L1571.5000005438924,44.50000485032797"></path><path id="kity_path_39" fill="none" stroke="rgb(115, 161, 191)" stroke-width="1" d="M1291.5000005438924,239.50000485032797C1306.5000005438924,239.50000485032797,1306.5000005438924,96.50000485032797,1321.5000005438924,96.50000485032797L1704.5000005438924,96.50000485032797"></path><path id="kity_path_41" fill="none" stroke="rgb(115, 161, 191)" stroke-width="1" d="M1291.5000005438924,239.50000485032797C1306.5000005438924,239.50000485032797,1306.5000005438924,148.50000485032797,1321.5000005438924,148.50000485032797L1686.5000005438924,148.50000485032797"></path><path id="kity_path_43" fill="none" stroke="rgb(115, 161, 191)" stroke-width="1" d="M1291.5000005438924,239.50000485032797C1306.5000005438924,239.50000485032797,1306.5000005438924,200.50000485032797,1321.5000005438924,200.50000485032797L1680.5000005438924,200.50000485032797"></path><path id="kity_path_45" fill="none" stroke="rgb(115, 161, 191)" stroke-width="1" d="M1291.5000005438924,239.50000485032797C1306.5000005438924,239.50000485032797,1306.5000005438924,252.50000485032797,1321.5000005438924,252.50000485032797L1557.5000005438924,252.50000485032797"></path><path id="kity_path_47" fill="none" stroke="rgb(115, 161, 191)" stroke-width="1" d="M1557.5000005438924,252.50000485032797C1572.5000005438924,252.50000485032797,1572.5000005438924,252.50000485032797,1587.5000005438924,252.50000485032797L1703.5000005438924,252.50000485032797"></path><path id="kity_path_49" fill="none" stroke="rgb(115, 161, 191)" stroke-width="1" d="M1291.5000005438924,239.50000485032797C1306.5000005438924,239.50000485032797,1306.5000005438924,330.50000485032797,1321.5000005438924,330.50000485032797L1400.5000005438924,330.50000485032797"></path><path id="kity_path_51" fill="none" stroke="rgb(115, 161, 191)" stroke-width="1" d="M1400.5000005438924,330.50000485032797C1415.5000005438924,330.50000485032797,1415.5000005438924,330.50000485032797,1430.5000005438924,330.50000485032797L1630.5000005438924,330.50000485032797"></path><path id="kity_path_53" fill="none" stroke="rgb(115, 161, 191)" stroke-width="1" d="M1630.5000005438924,330.50000485032797C1645.5000005438924,330.50000485032797,1645.5000005438924,304.50000485032797,1660.5000005438924,304.50000485032797L1751.5000005438924,304.50000485032797"></path><path id="kity_path_55" fill="none" stroke="rgb(115, 161, 191)" stroke-width="1" d="M1630.5000005438924,330.50000485032797C1645.5000005438924,330.50000485032797,1645.5000005438924,356.50000485032797,1660.5000005438924,356.50000485032797L1872.5000005438924,356.50000485032797"></path><path id="kity_path_57" fill="none" stroke="rgb(115, 161, 191)" stroke-width="1" d="M1291.5000005438924,239.50000485032797C1306.5000005438924,239.50000485032797,1306.5000005438924,434.50000485032797,1321.5000005438924,434.50000485032797L1376.5000005438924,434.50000485032797"></path><path id="kity_path_59" fill="none" stroke="rgb(115, 161, 191)" stroke-width="1" d="M1376.5000005438924,434.50000485032797C1391.5000005438924,434.50000485032797,1391.5000005438924,408.50000485032797,1406.5000005438924,408.50000485032797L1691.5000005438924,408.50000485032797"></path><path id="kity_path_61" fill="none" stroke="rgb(115, 161, 191)" stroke-width="1" d="M1376.5000005438924,434.50000485032797C1391.5000005438924,434.50000485032797,1391.5000005438924,460.50000485032797,1406.5000005438924,460.50000485032797L1581.5000005438924,460.50000485032797"></path><path id="kity_path_63" fill="none" stroke="rgb(115, 161, 191)" stroke-width="1" d="M1084.5000005438924,752.500004850328C1099.5000005438924,752.500004850328,1099.5000005438924,655.500004850328,1114.5000005438924,655.500004850328L1504.5000005438924,655.500004850328"></path><path id="kity_path_65" fill="none" stroke="rgb(115, 161, 191)" stroke-width="1" d="M1504.5000005438924,655.500004850328C1519.5000005438924,655.500004850328,1519.5000005438924,512.500004850328,1534.5000005438924,512.500004850328L1770.5000005438924,512.500004850328"></path><path id="kity_path_67" fill="none" stroke="rgb(115, 161, 191)" stroke-width="1" d="M1504.5000005438924,655.500004850328C1519.5000005438924,655.500004850328,1519.5000005438924,590.500004850328,1534.5000005438924,590.500004850328L1589.5000005438924,590.500004850328"></path><path id="kity_path_69" fill="none" stroke="rgb(115, 161, 191)" stroke-width="1" d="M1589.5000005438924,590.500004850328C1604.5000005438924,590.500004850328,1604.5000005438924,564.500004850328,1619.5000005438924,564.500004850328L1818.5000005438924,564.500004850328"></path><path id="kity_path_71" fill="none" stroke="rgb(115, 161, 191)" stroke-width="1" d="M1589.5000005438924,590.500004850328C1604.5000005438924,590.500004850328,1604.5000005438924,616.500004850328,1619.5000005438924,616.500004850328L1874.5000005438924,616.500004850328"></path><path id="kity_path_73" fill="none" stroke="rgb(115, 161, 191)" stroke-width="1" d="M1504.5000005438924,655.500004850328C1519.5000005438924,655.500004850328,1519.5000005438924,668.500004850328,1534.5000005438924,668.500004850328L1794.5000005438924,668.500004850328"></path><path id="kity_path_75" fill="none" stroke="rgb(115, 161, 191)" stroke-width="1" d="M1794.5000005438924,668.500004850328C1809.5000005438924,668.500004850328,1809.5000005438924,668.500004850328,1824.5000005438924,668.500004850328L1967.5000005438924,668.500004850328"></path><path id="kity_path_77" fill="none" stroke="rgb(115, 161, 191)" stroke-width="1" d="M1504.5000005438924,655.500004850328C1519.5000005438924,655.500004850328,1519.5000005438924,720.500004850328,1534.5000005438924,720.500004850328L1614.5000005438924,720.500004850328"></path><path id="kity_path_79" fill="none" stroke="rgb(115, 161, 191)" stroke-width="1" d="M1614.5000005438924,720.500004850328C1629.5000005438924,720.500004850328,1629.5000005438924,720.500004850328,1644.5000005438924,720.500004850328L1840.5000005438924,720.500004850328"></path><path id="kity_path_81" fill="none" stroke="rgb(115, 161, 191)" stroke-width="1" d="M1504.5000005438924,655.500004850328C1519.5000005438924,655.500004850328,1519.5000005438924,798.500004850328,1534.5000005438924,798.500004850328L1589.5000005438924,798.500004850328"></path><path id="kity_path_83" fill="none" stroke="rgb(115, 161, 191)" stroke-width="1" d="M1589.5000005438924,798.500004850328C1604.5000005438924,798.500004850328,1604.5000005438924,772.500004850328,1619.5000005438924,772.500004850328L1736.5000005438924,772.500004850328"></path><path id="kity_path_85" fill="none" stroke="rgb(115, 161, 191)" stroke-width="1" d="M1589.5000005438924,798.500004850328C1604.5000005438924,798.500004850328,1604.5000005438924,824.500004850328,1619.5000005438924,824.500004850328L1727.5000005438924,824.500004850328"></path><path id="kity_path_87" fill="none" stroke="rgb(115, 161, 191)" stroke-width="1" d="M1084.5000005438924,752.500004850328C1099.5000005438924,752.500004850328,1099.5000005438924,1019.500004850328,1114.5000005438924,1019.500004850328L1266.5000005438924,1019.500004850328"></path><path id="kity_path_89" fill="none" stroke="rgb(115, 161, 191)" stroke-width="1" d="M1266.5000005438924,1019.500004850328C1281.5000005438924,1019.500004850328,1281.5000005438924,928.500004850328,1296.5000005438924,928.500004850328L1497.5000005438924,928.500004850328"></path><path id="kity_path_91" fill="none" stroke="rgb(115, 161, 191)" stroke-width="1" d="M1497.5000005438924,928.500004850328C1512.5000005438924,928.500004850328,1512.5000005438924,876.500004850328,1527.5000005438924,876.500004850328L1646.5000005438924,876.500004850328"></path><path id="kity_path_93" fill="none" stroke="rgb(115, 161, 191)" stroke-width="1" d="M1646.5000005438924,876.500004850328C1661.5000005438924,876.500004850328,1661.5000005438924,876.500004850328,1676.5000005438924,876.500004850328L2013.5000005438924,876.500004850328"></path><path id="kity_path_95" fill="none" stroke="rgb(115, 161, 191)" stroke-width="1" d="M1497.5000005438924,928.500004850328C1512.5000005438924,928.500004850328,1512.5000005438924,928.500004850328,1527.5000005438924,928.500004850328L1639.5000005438924,928.500004850328"></path><path id="kity_path_97" fill="none" stroke="rgb(115, 161, 191)" stroke-width="1" d="M1639.5000005438924,928.500004850328C1654.5000005438924,928.500004850328,1654.5000005438924,928.500004850328,1669.5000005438924,928.500004850328L1928.5000005438924,928.500004850328"></path><path id="kity_path_99" fill="none" stroke="rgb(115, 161, 191)" stroke-width="1" d="M1497.5000005438924,928.500004850328C1512.5000005438924,928.500004850328,1512.5000005438924,980.500004850328,1527.5000005438924,980.500004850328L1659.5000005438924,980.500004850328"></path><path id="kity_path_101" fill="none" stroke="rgb(115, 161, 191)" stroke-width="1" d="M1659.5000005438924,980.500004850328C1674.5000005438924,980.500004850328,1674.5000005438924,980.500004850328,1689.5000005438924,980.500004850328L2087.5000005438924,980.500004850328"></path><path id="kity_path_103" fill="none" stroke="rgb(115, 161, 191)" stroke-width="1" d="M1266.5000005438924,1019.500004850328C1281.5000005438924,1019.500004850328,1281.5000005438924,1110.500004850328,1296.5000005438924,1110.500004850328L1383.5000005438924,1110.500004850328"></path><path id="kity_path_105" fill="none" stroke="rgb(115, 161, 191)" stroke-width="1" d="M1383.5000005438924,1110.500004850328C1398.5000005438924,1110.500004850328,1398.5000005438924,1032.500004850328,1413.5000005438924,1032.500004850328L1679.5000005438924,1032.500004850328"></path><path id="kity_path_107" fill="none" stroke="rgb(115, 161, 191)" stroke-width="1" d="M1383.5000005438924,1110.500004850328C1398.5000005438924,1110.500004850328,1398.5000005438924,1084.500004850328,1413.5000005438924,1084.500004850328L1752.5000005438924,1084.500004850328"></path><path id="kity_path_109" fill="none" stroke="rgb(115, 161, 191)" stroke-width="1" d="M1383.5000005438924,1110.500004850328C1398.5000005438924,1110.500004850328,1398.5000005438924,1136.500004850328,1413.5000005438924,1136.500004850328L1834.5000005438924,1136.500004850328"></path><path id="kity_path_111" fill="none" stroke="rgb(115, 161, 191)" stroke-width="1" d="M1383.5000005438924,1110.500004850328C1398.5000005438924,1110.500004850328,1398.5000005438924,1188.500004850328,1413.5000005438924,1188.500004850328L1778.5000005438924,1188.500004850328"></path><path id="kity_path_113" fill="none" stroke="rgb(115, 161, 191)" stroke-width="1" d="M1084.5000005438924,752.500004850328C1099.5000005438924,752.500004850328,1099.5000005438924,1266.500004850328,1114.5000005438924,1266.500004850328L1258.5000005438924,1266.500004850328"></path><path id="kity_path_367" fill="none" stroke="rgb(115, 161, 191)" stroke-width="1" d="M1258.5000005438924,1266.500004850328C1273.5000005438924,1266.500004850328,1273.5000005438924,1240.500004850328,1288.5000005438924,1240.500004850328L1520.5000005438924,1240.500004850328"></path><path id="kity_path_375" fill="none" stroke="rgb(115, 161, 191)" stroke-width="1" d="M1258.5000005438924,1266.500004850328C1273.5000005438924,1266.500004850328,1273.5000005438924,1292.500004850328,1288.5000005438924,1292.500004850328L1558.5000005438924,1292.500004850328"></path><path id="kity_path_383" fill="none" stroke="rgb(115, 161, 191)" stroke-width="1" d="M1558.5000005438924,1292.500004850328C1573.5000005438924,1292.500004850328,1573.5000005438924,1292.500004850328,1588.5000005438924,1292.500004850328L1712.5000005438924,1292.500004850328"></path><path id="kity_path_391" fill="none" stroke="rgb(115, 161, 191)" stroke-width="1" d="M578.0000005438924,1071.500004850328A210.5,333,0,0,0,788.5000005438924,1404.500004850328"></path><path id="kity_path_439" fill="none" stroke="rgb(115, 161, 191)" stroke-width="1" d="M578.0000005438924,1071.500004850328A210.5,0,0,0,1,367.5000005438924,1071.500004850328"></path><path id="kity_path_475" fill="none" stroke="rgb(115, 161, 191)" stroke-width="1" d="M1114.5000005438924,1379.500004850328C1129.5000005438924,1379.500004850328,1129.5000005438924,1353.500004850328,1144.5000005438924,1353.500004850328L1251.5000005438924,1353.500004850328"></path><path id="kity_path_476" fill="none" stroke="rgb(115, 161, 191)" stroke-width="1" d="M1114.5000005438924,1379.500004850328C1129.5000005438924,1379.500004850328,1129.5000005438924,1405.500004850328,1144.5000005438924,1405.500004850328L1378.5000005438924,1405.500004850328"></path><path id="kity_path_477" fill="none" stroke="rgb(115, 161, 191)" stroke-width="1" d="M950.5000005438924,1404.500004850328C965.5000005438924,1404.500004850328,965.5000005438924,1379.500004850328,980.5000005438924,1379.500004850328L1114.5000005438924,1379.500004850328"></path><path id="kity_path_478" fill="none" stroke="rgb(115, 161, 191)" stroke-width="1" d="M1265.5000005438924,1457.500004850328C1280.5000005438924,1457.500004850328,1280.5000005438924,1457.500004850328,1295.5000005438924,1457.500004850328L1506.5000005438924,1457.500004850328"></path><path id="kity_path_479" fill="none" stroke="rgb(115, 161, 191)" stroke-width="1" d="M950.5000005438924,1404.500004850328C965.5000005438924,1404.500004850328,965.5000005438924,1457.500004850328,980.5000005438924,1457.500004850328L1265.5000005438924,1457.500004850328"></path><path id="kity_path_480" fill="none" stroke="rgb(115, 161, 191)" stroke-width="1" d="M163.50000054389238,1071.500004850328C148.50000054389238,1071.500004850328,148.50000054389238,1033.500004850328,133.50000054389238,1033.500004850328L30.500000543892384,1033.500004850328"></path><path id="kity_path_481" fill="none" stroke="rgb(115, 161, 191)" stroke-width="1" d="M163.50000054389238,1071.500004850328C148.50000054389238,1071.500004850328,148.50000054389238,1085.500004850328,133.50000054389238,1085.500004850328L21.500000543892384,1085.500004850328"></path><path id="kity_path_482" fill="none" stroke="rgb(115, 161, 191)" stroke-width="1" d="M163.50000054389238,1071.500004850328C148.50000054389238,1071.500004850328,148.50000054389238,1137.500004850328,133.50000054389238,1137.500004850328L19.500000543892384,1137.500004850328"></path></g><g id="minder_node1"><path id="node_outline1" fill="rgb(115, 161, 191)" stroke="rgb(115, 161, 191)" d="M490.5000005438924,1051.500004850328h175a5,5,0,0,1,5,5v30a5,5,0,0,1,-5,5h-175a5,5,0,0,1,-5,-5v-30a5,5,0,0,1,5,-5z" stroke-width="3"></path><g id="node_text1" fill="white"><text id="kity_text_22" text-rendering="inherit" font-size="16" dy=".8em" y="1061.1000048145652" x="509.5000005438924">Feature Detection</text></g></g><g id="kity_g_14" display="none"><path id="kity_path_15" fill="none" stroke="none" d="M509.5000005438924,1071.500004850328h0v0h0z"></path><path id="kity_path_16" fill="none" stroke="none"></path></g><g id="minder_node2"><g id="node_expander42" style="cursor: pointer;"><path id="kity_path_364" fill="white" stroke="gray" d="M789.5000046268106,738.4999998882413A6,6,0,1,1,777.5000046268106,738.4999998882413A6,6,0,1,1,789.5000046268106,738.4999998882413"></path><path id="kity_path_365" fill="none" stroke="gray" d="M779.0000046268106,738.4999998882413L788.0000046268106,738.4999998882413"></path></g><path id="node_outline43" fill="rgb(238, 243, 246)" stroke="rgb(115, 161, 191)" d="M793.5000050291419,725.4999998882413h137a3,3,0,0,1,3,3v20a3,3,0,0,1,-3,3h-137a3,3,0,0,1,-3,-3v-20a3,3,0,0,1,3,-3z" stroke-width="1"></path><g id="node_text43" fill="black"><text id="kity_text_197" text-rendering="inherit" font-size="14" dy=".8em" y="729.3999998569489" x="810.5000050291419">Edge Detection</text></g></g><g id="minder_node3"><g id="node_expander41" style="cursor: pointer;"><path id="kity_path_361" fill="white" stroke="gray" d="M973.5000073686242,738.4999998882413A6,6,0,1,1,961.5000073686242,738.4999998882413A6,6,0,1,1,973.5000073686242,738.4999998882413"></path><path id="kity_path_362" fill="none" stroke="gray" d="M963.0000073686242,738.4999998882413L972.0000073686242,738.4999998882413"></path></g><path id="node_outline42" fill="none" stroke="none" d="M978.5000076070428,727.4999998882413h101a5,5,0,0,1,5,5v12a5,5,0,0,1,-5,5h-101a5,5,0,0,1,-5,-5v-12a5,5,0,0,1,5,-5z" stroke-width="3"></path><g id="node_text42" fill="black"><text id="kity_text_195" text-rendering="inherit" font-size="12" dy=".8em" y="730.6999998614192" x="983.5000076070428">Edgel Detectors</text></g></g><g id="minder_node4"><g id="node_expander14" style="cursor: pointer;"><path id="kity_path_280" fill="white" stroke="gray" d="M1124.5000096186996,225.4999922439456A6,6,0,1,1,1112.5000096186996,225.4999922439456A6,6,0,1,1,1124.5000096186996,225.4999922439456"></path><path id="kity_path_281" fill="none" stroke="gray" d="M1114.0000096186996,225.4999922439456L1123.0000096186996,225.4999922439456"></path></g><path id="node_outline15" fill="none" stroke="none" d="M1129.5000098571181,214.4999922439456h157a5,5,0,0,1,5,5v12a5,5,0,0,1,-5,5h-157a5,5,0,0,1,-5,-5v-12a5,5,0,0,1,5,-5z" stroke-width="3"></path><g id="node_text15" fill="black"><text id="kity_text_141" text-rendering="inherit" font-size="12" dy=".8em" y="217.6999922171235" x="1134.5000098571181">Gradient Based Detectors</text></g></g><g id="minder_node5"><g id="node_expander1" style="cursor: pointer;" display="none"><path id="kity_path_241" fill="white" stroke="gray" d="M1331.50001270324,30.499989338219166A6,6,0,1,1,1319.50001270324,30.499989338219166A6,6,0,1,1,1331.50001270324,30.499989338219166"></path><path id="kity_path_242" fill="none" stroke="gray"></path></g><path id="node_outline2" fill="none" stroke="none" d="M1336.5000129416585,19.499989338219166h230a5,5,0,0,1,5,5v12a5,5,0,0,1,-5,5h-230a5,5,0,0,1,-5,-5v-12a5,5,0,0,1,5,-5z" stroke-width="3"></path><g id="node_text2" fill="black"><text id="kity_text_115" text-rendering="inherit" font-size="12" dy=".8em" y="22.699989311397076" x="1341.5000129416585">sharp change in value causes an edgel</text></g></g><g id="minder_node6"><g id="node_expander2" style="cursor: pointer;" display="none"><path id="kity_path_244" fill="white" stroke="gray" d="M1331.50001270324,82.49999011307955A6,6,0,1,1,1319.50001270324,82.49999011307955A6,6,0,1,1,1331.50001270324,82.49999011307955"></path><path id="kity_path_245" fill="none" stroke="gray"></path></g><path id="node_outline3" fill="none" stroke="none" d="M1336.5000129416585,71.49999011307955h363a5,5,0,0,1,5,5v12a5,5,0,0,1,-5,5h-363a5,5,0,0,1,-5,-5v-12a5,5,0,0,1,5,-5z" stroke-width="3"></path><g id="node_text3" fill="black"><text id="kity_text_117" text-rendering="inherit" font-size="12" dy=".8em" y="74.69999008625746" x="1341.5000129416585">使用x,y方向的一阶导数表示梯度，再用该导数计算梯度方向及大小</text></g></g><g id="minder_node7"><g id="node_expander3" style="cursor: pointer;" display="none"><path id="kity_path_247" fill="white" stroke="gray" d="M1331.50001270324,134.49999088793993A6,6,0,1,1,1319.50001270324,134.49999088793993A6,6,0,1,1,1331.50001270324,134.49999088793993"></path><path id="kity_path_248" fill="none" stroke="gray"></path></g><path id="node_outline4" fill="none" stroke="none" d="M1336.5000129416585,123.49999088793993h345a5,5,0,0,1,5,5v12a5,5,0,0,1,-5,5h-345a5,5,0,0,1,-5,-5v-12a5,5,0,0,1,5,-5z" stroke-width="3"></path><g id="node_text4" fill="black"><text id="kity_text_119" text-rendering="inherit" font-size="12" dy=".8em" font-weight="bold" y="126.69999086111784" x="1341.5000129416585">使用 finite differences 计算“一阶导数”,即相邻pixel值的差</text></g></g><g id="minder_node8"><g id="node_expander4" style="cursor: pointer;" display="none"><path id="kity_path_250" fill="white" stroke="gray" d="M1331.50001270324,186.4999916628003A6,6,0,1,1,1319.50001270324,186.4999916628003A6,6,0,1,1,1331.50001270324,186.4999916628003"></path><path id="kity_path_251" fill="none" stroke="gray"></path></g><path id="node_outline5" fill="none" stroke="none" d="M1336.5000129416585,175.4999916628003h339a5,5,0,0,1,5,5v12a5,5,0,0,1,-5,5h-339a5,5,0,0,1,-5,-5v-12a5,5,0,0,1,5,-5z" stroke-width="3"></path><g id="node_text5" fill="black"><text id="kity_text_121" text-rendering="inherit" font-size="12" dy=".8em" y="178.69999163597822" x="1341.5000129416585">选择一个阈值判断是否是边缘，选择阈值过程为 thresholding</text></g></g><g id="minder_node9"><g id="node_expander6" style="cursor: pointer;"><path id="kity_path_256" fill="white" stroke="gray" d="M1331.50001270324,238.4999924376607A6,6,0,1,1,1319.50001270324,238.4999924376607A6,6,0,1,1,1331.50001270324,238.4999924376607"></path><path id="kity_path_257" fill="none" stroke="gray" d="M1321.00001270324,238.4999924376607L1330.00001270324,238.4999924376607"></path></g><path id="node_outline7" fill="none" stroke="none" d="M1336.5000129416585,227.4999924376607h216a5,5,0,0,1,5,5v12a5,5,0,0,1,-5,5h-216a5,5,0,0,1,-5,-5v-12a5,5,0,0,1,5,-5z" stroke-width="3"></path><g id="node_text7" fill="black"><text id="kity_text_125" text-rendering="inherit" font-size="12" dy=".8em" y="230.6999924108386" x="1341.5000129416585">不考虑噪声，通过考虑更多的近邻解决</text></g></g><g id="minder_node10"><g id="node_expander5" style="cursor: pointer;" display="none"><path id="kity_path_253" fill="white" stroke="gray" d="M1597.5000166669488,238.4999924376607A6,6,0,1,1,1585.5000166669488,238.4999924376607A6,6,0,1,1,1597.5000166669488,238.4999924376607"></path><path id="kity_path_254" fill="none" stroke="gray"></path></g><path id="node_outline6" fill="none" stroke="none" d="M1602.5000169053674,227.4999924376607h96a5,5,0,0,1,5,5v12a5,5,0,0,1,-5,5h-96a5,5,0,0,1,-5,-5v-12a5,5,0,0,1,5,-5z" stroke-width="3"></path><g id="node_text6" fill="black"><text id="kity_text_123" text-rendering="inherit" font-size="12" dy=".8em" y="230.6999924108386" x="1607.5000169053674">Sobel operator</text></g></g><g id="minder_node11"><g id="node_expander10" style="cursor: pointer;"><path id="kity_path_268" fill="white" stroke="gray" d="M1331.50001270324,316.49999359995127A6,6,0,1,1,1319.50001270324,316.49999359995127A6,6,0,1,1,1331.50001270324,316.49999359995127"></path><path id="kity_path_269" fill="none" stroke="gray" d="M1321.00001270324,316.49999359995127L1330.00001270324,316.49999359995127"></path></g><path id="node_outline11" fill="none" stroke="none" d="M1336.5000129416585,305.49999359995127h59a5,5,0,0,1,5,5v12a5,5,0,0,1,-5,5h-59a5,5,0,0,1,-5,-5v-12a5,5,0,0,1,5,-5z" stroke-width="3"></path><g id="node_text11" fill="black"><text id="kity_text_133" text-rendering="inherit" font-size="12" dy=".8em" y="308.6999935731292" x="1341.5000129416585">应对噪音</text></g></g><g id="minder_node12"><g id="node_expander9" style="cursor: pointer;"><path id="kity_path_265" fill="white" stroke="gray" d="M1440.5000143274665,316.49999359995127A6,6,0,1,1,1428.5000143274665,316.49999359995127A6,6,0,1,1,1440.5000143274665,316.49999359995127"></path><path id="kity_path_266" fill="none" stroke="gray" d="M1430.0000143274665,316.49999359995127L1439.0000143274665,316.49999359995127"></path></g><path id="node_outline10" fill="none" stroke="none" d="M1445.500014565885,305.49999359995127h180a5,5,0,0,1,5,5v12a5,5,0,0,1,-5,5h-180a5,5,0,0,1,-5,-5v-12a5,5,0,0,1,5,-5z" stroke-width="3"></path><g id="node_text10" fill="black"><text id="kity_text_131" text-rendering="inherit" font-size="12" dy=".8em" y="308.6999935731292" x="1450.500014565885">先用低通滤波器对初始图片卷积</text></g></g><g id="minder_node13"><g id="node_expander7" style="cursor: pointer;" display="none"><path id="kity_path_259" fill="white" stroke="gray" d="M1670.5000177547336,290.4999932125211A6,6,0,1,1,1658.5000177547336,290.4999932125211A6,6,0,1,1,1670.5000177547336,290.4999932125211"></path><path id="kity_path_260" fill="none" stroke="gray"></path></g><path id="node_outline8" fill="none" stroke="none" d="M1675.5000179931521,279.4999932125211h71a5,5,0,0,1,5,5v12a5,5,0,0,1,-5,5h-71a5,5,0,0,1,-5,-5v-12a5,5,0,0,1,5,-5z" stroke-width="3"></path><g id="node_text8" fill="black"><text id="kity_text_127" text-rendering="inherit" font-size="12" dy=".8em" y="282.699993185699" x="1680.5000179931521">高斯滤波器</text></g></g><g id="minder_node14"><g id="node_expander8" style="cursor: pointer;" display="none"><path id="kity_path_262" fill="white" stroke="gray" d="M1670.5000177547336,342.49999398738146A6,6,0,1,1,1658.5000177547336,342.49999398738146A6,6,0,1,1,1670.5000177547336,342.49999398738146"></path><path id="kity_path_263" fill="none" stroke="gray"></path></g><path id="node_outline9" fill="none" stroke="none" d="M1675.5000179931521,331.49999398738146h192a5,5,0,0,1,5,5v12a5,5,0,0,1,-5,5h-192a5,5,0,0,1,-5,-5v-12a5,5,0,0,1,5,-5z" stroke-width="3"></path><g id="node_text9" fill="black"><text id="kity_text_129" text-rendering="inherit" font-size="12" dy=".8em" y="334.69999396055937" x="1680.5000179931521">滤波器与低通结合成一个新滤波器</text></g></g><g id="minder_node15"><g id="node_expander13" style="cursor: pointer;"><path id="kity_path_277" fill="white" stroke="gray" d="M1331.50001270324,420.49999514967203A6,6,0,1,1,1319.50001270324,420.49999514967203A6,6,0,1,1,1331.50001270324,420.49999514967203"></path><path id="kity_path_278" fill="none" stroke="gray" d="M1321.00001270324,420.49999514967203L1330.00001270324,420.49999514967203"></path></g><path id="node_outline14" fill="none" stroke="none" d="M1336.5000129416585,409.49999514967203h35a5,5,0,0,1,5,5v12a5,5,0,0,1,-5,5h-35a5,5,0,0,1,-5,-5v-12a5,5,0,0,1,5,-5z" stroke-width="3"></path><g id="node_text14" fill="black"><text id="kity_text_139" text-rendering="inherit" font-size="12" dy=".8em" y="412.69999512284994" x="1341.5000129416585">缺点</text></g></g><g id="minder_node16"><g id="node_expander11" style="cursor: pointer;" display="none"><path id="kity_path_271" fill="white" stroke="gray" d="M1416.5000139698386,394.49999476224184A6,6,0,1,1,1404.5000139698386,394.49999476224184A6,6,0,1,1,1416.5000139698386,394.49999476224184"></path><path id="kity_path_272" fill="none" stroke="gray"></path></g><path id="node_outline12" fill="none" stroke="none" d="M1421.5000142082572,383.49999476224184h265a5,5,0,0,1,5,5v12a5,5,0,0,1,-5,5h-265a5,5,0,0,1,-5,-5v-12a5,5,0,0,1,5,-5z" stroke-width="3"></path><g id="node_text12" fill="black"><text id="kity_text_135" text-rendering="inherit" font-size="12" dy=".8em" y="386.69999473541975" x="1426.5000142082572">step 或 ramp edge 会导致相邻像素被判为边缘</text></g></g><g id="minder_node17"><g id="node_expander12" style="cursor: pointer;" display="none"><path id="kity_path_274" fill="white" stroke="gray" d="M1416.5000139698386,446.4999955371022A6,6,0,1,1,1404.5000139698386,446.4999955371022A6,6,0,1,1,1416.5000139698386,446.4999955371022"></path><path id="kity_path_275" fill="none" stroke="gray"></path></g><path id="node_outline13" fill="none" stroke="none" d="M1421.5000142082572,435.4999955371022h155a5,5,0,0,1,5,5v12a5,5,0,0,1,-5,5h-155a5,5,0,0,1,-5,-5v-12a5,5,0,0,1,5,-5z" stroke-width="3"></path><g id="node_text13" fill="black"><text id="kity_text_137" text-rendering="inherit" font-size="12" dy=".8em" y="438.69999551028013" x="1426.5000142082572">可能会偏向某些方向的边缘</text></g></g><g id="minder_node18"><g id="node_expander26" style="cursor: pointer;"><path id="kity_path_316" fill="white" stroke="gray" d="M1124.5000096186996,641.4999984428287A6,6,0,1,1,1112.5000096186996,641.4999984428287A6,6,0,1,1,1124.5000096186996,641.4999984428287"></path><path id="kity_path_317" fill="none" stroke="gray" d="M1114.0000096186996,641.4999984428287L1123.0000096186996,641.4999984428287"></path></g><path id="node_outline27" fill="none" stroke="none" d="M1129.5000098571181,630.4999984428287h370a5,5,0,0,1,5,5v12a5,5,0,0,1,-5,5h-370a5,5,0,0,1,-5,-5v-12a5,5,0,0,1,5,-5z" stroke-width="3"></path><g id="node_text27" fill="black"><text id="kity_text_165" text-rendering="inherit" font-size="12" dy=".8em" y="633.6999984160066" x="1134.5000098571181">Curvature based edge detectors (Marr-Hildreth edge detector)</text></g></g><g id="minder_node19"><g id="node_expander15" style="cursor: pointer;" display="none"><path id="kity_path_283" fill="white" stroke="gray" d="M1544.5000158771873,498.4999963119626A6,6,0,1,1,1532.5000158771873,498.4999963119626A6,6,0,1,1,1544.5000158771873,498.4999963119626"></path><path id="kity_path_284" fill="none" stroke="gray"></path></g><path id="node_outline16" fill="none" stroke="none" d="M1549.5000161156058,487.4999963119626h216a5,5,0,0,1,5,5v12a5,5,0,0,1,-5,5h-216a5,5,0,0,1,-5,-5v-12a5,5,0,0,1,5,-5z" stroke-width="3"></path><g id="node_text16" fill="black"><text id="kity_text_143" text-rendering="inherit" font-size="12" dy=".8em" y="490.6999962851405" x="1554.5000161156058">边缘存在于一阶导数极大值或极小值处</text></g></g><g id="minder_node20"><g id="node_expander18" style="cursor: pointer;"><path id="kity_path_292" fill="white" stroke="gray" d="M1544.5000158771873,576.4999974742532A6,6,0,1,1,1532.5000158771873,576.4999974742532A6,6,0,1,1,1544.5000158771873,576.4999974742532"></path><path id="kity_path_293" fill="none" stroke="gray" d="M1534.0000158771873,576.4999974742532L1543.0000158771873,576.4999974742532"></path></g><path id="node_outline19" fill="none" stroke="none" d="M1549.5000161156058,565.4999974742532h35a5,5,0,0,1,5,5v12a5,5,0,0,1,-5,5h-35a5,5,0,0,1,-5,-5v-12a5,5,0,0,1,5,-5z" stroke-width="3"></path><g id="node_text19" fill="black"><text id="kity_text_149" text-rendering="inherit" font-size="12" dy=".8em" y="568.6999974474311" x="1554.5000161156058">优点</text></g></g><g id="minder_node21"><g id="node_expander16" style="cursor: pointer;" display="none"><path id="kity_path_286" fill="white" stroke="gray" d="M1629.500017143786,550.499997086823A6,6,0,1,1,1617.500017143786,550.499997086823A6,6,0,1,1,1629.500017143786,550.499997086823"></path><path id="kity_path_287" fill="none" stroke="gray"></path></g><path id="node_outline17" fill="none" stroke="none" d="M1634.5000173822045,539.499997086823h179a5,5,0,0,1,5,5v12a5,5,0,0,1,-5,5h-179a5,5,0,0,1,-5,-5v-12a5,5,0,0,1,5,-5z" stroke-width="3"></path><g id="node_text17" fill="black"><text id="kity_text_145" text-rendering="inherit" font-size="12" dy=".8em" y="542.6999970600009" x="1639.5000173822045">对所有方向 responds similarly</text></g></g><g id="minder_node22"><g id="node_expander17" style="cursor: pointer;" display="none"><path id="kity_path_289" fill="white" stroke="gray" d="M1629.500017143786,602.4999978616834A6,6,0,1,1,1617.500017143786,602.4999978616834A6,6,0,1,1,1629.500017143786,602.4999978616834"></path><path id="kity_path_290" fill="none" stroke="gray"></path></g><path id="node_outline18" fill="none" stroke="none" d="M1634.5000173822045,591.4999978616834h235a5,5,0,0,1,5,5v12a5,5,0,0,1,-5,5h-235a5,5,0,0,1,-5,-5v-12a5,5,0,0,1,5,-5z" stroke-width="3"></path><g id="node_text18" fill="black"><text id="kity_text_147" text-rendering="inherit" font-size="12" dy=".8em" y="594.6999978348613" x="1639.5000173822045">finds the correct positions of the edges</text></g></g><g id="minder_node23"><g id="node_expander20" style="cursor: pointer;"><path id="kity_path_298" fill="white" stroke="gray" d="M1544.5000158771873,654.4999986365438A6,6,0,1,1,1532.5000158771873,654.4999986365438A6,6,0,1,1,1544.5000158771873,654.4999986365438"></path><path id="kity_path_299" fill="none" stroke="gray" d="M1534.0000158771873,654.4999986365438L1543.0000158771873,654.4999986365438"></path></g><path id="node_outline21" fill="none" stroke="none" d="M1549.5000161156058,643.4999986365438h240a5,5,0,0,1,5,5v12a5,5,0,0,1,-5,5h-240a5,5,0,0,1,-5,-5v-12a5,5,0,0,1,5,-5z" stroke-width="3"></path><g id="node_text21" fill="black"><text id="kity_text_153" text-rendering="inherit" font-size="12" dy=".8em" font-weight="bold" y="646.6999986097217" x="1554.5000161156058">使用 finite differences 计算“二阶导数”</text></g></g><g id="minder_node24"><g id="node_expander19" style="cursor: pointer;" display="none"><path id="kity_path_295" fill="white" stroke="gray" d="M1834.500020198524,654.4999986365438A6,6,0,1,1,1822.500020198524,654.4999986365438A6,6,0,1,1,1834.500020198524,654.4999986365438"></path><path id="kity_path_296" fill="none" stroke="gray"></path></g><path id="node_outline20" fill="none" stroke="none" d="M1839.5000204369426,643.4999986365438h123a5,5,0,0,1,5,5v12a5,5,0,0,1,-5,5h-123a5,5,0,0,1,-5,-5v-12a5,5,0,0,1,5,-5z" stroke-width="3"></path><g id="node_text20" fill="black"><text id="kity_text_151" text-rendering="inherit" font-size="12" dy=".8em" font-weight="bold" y="646.6999986097217" x="1844.5000204369426">Laplacian operator</text></g></g><g id="minder_node25"><g id="node_expander22" style="cursor: pointer;"><path id="kity_path_304" fill="white" stroke="gray" d="M1544.5000158771873,706.4999994114041A6,6,0,1,1,1532.5000158771873,706.4999994114041A6,6,0,1,1,1544.5000158771873,706.4999994114041"></path><path id="kity_path_305" fill="none" stroke="gray" d="M1534.0000158771873,706.4999994114041L1543.0000158771873,706.4999994114041"></path></g><path id="node_outline23" fill="none" stroke="none" d="M1549.5000161156058,695.4999994114041h60a5,5,0,0,1,5,5v12a5,5,0,0,1,-5,5h-60a5,5,0,0,1,-5,-5v-12a5,5,0,0,1,5,-5z" stroke-width="3"></path><g id="node_text23" fill="black"><text id="kity_text_157" text-rendering="inherit" font-size="12" dy=".8em" y="698.699999384582" x="1554.5000161156058">处理噪声</text></g></g><g id="minder_node26"><g id="node_expander21" style="cursor: pointer;" display="none"><path id="kity_path_301" fill="white" stroke="gray" d="M1654.500017516315,706.4999994114041A6,6,0,1,1,1642.500017516315,706.4999994114041A6,6,0,1,1,1654.500017516315,706.4999994114041"></path><path id="kity_path_302" fill="none" stroke="gray"></path></g><path id="node_outline22" fill="none" stroke="none" d="M1659.5000177547336,695.4999994114041h176a5,5,0,0,1,5,5v12a5,5,0,0,1,-5,5h-176a5,5,0,0,1,-5,-5v-12a5,5,0,0,1,5,-5z" stroke-width="3"></path><g id="node_text22" fill="black"><text id="kity_text_155" text-rendering="inherit" font-size="12" dy=".8em" y="698.699999384582" x="1664.5000177547336">Laplacian of Gaussian or LoG</text></g></g><g id="minder_node27"><g id="node_expander25" style="cursor: pointer;"><path id="kity_path_313" fill="white" stroke="gray" d="M1544.5000158771873,784.5000005736947A6,6,0,1,1,1532.5000158771873,784.5000005736947A6,6,0,1,1,1544.5000158771873,784.5000005736947"></path><path id="kity_path_314" fill="none" stroke="gray" d="M1534.0000158771873,784.5000005736947L1543.0000158771873,784.5000005736947"></path></g><path id="node_outline26" fill="none" stroke="none" d="M1549.5000161156058,773.5000005736947h35a5,5,0,0,1,5,5v12a5,5,0,0,1,-5,5h-35a5,5,0,0,1,-5,-5v-12a5,5,0,0,1,5,-5z" stroke-width="3"></path><g id="node_text26" fill="black"><text id="kity_text_163" text-rendering="inherit" font-size="12" dy=".8em" y="776.7000005468726" x="1554.5000161156058">缺点</text></g></g><g id="minder_node28"><g id="node_expander23" style="cursor: pointer;" display="none"><path id="kity_path_307" fill="white" stroke="gray" d="M1629.500017143786,758.5000001862645A6,6,0,1,1,1617.500017143786,758.5000001862645A6,6,0,1,1,1629.500017143786,758.5000001862645"></path><path id="kity_path_308" fill="none" stroke="gray"></path></g><path id="node_outline24" fill="none" stroke="none" d="M1634.5000173822045,747.5000001862645h97a5,5,0,0,1,5,5v12a5,5,0,0,1,-5,5h-97a5,5,0,0,1,-5,-5v-12a5,5,0,0,1,5,-5z" stroke-width="3"></path><g id="node_text24" fill="black"><text id="kity_text_159" text-rendering="inherit" font-size="12" dy=".8em" y="750.7000001594424" x="1639.5000173822045">spurious edges</text></g></g><g id="minder_node29"><g id="node_expander24" style="cursor: pointer;" display="none"><path id="kity_path_310" fill="white" stroke="gray" d="M1629.500017143786,810.5000009611249A6,6,0,1,1,1617.500017143786,810.5000009611249A6,6,0,1,1,1629.500017143786,810.5000009611249"></path><path id="kity_path_311" fill="none" stroke="gray"></path></g><path id="node_outline25" fill="none" stroke="none" d="M1634.5000173822045,799.5000009611249h88a5,5,0,0,1,5,5v12a5,5,0,0,1,-5,5h-88a5,5,0,0,1,-5,-5v-12a5,5,0,0,1,5,-5z" stroke-width="3"></path><g id="node_text25" fill="black"><text id="kity_text_161" text-rendering="inherit" font-size="12" dy=".8em" y="802.7000009343028" x="1639.5000173822045">missed edges</text></g></g><g id="minder_node30"><g id="node_expander39" style="cursor: pointer;"><path id="kity_path_355" fill="white" stroke="gray" d="M1124.5000096186996,1005.5000038668513A6,6,0,1,1,1112.5000096186996,1005.5000038668513A6,6,0,1,1,1124.5000096186996,1005.5000038668513"></path><path id="kity_path_356" fill="none" stroke="gray" d="M1114.0000096186996,1005.5000038668513L1123.0000096186996,1005.5000038668513"></path></g><path id="node_outline40" fill="none" stroke="none" d="M1129.5000098571181,994.5000038668513h132a5,5,0,0,1,5,5v12a5,5,0,0,1,-5,5h-132a5,5,0,0,1,-5,-5v-12a5,5,0,0,1,5,-5z" stroke-width="3"></path><g id="node_text40" fill="black"><text id="kity_text_191" text-rendering="inherit" font-size="12" dy=".8em" y="997.7000038400292" x="1134.5000098571181">Canny Edge Detector</text></g></g><g id="minder_node31"><g id="node_expander33" style="cursor: pointer;"><path id="kity_path_337" fill="white" stroke="gray" d="M1306.500012330711,914.5000025108457A6,6,0,1,1,1294.500012330711,914.5000025108457A6,6,0,1,1,1306.500012330711,914.5000025108457"></path><path id="kity_path_338" fill="none" stroke="gray" d="M1296.000012330711,914.5000025108457L1305.000012330711,914.5000025108457"></path></g><path id="node_outline34" fill="none" stroke="none" d="M1311.5000125691295,903.5000025108457h181a5,5,0,0,1,5,5v12a5,5,0,0,1,-5,5h-181a5,5,0,0,1,-5,-5v-12a5,5,0,0,1,5,-5z" stroke-width="3"></path><g id="node_text34" fill="black"><text id="kity_text_179" text-rendering="inherit" font-size="12" dy=".8em" y="906.7000024840236" x="1316.5000125691295">optimal edge detector should</text></g></g><g id="minder_node32"><g id="node_expander28" style="cursor: pointer;"><path id="kity_path_322" fill="white" stroke="gray" d="M1537.5000157728791,862.5000017359853A6,6,0,1,1,1525.5000157728791,862.5000017359853A6,6,0,1,1,1537.5000157728791,862.5000017359853"></path><path id="kity_path_323" fill="none" stroke="gray" d="M1527.0000157728791,862.5000017359853L1536.0000157728791,862.5000017359853"></path></g><path id="node_outline29" fill="none" stroke="none" d="M1542.5000160112977,851.5000017359853h99a5,5,0,0,1,5,5v12a5,5,0,0,1,-5,5h-99a5,5,0,0,1,-5,-5v-12a5,5,0,0,1,5,-5z" stroke-width="3"></path><g id="node_text29" fill="black"><text id="kity_text_169" text-rendering="inherit" font-size="12" dy=".8em" y="854.7000017091632" x="1547.5000160112977">good detection</text></g></g><g id="minder_node33"><g id="node_expander27" style="cursor: pointer;" display="none"><path id="kity_path_319" fill="white" stroke="gray" d="M1686.5000179931521,862.5000017359853A6,6,0,1,1,1674.5000179931521,862.5000017359853A6,6,0,1,1,1686.5000179931521,862.5000017359853"></path><path id="kity_path_320" fill="none" stroke="gray"></path></g><path id="node_outline28" fill="none" stroke="none" d="M1691.5000182315707,851.5000017359853h317a5,5,0,0,1,5,5v12a5,5,0,0,1,-5,5h-317a5,5,0,0,1,-5,-5v-12a5,5,0,0,1,5,-5z" stroke-width="3"></path><g id="node_text28" fill="black"><text id="kity_text_167" text-rendering="inherit" font-size="12" dy=".8em" y="854.7000017091632" x="1696.5000182315707"> the filter should respond to edges only and not noise</text></g></g><g id="minder_node34"><g id="node_expander30" style="cursor: pointer;"><path id="kity_path_328" fill="white" stroke="gray" d="M1537.5000157728791,914.5000025108457A6,6,0,1,1,1525.5000157728791,914.5000025108457A6,6,0,1,1,1537.5000157728791,914.5000025108457"></path><path id="kity_path_329" fill="none" stroke="gray" d="M1527.0000157728791,914.5000025108457L1536.0000157728791,914.5000025108457"></path></g><path id="node_outline31" fill="none" stroke="none" d="M1542.5000160112977,903.5000025108457h92a5,5,0,0,1,5,5v12a5,5,0,0,1,-5,5h-92a5,5,0,0,1,-5,-5v-12a5,5,0,0,1,5,-5z" stroke-width="3"></path><g id="node_text31" fill="black"><text id="kity_text_173" text-rendering="inherit" font-size="12" dy=".8em" y="906.7000024840236" x="1547.5000160112977">Good location</text></g></g><g id="minder_node35"><g id="node_expander29" style="cursor: pointer;" display="none"><path id="kity_path_325" fill="white" stroke="gray" d="M1679.500017888844,914.5000025108457A6,6,0,1,1,1667.500017888844,914.5000025108457A6,6,0,1,1,1679.500017888844,914.5000025108457"></path><path id="kity_path_326" fill="none" stroke="gray"></path></g><path id="node_outline30" fill="none" stroke="none" d="M1684.5000181272626,903.5000025108457h239a5,5,0,0,1,5,5v12a5,5,0,0,1,-5,5h-239a5,5,0,0,1,-5,-5v-12a5,5,0,0,1,5,-5z" stroke-width="3"></path><g id="node_text30" fill="black"><text id="kity_text_171" text-rendering="inherit" font-size="12" dy=".8em" y="906.7000024840236" x="1689.5000181272626"> the detected edge is near the true edge</text></g></g><g id="minder_node36"><g id="node_expander32" style="cursor: pointer;"><path id="kity_path_334" fill="white" stroke="gray" d="M1537.5000157728791,966.500003285706A6,6,0,1,1,1525.5000157728791,966.500003285706A6,6,0,1,1,1537.5000157728791,966.500003285706"></path><path id="kity_path_335" fill="none" stroke="gray" d="M1527.0000157728791,966.500003285706L1536.0000157728791,966.500003285706"></path></g><path id="node_outline33" fill="none" stroke="none" d="M1542.5000160112977,955.500003285706h112a5,5,0,0,1,5,5v12a5,5,0,0,1,-5,5h-112a5,5,0,0,1,-5,-5v-12a5,5,0,0,1,5,-5z" stroke-width="3"></path><g id="node_text33" fill="black"><text id="kity_text_177" text-rendering="inherit" font-size="12" dy=".8em" y="958.700003258884" x="1547.5000160112977">minimal response</text></g></g><g id="minder_node37"><g id="node_expander31" style="cursor: pointer;" display="none"><path id="kity_path_331" fill="white" stroke="gray" d="M1699.5000181868672,966.500003285706A6,6,0,1,1,1687.5000181868672,966.500003285706A6,6,0,1,1,1699.5000181868672,966.500003285706"></path><path id="kity_path_332" fill="none" stroke="gray"></path></g><path id="node_outline32" fill="none" stroke="none" d="M1704.5000184252858,955.500003285706h378a5,5,0,0,1,5,5v12a5,5,0,0,1,-5,5h-378a5,5,0,0,1,-5,-5v-12a5,5,0,0,1,5,-5z" stroke-width="3"></path><g id="node_text32" fill="black"><text id="kity_text_175" text-rendering="inherit" font-size="12" dy=".8em" y="958.700003258884" x="1709.5000184252858">the edge's exact location is marked with a single point response</text></g></g><g id="minder_node38"><g id="node_expander38" style="cursor: pointer;"><path id="kity_path_352" fill="white" stroke="gray" d="M1306.500012330711,1096.500005222857A6,6,0,1,1,1294.500012330711,1096.500005222857A6,6,0,1,1,1306.500012330711,1096.500005222857"></path><path id="kity_path_353" fill="none" stroke="gray" d="M1296.000012330711,1096.500005222857L1305.000012330711,1096.500005222857"></path></g><path id="node_outline39" fill="none" stroke="none" d="M1311.5000125691295,1085.500005222857h67a5,5,0,0,1,5,5v12a5,5,0,0,1,-5,5h-67a5,5,0,0,1,-5,-5v-12a5,5,0,0,1,5,-5z" stroke-width="3"></path><g id="node_text39" fill="black"><text id="kity_text_189" text-rendering="inherit" font-size="12" dy=".8em" y="1088.700005196035" x="1316.5000125691295">four steps</text></g></g><g id="minder_node39"><g id="node_expander34" style="cursor: pointer;" display="none"><path id="kity_path_340" fill="white" stroke="gray" d="M1423.5000140741467,1018.5000040605664A6,6,0,1,1,1411.5000140741467,1018.5000040605664A6,6,0,1,1,1423.5000140741467,1018.5000040605664"></path><path id="kity_path_341" fill="none" stroke="gray"></path></g><path id="node_outline35" fill="none" stroke="none" d="M1428.5000143125653,1007.5000040605664h246a5,5,0,0,1,5,5v12a5,5,0,0,1,-5,5h-246a5,5,0,0,1,-5,-5v-12a5,5,0,0,1,5,-5z" stroke-width="3"></path><g id="node_text35" fill="black"><text id="kity_text_181" text-rendering="inherit" font-size="12" dy=".8em" y="1010.7000040337443" x="1433.5000143125653">1. Suppress noise using low pass filtering</text></g></g><g id="minder_node40"><g id="node_expander35" style="cursor: pointer;" display="none"><path id="kity_path_343" fill="white" stroke="gray" d="M1423.5000140741467,1070.5000048354268A6,6,0,1,1,1411.5000140741467,1070.5000048354268A6,6,0,1,1,1423.5000140741467,1070.5000048354268"></path><path id="kity_path_344" fill="none" stroke="gray"></path></g><path id="node_outline36" fill="none" stroke="none" d="M1428.5000143125653,1059.5000048354268h319a5,5,0,0,1,5,5v12a5,5,0,0,1,-5,5h-319a5,5,0,0,1,-5,-5v-12a5,5,0,0,1,5,-5z" stroke-width="3"></path><g id="node_text36" fill="black"><text id="kity_text_183" text-rendering="inherit" font-size="12" dy=".8em" y="1062.7000048086047" x="1433.5000143125653">2. Compute gradient magnitude and direction images</text></g></g><g id="minder_node41"><g id="node_expander36" style="cursor: pointer;" display="none"><path id="kity_path_346" fill="white" stroke="gray" d="M1423.5000140741467,1122.5000056102872A6,6,0,1,1,1411.5000140741467,1122.5000056102872A6,6,0,1,1,1423.5000140741467,1122.5000056102872"></path><path id="kity_path_347" fill="none" stroke="gray"></path></g><path id="node_outline37" fill="none" stroke="none" d="M1428.5000143125653,1111.5000056102872h401a5,5,0,0,1,5,5v12a5,5,0,0,1,-5,5h-401a5,5,0,0,1,-5,-5v-12a5,5,0,0,1,5,-5z" stroke-width="3"></path><g id="node_text37" fill="black"><text id="kity_text_185" text-rendering="inherit" font-size="12" dy=".8em" y="1114.700005583465" x="1433.5000143125653">3. Apply non-maxima suppression to the gradient magnitude image</text></g></g><g id="minder_node42"><g id="node_expander37" style="cursor: pointer;" display="none"><path id="kity_path_349" fill="white" stroke="gray" d="M1423.5000140741467,1174.5000063851476A6,6,0,1,1,1411.5000140741467,1174.5000063851476A6,6,0,1,1,1423.5000140741467,1174.5000063851476"></path><path id="kity_path_350" fill="none" stroke="gray"></path></g><path id="node_outline38" fill="none" stroke="none" d="M1428.5000143125653,1163.5000063851476h345a5,5,0,0,1,5,5v12a5,5,0,0,1,-5,5h-345a5,5,0,0,1,-5,-5v-12a5,5,0,0,1,5,-5z" stroke-width="3"></path><g id="node_text38" fill="black"><text id="kity_text_187" text-rendering="inherit" font-size="12" dy=".8em" y="1166.7000063583255" x="1433.5000143125653">4. Use hysteresis and connectivity analysis to detect edges</text></g></g><g id="minder_node43"><g id="node_expander40" style="cursor: pointer;"><path id="kity_path_358" fill="white" stroke="gray" d="M1124.5000096186996,1252.5000075474381A6,6,0,1,1,1112.5000096186996,1252.5000075474381A6,6,0,1,1,1124.5000096186996,1252.5000075474381"></path><path id="kity_path_359" fill="none" stroke="gray" d="M1114.0000096186996,1252.5000075474381L1123.0000096186996,1252.5000075474381"></path></g><path id="node_outline41" fill="none" stroke="none" d="M1129.5000098571181,1241.5000075474381h124a5,5,0,0,1,5,5v12a5,5,0,0,1,-5,5h-124a5,5,0,0,1,-5,-5v-12a5,5,0,0,1,5,-5z" stroke-width="3"></path><g id="node_text41" fill="black"><text id="kity_text_193" text-rendering="inherit" font-size="12" dy=".8em" y="1244.700007520616" x="1134.5000098571181">Aggregating Edgels</text></g></g><g id="minder_node44"><g id="node_expander43" style="cursor: pointer;" display="none"><path id="kity_path_372" fill="white" stroke="gray" d="M1298.5000122115016,1226.500007160008A6,6,0,1,1,1286.5000122115016,1226.500007160008A6,6,0,1,1,1298.5000122115016,1226.500007160008"></path><path id="kity_path_373" fill="none" stroke="gray"></path></g><path id="node_outline44" fill="none" stroke="none" d="M1303.5000124499202,1215.500007160008h212a5,5,0,0,1,5,5v12a5,5,0,0,1,-5,5h-212a5,5,0,0,1,-5,-5v-12a5,5,0,0,1,5,-5z" stroke-width="3"></path><g id="node_text44" fill="black"><text id="kity_text_369" text-rendering="inherit" font-size="12" dy=".8em" y="1218.7000071331859" x="1308.5000124499202">Path Tracing Via Local Aggregating</text></g></g><g id="minder_node45"><g id="node_expander44" style="cursor: pointer;"><path id="kity_path_380" fill="white" stroke="gray" d="M1298.5000122115016,1278.5000079348683A6,6,0,1,1,1286.5000122115016,1278.5000079348683A6,6,0,1,1,1298.5000122115016,1278.5000079348683"></path><path id="kity_path_381" fill="none" stroke="gray" d="M1288.0000122115016,1278.5000079348683L1297.0000122115016,1278.5000079348683"></path></g><path id="node_outline45" fill="none" stroke="none" d="M1303.5000124499202,1267.5000079348683h250a5,5,0,0,1,5,5v12a5,5,0,0,1,-5,5h-250a5,5,0,0,1,-5,-5v-12a5,5,0,0,1,5,-5z" stroke-width="3"></path><g id="node_text45" fill="black"><text id="kity_text_377" text-rendering="inherit" font-size="12" dy=".8em" y="1270.7000079080462" x="1308.5000124499202">Global Aggregation Via Hough Transform</text></g></g><g id="minder_node46"><g id="node_expander45" style="cursor: pointer;" display="none"><path id="kity_path_388" fill="white" stroke="gray" d="M1598.50001668185,1278.5000079348683A6,6,0,1,1,1586.50001668185,1278.5000079348683A6,6,0,1,1,1598.50001668185,1278.5000079348683"></path><path id="kity_path_389" fill="none" stroke="gray"></path></g><path id="node_outline46" fill="none" stroke="none" d="M1603.5000169202685,1267.5000079348683h104a5,5,0,0,1,5,5v12a5,5,0,0,1,-5,5h-104a5,5,0,0,1,-5,-5v-12a5,5,0,0,1,5,-5z" stroke-width="3"></path><g id="node_text46" fill="black"><text id="kity_text_385" text-rendering="inherit" font-size="12" dy=".8em" y="1270.7000079080462" x="1608.5000169202685">Hough tranform</text></g></g><g id="minder_node47" opacity="1"><g id="node_expander46" style="cursor: pointer;"><path id="kity_path_396" fill="white" stroke="gray" d="M789.5000046268106,1404.5000098124146A6,6,0,1,1,777.5000046268106,1404.5000098124146A6,6,0,1,1,789.5000046268106,1404.5000098124146"></path><path id="kity_path_397" fill="none" stroke="gray" d="M779.0000046268106,1404.5000098124146L788.0000046268106,1404.5000098124146"></path></g><path id="node_outline47" fill="rgb(238, 243, 246)" stroke="rgb(115, 161, 191)" d="M793.5000050291419,1391.5000098124146h154a3,3,0,0,1,3,3v20a3,3,0,0,1,-3,3h-154a3,3,0,0,1,-3,-3v-20a3,3,0,0,1,3,-3z" stroke-width="1"></path><g id="node_text47" fill="black"><text id="kity_text_393" text-rendering="inherit" font-size="14" dy=".8em" y="1395.4000097811222" x="810.5000050291419">Feature Detection</text></g></g><g id="minder_node53" opacity="1"><g id="node_expander52" style="cursor: pointer;"><path id="kity_path_444" fill="white" stroke="gray" d="M378.4999985024333,1071.500004850328A6,6,0,1,1,366.4999985024333,1071.500004850328A6,6,0,1,1,378.4999985024333,1071.500004850328"></path><path id="kity_path_445" fill="none" stroke="gray" d="M367.9999985024333,1071.500004850328L376.9999985024333,1071.500004850328"></path></g><path id="node_outline53" fill="rgb(238, 243, 246)" stroke="rgb(57, 80, 96)" d="M166.49999568611383,1058.500004850328h196a3,3,0,0,1,3,3v20a3,3,0,0,1,-3,3h-196a3,3,0,0,1,-3,-3v-20a3,3,0,0,1,3,-3z" stroke-width="3"></path><g id="node_text53" fill="black"><text id="kity_text_441" text-rendering="inherit" font-size="14" dy=".8em" y="1062.4000048190355" x="183.49999568611383">Other Non-Linear Filters</text></g></g><g id="minder_node49"><g id="node_expander48" style="cursor: pointer;" display="none"><path id="kity_path_412" fill="white" stroke="gray" d="M1154.5000100657344,1339.5000088438392A6,6,0,1,1,1142.5000100657344,1339.5000088438392A6,6,0,1,1,1154.5000100657344,1339.5000088438392"></path><path id="kity_path_413" fill="none" stroke="gray"></path></g><path id="node_outline49" fill="none" stroke="none" d="M1159.500010304153,1328.5000088438392h87a5,5,0,0,1,5,5v12a5,5,0,0,1,-5,5h-87a5,5,0,0,1,-5,-5v-12a5,5,0,0,1,5,-5z" stroke-width="3"></path><g id="node_text49" fill="black"><text id="kity_text_409" text-rendering="inherit" font-size="12" dy=".8em" y="1331.700008817017" x="1164.500010304153">self-similarity</text></g></g><g id="minder_node50"><g id="node_expander49" style="cursor: pointer;" display="none"><path id="kity_path_420" fill="white" stroke="gray" d="M1154.5000100657344,1391.5000096186996A6,6,0,1,1,1142.5000100657344,1391.5000096186996A6,6,0,1,1,1154.5000100657344,1391.5000096186996"></path><path id="kity_path_421" fill="none" stroke="gray"></path></g><path id="node_outline50" fill="none" stroke="none" d="M1159.500010304153,1380.5000096186996h214a5,5,0,0,1,5,5v12a5,5,0,0,1,-5,5h-214a5,5,0,0,1,-5,-5v-12a5,5,0,0,1,5,-5z" stroke-width="3"></path><g id="node_text50" fill="black"><text id="kity_text_417" text-rendering="inherit" font-size="12" dy=".8em" y="1383.7000095918775" x="1164.500010304153">rotationally invariant / not isotropic</text></g></g><g id="minder_node48"><g id="node_expander47" style="cursor: pointer;"><path id="kity_path_404" fill="white" stroke="gray" d="M990.500007621944,1365.5000092312694A6,6,0,1,1,978.500007621944,1365.5000092312694A6,6,0,1,1,990.500007621944,1365.5000092312694"></path><path id="kity_path_405" fill="none" stroke="gray" d="M980.000007621944,1365.5000092312694L989.000007621944,1365.5000092312694"></path></g><path id="node_outline48" fill="none" stroke="none" d="M995.5000078603625,1354.5000092312694h114a5,5,0,0,1,5,5v12a5,5,0,0,1,-5,5h-114a5,5,0,0,1,-5,-5v-12a5,5,0,0,1,5,-5z" stroke-width="3"></path><g id="node_text48" fill="black"><text id="kity_text_401" text-rendering="inherit" font-size="12" dy=".8em" y="1357.7000092044473" x="1000.5000078603625">Morovac operator</text></g></g><g id="minder_node52"><g id="node_expander51" style="cursor: pointer;" display="none"><path id="kity_path_436" fill="white" stroke="gray" d="M1305.5000123158097,1443.50001039356A6,6,0,1,1,1293.5000123158097,1443.50001039356A6,6,0,1,1,1305.5000123158097,1443.50001039356"></path><path id="kity_path_437" fill="none" stroke="gray"></path></g><path id="node_outline52" fill="none" stroke="none" d="M1310.5000125542283,1432.50001039356h191a5,5,0,0,1,5,5v12a5,5,0,0,1,-5,5h-191a5,5,0,0,1,-5,-5v-12a5,5,0,0,1,5,-5z" stroke-width="3"></path><g id="node_text52" fill="black"><text id="kity_text_433" text-rendering="inherit" font-size="12" dy=".8em" y="1435.7000103667378" x="1315.5000125542283">isotropic / rotationally invariant</text></g></g><g id="minder_node51"><g id="node_expander50" style="cursor: pointer;"><path id="kity_path_428" fill="white" stroke="gray" d="M990.500007621944,1443.50001039356A6,6,0,1,1,978.500007621944,1443.50001039356A6,6,0,1,1,990.500007621944,1443.50001039356"></path><path id="kity_path_429" fill="none" stroke="gray" d="M980.000007621944,1443.50001039356L989.000007621944,1443.50001039356"></path></g><path id="node_outline51" fill="none" stroke="none" d="M995.5000078603625,1432.50001039356h265a5,5,0,0,1,5,5v12a5,5,0,0,1,-5,5h-265a5,5,0,0,1,-5,-5v-12a5,5,0,0,1,5,-5z" stroke-width="3"></path><g id="node_text51" fill="black"><text id="kity_text_425" text-rendering="inherit" font-size="12" dy=".8em" y="1435.7000103667378" x="1000.5000078603625">Harris and Stephens-Plessey corner detector</text></g></g><g id="kity_g_12" display="none"><path id="kity_path_13" fill="none" stroke="rgb(66, 94, 112)" d="M1428.5000005438924,1111.500004850328h401a5,5,0,0,1,5,5v12a5,5,0,0,1,-5,5h-401a5,5,0,0,1,-5,-5v-12a5,5,0,0,1,5,-5z" stroke-width="5"></path></g><g id="minder_node54"><g id="node_expander53" style="cursor: pointer;" display="none"><path id="kity_path_452" fill="white" stroke="gray" d="M135.49999488145113,1019.5000040754676A6,6,0,1,1,123.49999488145113,1019.5000040754676A6,6,0,1,1,135.49999488145113,1019.5000040754676"></path><path id="kity_path_453" fill="none" stroke="gray"></path></g><path id="node_outline54" fill="none" stroke="none" d="M35.499993555247784,1008.5000040754676h83a5,5,0,0,1,5,5v12a5,5,0,0,1,-5,5h-83a5,5,0,0,1,-5,-5v-12a5,5,0,0,1,5,-5z" stroke-width="3"></path><g id="node_text54" fill="black"><text id="kity_text_449" text-rendering="inherit" font-size="12" dy=".8em" y="1011.7000040486455" x="40.499993555247784">median filter</text></g></g><g id="minder_node55"><g id="node_expander54" style="cursor: pointer;" display="none"><path id="kity_path_460" fill="white" stroke="gray" d="M135.49999488145113,1071.500004850328A6,6,0,1,1,123.49999488145113,1071.500004850328A6,6,0,1,1,135.49999488145113,1071.500004850328"></path><path id="kity_path_461" fill="none" stroke="gray"></path></g><path id="node_outline55" fill="none" stroke="none" d="M26.499993421137333,1060.500004850328h92a5,5,0,0,1,5,5v12a5,5,0,0,1,-5,5h-92a5,5,0,0,1,-5,-5v-12a5,5,0,0,1,5,-5z" stroke-width="3"></path><g id="node_text55" fill="black"><text id="kity_text_457" text-rendering="inherit" font-size="12" dy=".8em" y="1063.7000048235059" x="31.499993421137333">minimal filters</text></g></g><g id="minder_node56"><g id="node_expander55" style="cursor: pointer;" display="none"><path id="kity_path_468" fill="white" stroke="gray" d="M135.49999488145113,1123.5000056251884A6,6,0,1,1,123.49999488145113,1123.5000056251884A6,6,0,1,1,135.49999488145113,1123.5000056251884"></path><path id="kity_path_469" fill="none" stroke="gray"></path></g><path id="node_outline56" fill="none" stroke="none" d="M24.49999339133501,1112.5000056251884h94a5,5,0,0,1,5,5v12a5,5,0,0,1,-5,5h-94a5,5,0,0,1,-5,-5v-12a5,5,0,0,1,5,-5z" stroke-width="3"></path><g id="node_text56" fill="black"><text id="kity_text_465" text-rendering="inherit" font-size="12" dy=".8em" y="1115.7000055983663" x="29.49999339133501">maximal filters</text></g></g></g></g></svg>