<svg id="kity_svg_6" xmlns="http://www.w3.org/2000/svg" xmlns:xlink="http://www.w3.org/1999/xlink" version="1.1" width="1727" height="705" style="background: rgb(251, 251, 251); visibility: visible;" viewBox="0 0 1727 705"><defs id="kity_defs_7"><linearGradient id="kity_linearGradient_17" x1="0" y1="0" x2="0" y2="1"><stop id="kity_stop_18" offset="0" stop-color="rgb(255, 255, 255)"></stop><stop id="kity_stop_19" offset="1" stop-color="rgb(204, 204, 204)"></stop></linearGradient><marker id="kity_marker_2" orient="auto" refX="6" refY="0" viewBox="-7 -7 14 14" markerWidth="7" markerHeight="7" markerUnits="userSpaceOnUse"><path id="kity_path_3" fill="rgb(115, 161, 191)" stroke="none" d="M6,0A6,6,0,1,1,-6,0A6,6,0,1,1,6,0"></path></marker></defs><g id="kity_g_8"><g id="minder1" text-rendering="optimize-speed"><g id="minder_connect_group1"><path id="kity_path_31" fill="none" stroke="rgb(115, 161, 191)" stroke-width="1" d="M730.0000066235662,308.5000018849969A243.5,248,0,0,1,973.5000066235662,60.50000188499689"></path><path id="kity_path_33" fill="none" stroke="rgb(115, 161, 191)" stroke-width="1" d="M1295.5000066235662,60.50000188499689C1310.5000066235662,60.50000188499689,1310.5000066235662,48.50000188499689,1325.5000066235662,48.50000188499689L1506.5000066235662,48.50000188499689"></path><path id="kity_path_35" fill="none" stroke="rgb(115, 161, 191)" stroke-width="1" d="M1295.5000066235662,60.50000188499689C1310.5000066235662,60.50000188499689,1310.5000066235662,104.50000188499689,1325.5000066235662,104.50000188499689L1565.5000066235662,104.50000188499689"></path><path id="kity_path_37" fill="none" stroke="rgb(115, 161, 191)" stroke-width="1" d="M730.0000066235662,308.5000018849969A243.5,28,0,0,1,973.5000066235662,280.5000018849969"></path><path id="kity_path_39" fill="none" stroke="rgb(115, 161, 191)" stroke-width="1" d="M1183.5000066235662,280.5000018849969C1198.5000066235662,280.5000018849969,1198.5000066235662,198.5000018849969,1213.5000066235662,198.5000018849969L1438.5000066235662,198.5000018849969"></path><path id="kity_path_41" fill="none" stroke="rgb(115, 161, 191)" stroke-width="1" d="M1438.5000066235662,198.5000018849969C1453.5000066235662,198.5000018849969,1453.5000066235662,170.5000018849969,1468.5000066235662,170.5000018849969L1619.5000066235662,170.5000018849969"></path><path id="kity_path_43" fill="none" stroke="rgb(115, 161, 191)" stroke-width="1" d="M1438.5000066235662,198.5000018849969C1453.5000066235662,198.5000018849969,1453.5000066235662,226.5000018849969,1468.5000066235662,226.5000018849969L1564.5000066235662,226.5000018849969"></path><path id="kity_path_87" fill="none" stroke="rgb(115, 161, 191)" stroke-width="1" d="M1183.5000066235662,280.5000018849969C1198.5000066235662,280.5000018849969,1198.5000066235662,310.5000018849969,1213.5000066235662,310.5000018849969L1449.5000066235662,310.5000018849969"></path><path id="kity_path_95" fill="none" stroke="rgb(115, 161, 191)" stroke-width="1" d="M1449.5000066235662,310.5000018849969C1464.5000066235662,310.5000018849969,1464.5000066235662,282.5000018849969,1479.5000066235662,282.5000018849969L1564.5000066235662,282.5000018849969"></path><path id="kity_path_103" fill="none" stroke="rgb(115, 161, 191)" stroke-width="1" d="M1449.5000066235662,310.5000018849969C1464.5000066235662,310.5000018849969,1464.5000066235662,338.5000018849969,1479.5000066235662,338.5000018849969L1589.5000066235662,338.5000018849969"></path><path id="kity_path_111" fill="none" stroke="rgb(115, 161, 191)" stroke-width="1" d="M1183.5000066235662,280.5000018849969C1198.5000066235662,280.5000018849969,1198.5000066235662,394.5000018849969,1213.5000066235662,394.5000018849969L1433.5000066235662,394.5000018849969"></path><path id="kity_path_119" fill="none" stroke="rgb(115, 161, 191)" stroke-width="1" d="M1433.5000066235662,394.5000018849969C1448.5000066235662,394.5000018849969,1448.5000066235662,394.5000018849969,1463.5000066235662,394.5000018849969L1574.5000066235662,394.5000018849969"></path><path id="kity_path_127" fill="none" stroke="rgb(115, 161, 191)" stroke-width="1" d="M730.0000066235662,308.5000018849969A243.5,248,0,0,0,973.5000066235662,556.5000018849969"></path><path id="kity_path_135" fill="none" stroke="rgb(115, 161, 191)" stroke-width="1" d="M1277.5000066235662,556.5000018849969C1292.5000066235662,556.5000018849969,1292.5000066235662,460.5000018849969,1307.5000066235662,460.5000018849969L1498.5000066235662,460.5000018849969"></path><path id="kity_path_143" fill="none" stroke="rgb(115, 161, 191)" stroke-width="1" d="M1277.5000066235662,556.5000018849969C1292.5000066235662,556.5000018849969,1292.5000066235662,516.5000018849969,1307.5000066235662,516.5000018849969L1706.5000066235662,516.5000018849969"></path><path id="kity_path_151" fill="none" stroke="rgb(115, 161, 191)" stroke-width="1" d="M1277.5000066235662,556.5000018849969C1292.5000066235662,556.5000018849969,1292.5000066235662,572.5000018849969,1307.5000066235662,572.5000018849969L1530.5000066235662,572.5000018849969"></path><path id="kity_path_159" fill="none" stroke="rgb(115, 161, 191)" stroke-width="1" d="M1277.5000066235662,556.5000018849969C1292.5000066235662,556.5000018849969,1292.5000066235662,628.5000018849969,1307.5000066235662,628.5000018849969L1546.5000066235662,628.5000018849969"></path><path id="kity_path_167" fill="none" stroke="rgb(115, 161, 191)" stroke-width="1" d="M1277.5000066235662,556.5000018849969C1292.5000066235662,556.5000018849969,1292.5000066235662,684.5000018849969,1307.5000066235662,684.5000018849969L1642.5000066235662,684.5000018849969"></path><path id="kity_path_175" fill="none" stroke="rgb(115, 161, 191)" stroke-width="1" d="M730.0000066235662,308.5000018849969A243.5,61,0,0,0,486.50000662356615,247.5000018849969"></path><path id="kity_path_183" fill="none" stroke="rgb(115, 161, 191)" stroke-width="1" d="M730.0000066235662,308.5000018849969A243.5,62,0,0,1,486.50000662356615,370.5000018849969"></path><path id="kity_path_191" fill="none" stroke="rgb(115, 161, 191)" stroke-width="1" d="M287.50000662356615,370.5000018849969C272.50000662356615,370.5000018849969,272.50000662356615,330.5000018849969,257.50000662356615,330.5000018849969L19.50000662356615,330.5000018849969"></path><path id="kity_path_199" fill="none" stroke="rgb(115, 161, 191)" stroke-width="1" d="M287.50000662356615,370.5000018849969C272.50000662356615,370.5000018849969,272.50000662356615,386.5000018849969,257.50000662356615,386.5000018849969L132.50000662356615,386.5000018849969"></path><path id="kity_path_207" fill="none" stroke="rgb(115, 161, 191)" stroke-width="1" d="M287.50000662356615,370.5000018849969C272.50000662356615,370.5000018849969,272.50000662356615,442.5000018849969,257.50000662356615,442.5000018849969L132.50000662356615,442.5000018849969"></path></g><g id="minder_node1"><path id="node_outline1" fill="rgb(115, 161, 191)" stroke="rgb(57, 80, 96)" d="M609.5000066235662,288.5000018849969h241a5,5,0,0,1,5,5v30a5,5,0,0,1,-5,5h-241a5,5,0,0,1,-5,-5v-30a5,5,0,0,1,5,-5z" stroke-width="3"></path><g id="node_text1" fill="white"><text id="kity_text_22" text-rendering="inherit" font-size="16" dy=".8em" y="298.1000018492341" x="628.5000066235662">Geometric Transormations</text></g></g><g id="kity_g_12"><path id="kity_path_13" fill="none" stroke="none" d="M628.5000066235662,308.5000018849969h0v0h0z"></path></g><g id="kity_g_14"><path id="kity_path_15" fill="none" stroke="none" d="M628.5000066235662,308.5000018849969h0v0h0z"></path><path id="kity_path_16" fill="none" stroke="none"></path></g><g id="minder_node2"><g id="node_expander3" style="cursor: pointer;"><path id="kity_path_72" fill="white" stroke="gray" d="M974.500011689961,60.499998189508915A6,6,0,1,1,962.500011689961,60.499998189508915A6,6,0,1,1,974.500011689961,60.499998189508915"></path><path id="kity_path_73" fill="none" stroke="gray" d="M964.000011689961,60.499998189508915L973.000011689961,60.499998189508915"></path></g><path id="node_outline4" fill="rgb(238, 243, 246)" stroke="rgb(57, 80, 96)" d="M978.5000120922923,46.499998189508915h314a3,3,0,0,1,3,3v22a3,3,0,0,1,-3,3h-314a3,3,0,0,1,-3,-3v-22a3,3,0,0,1,3,-3z" stroke-width="3"></path><g id="node_text4" fill="black"><text id="kity_text_49" text-rendering="inherit" font-size="16" dy=".8em" y="50.09999815374613" x="995.5000120922923">Homogeneous Coordinates 齐次坐标</text></g></g><g id="minder_node3"><g id="node_expander1" style="cursor: pointer;" display="none"><path id="kity_path_66" fill="white" stroke="gray" d="M1335.5000170692801,32.4999977722764A6,6,0,1,1,1323.5000170692801,32.4999977722764A6,6,0,1,1,1335.5000170692801,32.4999977722764"></path><path id="kity_path_67" fill="none" stroke="gray"></path></g><path id="node_outline2" fill="none" stroke="rgb(57, 80, 96)" d="M1340.5000173076987,19.4999977722764h161a5,5,0,0,1,5,5v16a5,5,0,0,1,-5,5h-161a5,5,0,0,1,-5,-5v-16a5,5,0,0,1,5,-5z" stroke-width="3"></path><g id="node_text2" fill="black"><text id="kity_text_45" text-rendering="inherit" font-size="16" dy=".8em" font-weight="bold" y="22.099997736513615" x="1345.5000173076987">(x,y,z) --&gt; (x,y,z,w)</text></g></g><g id="minder_node4"><g id="node_expander2" style="cursor: pointer;" display="none"><path id="kity_path_69" fill="white" stroke="gray" d="M1335.5000170692801,88.49999860674143A6,6,0,1,1,1323.5000170692801,88.49999860674143A6,6,0,1,1,1335.5000170692801,88.49999860674143"></path><path id="kity_path_70" fill="none" stroke="gray"></path></g><path id="node_outline3" fill="none" stroke="rgb(57, 80, 96)" d="M1340.5000173076987,75.49999860674143h220a5,5,0,0,1,5,5v16a5,5,0,0,1,-5,5h-220a5,5,0,0,1,-5,-5v-16a5,5,0,0,1,5,-5z" stroke-width="3"></path><g id="node_text3" fill="black"><text id="kity_text_47" text-rendering="inherit" font-size="16" dy=".8em" font-weight="bold" y="78.09999857097864" x="1345.5000173076987">w=0 表示方向，w≠0 表示点</text></g></g><g id="minder_node5"><g id="node_expander7" style="cursor: pointer;"><path id="kity_path_84" fill="white" stroke="gray" d="M974.500011689961,280.5000014677644A6,6,0,1,1,962.500011689961,280.5000014677644A6,6,0,1,1,974.500011689961,280.5000014677644"></path><path id="kity_path_85" fill="none" stroke="gray" d="M964.000011689961,280.5000014677644L973.000011689961,280.5000014677644"></path></g><path id="node_outline8" fill="rgb(238, 243, 246)" stroke="rgb(57, 80, 96)" d="M978.5000120922923,266.5000014677644h202a3,3,0,0,1,3,3v22a3,3,0,0,1,-3,3h-202a3,3,0,0,1,-3,-3v-22a3,3,0,0,1,3,-3z" stroke-width="3"></path><g id="node_text8" fill="black"><text id="kity_text_57" text-rendering="inherit" font-size="16" dy=".8em" y="270.1000014320016" x="995.5000120922923">Linear Transformation</text></g></g><g id="minder_node6"><g id="node_expander6" style="cursor: pointer;"><path id="kity_path_81" fill="white" stroke="gray" d="M1223.50001540035,182.50000000745058A6,6,0,1,1,1211.50001540035,182.50000000745058A6,6,0,1,1,1223.50001540035,182.50000000745058"></path><path id="kity_path_82" fill="none" stroke="gray" d="M1213.00001540035,182.50000000745058L1222.00001540035,182.50000000745058"></path></g><path id="node_outline7" fill="none" stroke="rgb(57, 80, 96)" d="M1228.5000156387687,169.50000000745058h205a5,5,0,0,1,5,5v16a5,5,0,0,1,-5,5h-205a5,5,0,0,1,-5,-5v-16a5,5,0,0,1,5,-5z" stroke-width="3"></path><g id="node_text7" fill="black"><text id="kity_text_55" text-rendering="inherit" font-size="16" dy=".8em" y="172.0999999716878" x="1233.5000156387687">Euclidean Transformation</text></g></g><g id="minder_node7"><g id="node_expander4" style="cursor: pointer;" display="none"><path id="kity_path_75" fill="white" stroke="gray" d="M1478.5000192001462,154.49999959021807A6,6,0,1,1,1466.5000192001462,154.49999959021807A6,6,0,1,1,1478.5000192001462,154.49999959021807"></path><path id="kity_path_76" fill="none" stroke="gray"></path></g><path id="node_outline5" fill="none" stroke="rgb(57, 80, 96)" d="M1483.5000194385648,141.49999959021807h131a5,5,0,0,1,5,5v16a5,5,0,0,1,-5,5h-131a5,5,0,0,1,-5,-5v-16a5,5,0,0,1,5,-5z" stroke-width="3"></path><g id="node_text5" fill="black"><text id="kity_text_51" text-rendering="inherit" font-size="16" dy=".8em" y="144.09999955445528" x="1488.5000194385648">Translation 平移</text></g></g><g id="minder_node8"><g id="node_expander5" style="cursor: pointer;" display="none"><path id="kity_path_78" fill="white" stroke="gray" d="M1478.5000192001462,210.5000004246831A6,6,0,1,1,1466.5000192001462,210.5000004246831A6,6,0,1,1,1478.5000192001462,210.5000004246831"></path><path id="kity_path_79" fill="none" stroke="gray"></path></g><path id="node_outline6" fill="none" stroke="rgb(57, 80, 96)" d="M1483.5000194385648,197.5000004246831h76a5,5,0,0,1,5,5v16a5,5,0,0,1,-5,5h-76a5,5,0,0,1,-5,-5v-16a5,5,0,0,1,5,-5z" stroke-width="3"></path><g id="node_text6" fill="black"><text id="kity_text_53" text-rendering="inherit" font-size="16" dy=".8em" y="200.1000003889203" x="1488.5000194385648">Rotation</text></g></g><g id="minder_node9"><g id="node_expander8" style="cursor: pointer;"><path id="kity_path_92" fill="white" stroke="gray" d="M1223.50001540035,294.50000167638063A6,6,0,1,1,1211.50001540035,294.50000167638063A6,6,0,1,1,1223.50001540035,294.50000167638063"></path><path id="kity_path_93" fill="none" stroke="gray" d="M1213.00001540035,294.50000167638063L1222.00001540035,294.50000167638063"></path></g><path id="node_outline9" fill="none" stroke="rgb(57, 80, 96)" d="M1228.5000156387687,281.50000167638063h216a5,5,0,0,1,5,5v16a5,5,0,0,1,-5,5h-216a5,5,0,0,1,-5,-5v-16a5,5,0,0,1,5,-5z" stroke-width="3"></path><g id="node_text9" fill="black"><text id="kity_text_89" text-rendering="inherit" font-size="16" dy=".8em" y="284.10000164061785" x="1233.5000156387687">Affine Transformation 仿射</text></g></g><g id="minder_node10"><g id="node_expander9" style="cursor: pointer;" display="none"><path id="kity_path_100" fill="white" stroke="gray" d="M1489.500019364059,266.5000012591481A6,6,0,1,1,1477.500019364059,266.5000012591481A6,6,0,1,1,1489.500019364059,266.5000012591481"></path><path id="kity_path_101" fill="none" stroke="gray"></path></g><path id="node_outline10" fill="none" stroke="rgb(57, 80, 96)" d="M1494.5000196024776,253.50000125914812h65a5,5,0,0,1,5,5v16a5,5,0,0,1,-5,5h-65a5,5,0,0,1,-5,-5v-16a5,5,0,0,1,5,-5z" stroke-width="3"></path><g id="node_text10" fill="black"><text id="kity_text_97" text-rendering="inherit" font-size="16" dy=".8em" y="256.10000122338533" x="1499.5000196024776">Scaling</text></g></g><g id="minder_node11"><g id="node_expander10" style="cursor: pointer;" display="none"><path id="kity_path_108" fill="white" stroke="gray" d="M1489.500019364059,322.50000209361315A6,6,0,1,1,1477.500019364059,322.50000209361315A6,6,0,1,1,1489.500019364059,322.50000209361315"></path><path id="kity_path_109" fill="none" stroke="gray"></path></g><path id="node_outline11" fill="none" stroke="rgb(57, 80, 96)" d="M1494.5000196024776,309.50000209361315h90a5,5,0,0,1,5,5v16a5,5,0,0,1,-5,5h-90a5,5,0,0,1,-5,-5v-16a5,5,0,0,1,5,-5z" stroke-width="3"></path><g id="node_text11" fill="black"><text id="kity_text_105" text-rendering="inherit" font-size="16" dy=".8em" y="312.10000205785036" x="1499.5000196024776">Shear 剪切</text></g></g><g id="minder_node12"><g id="node_expander11" style="cursor: pointer;"><path id="kity_path_116" fill="white" stroke="gray" d="M1223.50001540035,378.5000029280782A6,6,0,1,1,1211.50001540035,378.5000029280782A6,6,0,1,1,1223.50001540035,378.5000029280782"></path><path id="kity_path_117" fill="none" stroke="gray" d="M1213.00001540035,378.5000029280782L1222.00001540035,378.5000029280782"></path></g><path id="node_outline12" fill="none" stroke="rgb(57, 80, 96)" d="M1228.5000156387687,365.5000029280782h200a5,5,0,0,1,5,5v16a5,5,0,0,1,-5,5h-200a5,5,0,0,1,-5,-5v-16a5,5,0,0,1,5,-5z" stroke-width="3"></path><g id="node_text12" fill="black"><text id="kity_text_113" text-rendering="inherit" font-size="16" dy=".8em" y="368.1000028923154" x="1233.5000156387687">Projective Tranformation</text></g></g><g id="minder_node13"><g id="node_expander12" style="cursor: pointer;" display="none"><path id="kity_path_124" fill="white" stroke="gray" d="M1473.5000191256404,378.5000029280782A6,6,0,1,1,1461.5000191256404,378.5000029280782A6,6,0,1,1,1473.5000191256404,378.5000029280782"></path><path id="kity_path_125" fill="none" stroke="gray"></path></g><path id="node_outline13" fill="none" stroke="rgb(57, 80, 96)" d="M1478.500019364059,365.5000029280782h91a5,5,0,0,1,5,5v16a5,5,0,0,1,-5,5h-91a5,5,0,0,1,-5,-5v-16a5,5,0,0,1,5,-5z" stroke-width="3"></path><g id="node_text13" fill="black"><text id="kity_text_121" text-rendering="inherit" font-size="16" dy=".8em" y="368.1000028923154" x="1483.500019364059">针孔摄像机</text></g></g><g id="minder_node14"><g id="node_expander13" style="cursor: pointer;"><path id="kity_path_132" fill="white" stroke="gray" d="M974.500011689961,556.5000055804849A6,6,0,1,1,962.500011689961,556.5000055804849A6,6,0,1,1,974.500011689961,556.5000055804849"></path><path id="kity_path_133" fill="none" stroke="gray" d="M964.000011689961,556.5000055804849L973.000011689961,556.5000055804849"></path></g><path id="node_outline14" fill="rgb(238, 243, 246)" stroke="rgb(57, 80, 96)" d="M978.5000120922923,542.5000055804849h296a3,3,0,0,1,3,3v22a3,3,0,0,1,-3,3h-296a3,3,0,0,1,-3,-3v-22a3,3,0,0,1,3,-3z" stroke-width="3"></path><g id="node_text14" fill="black"><text id="kity_text_129" text-rendering="inherit" font-size="16" dy=".8em" y="546.1000055447221" x="995.5000120922923">Concatenation of Transformations</text></g></g><g id="minder_node15"><g id="node_expander14" style="cursor: pointer;" display="none"><path id="kity_path_140" fill="white" stroke="gray" d="M1317.5000168010592,444.5000039115548A6,6,0,1,1,1305.5000168010592,444.5000039115548A6,6,0,1,1,1317.5000168010592,444.5000039115548"></path><path id="kity_path_141" fill="none" stroke="gray"></path></g><path id="node_outline15" fill="none" stroke="rgb(57, 80, 96)" d="M1322.5000170394778,431.5000039115548h171a5,5,0,0,1,5,5v16a5,5,0,0,1,-5,5h-171a5,5,0,0,1,-5,-5v-16a5,5,0,0,1,5,-5z" stroke-width="3"></path><g id="node_text15" fill="black"><text id="kity_text_137" text-rendering="inherit" font-size="16" dy=".8em" y="434.100003875792" x="1327.5000170394778">变换矩阵顺序不可交换</text></g></g><g id="minder_node16"><g id="node_expander15" style="cursor: pointer;" display="none"><path id="kity_path_148" fill="white" stroke="gray" d="M1317.5000168010592,500.50000474601984A6,6,0,1,1,1305.5000168010592,500.50000474601984A6,6,0,1,1,1317.5000168010592,500.50000474601984"></path><path id="kity_path_149" fill="none" stroke="gray"></path></g><path id="node_outline16" fill="none" stroke="rgb(57, 80, 96)" d="M1322.5000170394778,487.50000474601984h379a5,5,0,0,1,5,5v16a5,5,0,0,1,-5,5h-379a5,5,0,0,1,-5,-5v-16a5,5,0,0,1,5,-5z" stroke-width="3"></path><g id="node_text16" fill="black"><text id="kity_text_145" text-rendering="inherit" font-size="16" dy=".8em" y="490.10000471025705" x="1327.5000170394778">Step 1：将点变换到可以进行基础放射变换的情况下</text></g></g><g id="minder_node17"><g id="node_expander16" style="cursor: pointer;" display="none"><path id="kity_path_156" fill="white" stroke="gray" d="M1317.5000168010592,556.5000055804849A6,6,0,1,1,1305.5000168010592,556.5000055804849A6,6,0,1,1,1317.5000168010592,556.5000055804849"></path><path id="kity_path_157" fill="none" stroke="gray"></path></g><path id="node_outline17" fill="none" stroke="rgb(57, 80, 96)" d="M1322.5000170394778,543.5000055804849h203a5,5,0,0,1,5,5v16a5,5,0,0,1,-5,5h-203a5,5,0,0,1,-5,-5v-16a5,5,0,0,1,5,-5z" stroke-width="3"></path><g id="node_text17" fill="black"><text id="kity_text_153" text-rendering="inherit" font-size="16" dy=".8em" y="546.1000055447221" x="1327.5000170394778">Step 2：进行基础仿射变换</text></g></g><g id="minder_node18"><g id="node_expander17" style="cursor: pointer;" display="none"><path id="kity_path_164" fill="white" stroke="gray" d="M1317.5000168010592,612.5000064149499A6,6,0,1,1,1305.5000168010592,612.5000064149499A6,6,0,1,1,1317.5000168010592,612.5000064149499"></path><path id="kity_path_165" fill="none" stroke="gray"></path></g><path id="node_outline18" fill="none" stroke="rgb(57, 80, 96)" d="M1322.5000170394778,599.5000064149499h219a5,5,0,0,1,5,5v16a5,5,0,0,1,-5,5h-219a5,5,0,0,1,-5,-5v-16a5,5,0,0,1,5,-5z" stroke-width="3"></path><g id="node_text18" fill="black"><text id="kity_text_161" text-rendering="inherit" font-size="16" dy=".8em" y="602.1000063791871" x="1327.5000170394778">Step 3：进行第一步的逆变换</text></g></g><g id="minder_node19"><g id="node_expander18" style="cursor: pointer;" display="none"><path id="kity_path_172" fill="white" stroke="gray" d="M1317.5000168010592,668.5000072494149A6,6,0,1,1,1305.5000168010592,668.5000072494149A6,6,0,1,1,1317.5000168010592,668.5000072494149"></path><path id="kity_path_173" fill="none" stroke="gray"></path></g><path id="node_outline19" fill="none" stroke="rgb(57, 80, 96)" d="M1322.5000170394778,655.5000072494149h315a5,5,0,0,1,5,5v16a5,5,0,0,1,-5,5h-315a5,5,0,0,1,-5,-5v-16a5,5,0,0,1,5,-5z" stroke-width="3"></path><g id="node_text19" fill="black"><text id="kity_text_169" text-rendering="inherit" font-size="16" dy=".8em" y="658.1000072136521" x="1327.5000170394778">Step 4：前三步的变换组合为一个复杂变换</text></g></g><g id="minder_node20"><g id="node_expander19" style="cursor: pointer;" display="none"><path id="kity_path_180" fill="white" stroke="gray" d="M497.50000458210707,247.50000097602606A6,6,0,1,1,485.50000458210707,247.50000097602606A6,6,0,1,1,497.50000458210707,247.50000097602606"></path><path id="kity_path_181" fill="none" stroke="gray"></path></g><path id="node_outline20" fill="rgb(238, 243, 246)" stroke="rgb(57, 80, 96)" d="M294.50000189989805,233.50000097602606h187a3,3,0,0,1,3,3v22a3,3,0,0,1,-3,3h-187a3,3,0,0,1,-3,-3v-22a3,3,0,0,1,3,-3z" stroke-width="3"></path><g id="node_text20" fill="black"><text id="kity_text_177" text-rendering="inherit" font-size="16" dy=".8em" y="237.10000094026327" x="311.50000189989805">Coordinate Systems</text></g></g><g id="minder_node21"><g id="node_expander20" style="cursor: pointer;"><path id="kity_path_188" fill="white" stroke="gray" d="M497.50000458210707,370.5000028088689A6,6,0,1,1,485.50000458210707,370.5000028088689A6,6,0,1,1,497.50000458210707,370.5000028088689"></path><path id="kity_path_189" fill="none" stroke="gray" d="M487.00000458210707,370.5000028088689L496.00000458210707,370.5000028088689"></path></g><path id="node_outline21" fill="rgb(238, 243, 246)" stroke="rgb(57, 80, 96)" d="M290.5000018402934,356.5000028088689h191a3,3,0,0,1,3,3v22a3,3,0,0,1,-3,3h-191a3,3,0,0,1,-3,-3v-22a3,3,0,0,1,3,-3z" stroke-width="3"></path><g id="node_text21" fill="black"><text id="kity_text_185" text-rendering="inherit" font-size="16" dy=".8em" y="360.1000027731061" x="307.5000018402934">Degrees of Freedom</text></g></g><g id="minder_node22"><g id="node_expander21" style="cursor: pointer;" display="none"><path id="kity_path_196" fill="white" stroke="gray" d="M259.5000010356307,314.50000197440386A6,6,0,1,1,247.5000010356307,314.50000197440386A6,6,0,1,1,259.5000010356307,314.50000197440386"></path><path id="kity_path_197" fill="none" stroke="gray"></path></g><path id="node_outline22" fill="none" stroke="rgb(57, 80, 96)" d="M24.499997697770596,301.50000197440386h218a5,5,0,0,1,5,5v16a5,5,0,0,1,-5,5h-218a5,5,0,0,1,-5,-5v-16a5,5,0,0,1,5,-5z" stroke-width="3"></path><g id="node_text22" fill="black"><text id="kity_text_193" text-rendering="inherit" font-size="16" dy=".8em" y="304.10000193864107" x="29.499997697770596">可以变化的参数个数为自由度</text></g></g><g id="minder_node23"><g id="node_expander22" style="cursor: pointer;" display="none"><path id="kity_path_204" fill="white" stroke="gray" d="M259.5000010356307,370.5000028088689A6,6,0,1,1,247.5000010356307,370.5000028088689A6,6,0,1,1,259.5000010356307,370.5000028088689"></path><path id="kity_path_205" fill="none" stroke="gray"></path></g><path id="node_outline23" fill="none" stroke="rgb(57, 80, 96)" d="M137.4999993816018,357.5000028088689h105a5,5,0,0,1,5,5v16a5,5,0,0,1,-5,5h-105a5,5,0,0,1,-5,-5v-16a5,5,0,0,1,5,-5z" stroke-width="3"></path><g id="node_text23" fill="black"><text id="kity_text_201" text-rendering="inherit" font-size="16" dy=".8em" y="360.1000027731061" font-weight="bold" x="142.4999993816018">刚体变换为 3</text></g></g><g id="minder_node24"><g id="node_expander23" style="cursor: pointer;" display="none"><path id="kity_path_212" fill="white" stroke="gray" d="M259.5000010356307,426.5000036433339A6,6,0,1,1,247.5000010356307,426.5000036433339A6,6,0,1,1,259.5000010356307,426.5000036433339"></path><path id="kity_path_213" fill="none" stroke="gray"></path></g><path id="node_outline24" fill="none" stroke="rgb(57, 80, 96)" d="M137.4999993816018,413.5000036433339h105a5,5,0,0,1,5,5v16a5,5,0,0,1,-5,5h-105a5,5,0,0,1,-5,-5v-16a5,5,0,0,1,5,-5z" stroke-width="3"></path><g id="node_text24" fill="black"><text id="kity_text_209" text-rendering="inherit" font-size="16" dy=".8em" y="416.1000036075711" font-weight="bold" x="142.4999993816018">仿射变换为 6</text></g></g></g></g></svg>