<svg id="kity_svg_6" xmlns="http://www.w3.org/2000/svg" xmlns:xlink="http://www.w3.org/1999/xlink" version="1.1" width="2908" height="2159" style="background: rgb(251, 251, 251); visibility: visible;" viewBox="0 0 2908 2159"><defs id="kity_defs_7"><linearGradient id="kity_linearGradient_17" x1="0" y1="0" x2="0" y2="1"><stop id="kity_stop_18" offset="0" stop-color="rgb(255, 255, 255)"></stop><stop id="kity_stop_19" offset="1" stop-color="rgb(204, 204, 204)"></stop></linearGradient><marker id="kity_marker_2" orient="auto" refX="6" refY="0" viewBox="-7 -7 14 14" markerWidth="7" markerHeight="7" markerUnits="userSpaceOnUse"><path id="kity_path_3" fill="rgb(115, 161, 191)" stroke="none" d="M6,0A6,6,0,1,1,-6,0A6,6,0,1,1,6,0"></path></marker></defs><g id="kity_g_8"><g id="minder1" text-rendering="geometricPrecision"><g id="minder_connect_group1"><path id="kity_path_31" fill="none" stroke="rgb(115, 161, 191)" stroke-width="1" d="M1586.500009842217,1224.4999999776483A206,824,0,0,1,1792.500009842217,400.49999997764826"></path><path id="kity_path_33" fill="none" stroke="rgb(115, 161, 191)" stroke-width="1" d="M2038.500009842217,400.49999997764826C2053.500009842217,400.49999997764826,2053.500009842217,49.49999997764826,2068.500009842217,49.49999997764826L2323.500009842217,49.49999997764826"></path><path id="kity_path_35" fill="none" stroke="rgb(115, 161, 191)" stroke-width="1" d="M2038.500009842217,400.49999997764826C2053.500009842217,400.49999997764826,2053.500009842217,105.49999997764826,2068.500009842217,105.49999997764826L2475.500009842217,105.49999997764826"></path><path id="kity_path_37" fill="none" stroke="rgb(115, 161, 191)" stroke-width="1" d="M2038.500009842217,400.49999997764826C2053.500009842217,400.49999997764826,2053.500009842217,198.49999997764826,2068.500009842217,198.49999997764826L2298.500009842217,198.49999997764826"></path><path id="kity_path_39" fill="none" stroke="rgb(115, 161, 191)" stroke-width="1" d="M2038.500009842217,400.49999997764826C2053.500009842217,400.49999997764826,2053.500009842217,292.49999997764826,2068.500009842217,292.49999997764826L2298.500009842217,292.49999997764826"></path><path id="kity_path_41" fill="none" stroke="rgb(115, 161, 191)" stroke-width="1" d="M2038.500009842217,400.49999997764826C2053.500009842217,400.49999997764826,2053.500009842217,496.49999997764826,2068.500009842217,496.49999997764826L2163.500009842217,496.49999997764826"></path><path id="kity_path_43" fill="none" stroke="rgb(115, 161, 191)" stroke-width="1" d="M2163.500009842217,496.49999997764826C2178.500009842217,496.49999997764826,2178.500009842217,469.49999997764826,2193.500009842217,469.49999997764826L2412.500009842217,469.49999997764826"></path><path id="kity_path_45" fill="none" stroke="rgb(115, 161, 191)" stroke-width="1" d="M2163.500009842217,496.49999997764826C2178.500009842217,496.49999997764826,2178.500009842217,644.4999999776483,2193.500009842217,644.4999999776483L2423.500009842217,644.4999999776483"></path><path id="kity_path_47" fill="none" stroke="rgb(115, 161, 191)" stroke-width="1" d="M2038.500009842217,400.49999997764826C2053.500009842217,400.49999997764826,2053.500009842217,783.4999999776483,2068.500009842217,783.4999999776483L2210.500009842217,783.4999999776483"></path><path id="kity_path_49" fill="none" stroke="rgb(115, 161, 191)" stroke-width="1" d="M2210.500009842217,783.4999999776483C2225.500009842217,783.4999999776483,2225.500009842217,811.4999999776483,2240.500009842217,811.4999999776483L2470.500009842217,811.4999999776483"></path><path id="kity_path_51" fill="none" stroke="rgb(115, 161, 191)" stroke-width="1" d="M2470.500009842217,811.4999999776483C2485.500009842217,811.4999999776483,2485.500009842217,700.4999999776483,2500.500009842217,700.4999999776483L2646.500009842217,700.4999999776483"></path><path id="kity_path_53" fill="none" stroke="rgb(115, 161, 191)" stroke-width="1" d="M2470.500009842217,811.4999999776483C2485.500009842217,811.4999999776483,2485.500009842217,810.4999999776483,2500.500009842217,810.4999999776483L2694.500009842217,810.4999999776483"></path><path id="kity_path_55" fill="none" stroke="rgb(115, 161, 191)" stroke-width="1" d="M2210.500009842217,783.4999999776483C2225.500009842217,783.4999999776483,2225.500009842217,867.4999999776483,2240.500009842217,867.4999999776483L2512.500009842217,867.4999999776483"></path><path id="kity_path_57" fill="none" stroke="rgb(115, 161, 191)" stroke-width="1" d="M1586.500009842217,1224.4999999776483A206,66,0,0,0,1792.500009842217,1290.4999999776483"></path><path id="kity_path_59" fill="none" stroke="rgb(115, 161, 191)" stroke-width="1" d="M1946.500009842217,1290.4999999776483C1961.500009842217,1290.4999999776483,1961.500009842217,1000.4999999776483,1976.500009842217,1000.4999999776483L2223.500009842217,1000.4999999776483"></path><path id="kity_path_61" fill="none" stroke="rgb(115, 161, 191)" stroke-width="1" d="M2223.500009842217,1000.4999999776483C2238.500009842217,1000.4999999776483,2238.500009842217,932.4999999776483,2253.500009842217,932.4999999776483L2487.500009842217,932.4999999776483"></path><path id="kity_path_63" fill="none" stroke="rgb(115, 161, 191)" stroke-width="1" d="M2487.500009842217,932.4999999776483C2502.500009842217,932.4999999776483,2502.500009842217,932.4999999776483,2517.500009842217,932.4999999776483L2887.500009842217,932.4999999776483"></path><path id="kity_path_65" fill="none" stroke="rgb(115, 161, 191)" stroke-width="1" d="M2223.500009842217,1000.4999999776483C2238.500009842217,1000.4999999776483,2238.500009842217,1068.4999999776483,2253.500009842217,1068.4999999776483L2439.500009842217,1068.4999999776483"></path><path id="kity_path_67" fill="none" stroke="rgb(115, 161, 191)" stroke-width="1" d="M2439.500009842217,1068.4999999776483C2454.500009842217,1068.4999999776483,2454.500009842217,1013.4999999776483,2469.500009842217,1013.4999999776483L2711.500009842217,1013.4999999776483"></path><path id="kity_path_69" fill="none" stroke="rgb(115, 161, 191)" stroke-width="1" d="M2439.500009842217,1068.4999999776483C2454.500009842217,1068.4999999776483,2454.500009842217,1092.4999999776483,2469.500009842217,1092.4999999776483L2699.500009842217,1092.4999999776483"></path><path id="kity_path_71" fill="none" stroke="rgb(115, 161, 191)" stroke-width="1" d="M2439.500009842217,1068.4999999776483C2454.500009842217,1068.4999999776483,2454.500009842217,1148.4999999776483,2469.500009842217,1148.4999999776483L2816.500009842217,1148.4999999776483"></path><path id="kity_path_73" fill="none" stroke="rgb(115, 161, 191)" stroke-width="1" d="M1946.500009842217,1290.4999999776483C1961.500009842217,1290.4999999776483,1961.500009842217,1302.4999999776483,1976.500009842217,1302.4999999776483L2140.500009842217,1302.4999999776483"></path><path id="kity_path_75" fill="none" stroke="rgb(115, 161, 191)" stroke-width="1" d="M2140.500009842217,1302.4999999776483C2155.500009842217,1302.4999999776483,2155.500009842217,1229.4999999776483,2170.500009842217,1229.4999999776483L2400.500009842217,1229.4999999776483"></path><path id="kity_path_77" fill="none" stroke="rgb(115, 161, 191)" stroke-width="1" d="M2140.500009842217,1302.4999999776483C2155.500009842217,1302.4999999776483,2155.500009842217,1323.4999999776483,2170.500009842217,1323.4999999776483L2400.500009842217,1323.4999999776483"></path><path id="kity_path_79" fill="none" stroke="rgb(115, 161, 191)" stroke-width="1" d="M2140.500009842217,1302.4999999776483C2155.500009842217,1302.4999999776483,2155.500009842217,1400.4999999776483,2170.500009842217,1400.4999999776483L2400.500009842217,1400.4999999776483"></path><path id="kity_path_81" fill="none" stroke="rgb(115, 161, 191)" stroke-width="1" d="M1946.500009842217,1290.4999999776483C1961.500009842217,1290.4999999776483,1961.500009842217,1612.4999999776483,1976.500009842217,1612.4999999776483L2117.500009842217,1612.4999999776483"></path><path id="kity_path_83" fill="none" stroke="rgb(115, 161, 191)" stroke-width="1" d="M2117.500009842217,1612.4999999776483C2132.500009842217,1612.4999999776483,2132.500009842217,1483.4999999776483,2147.500009842217,1483.4999999776483L2393.500009842217,1483.4999999776483"></path><path id="kity_path_85" fill="none" stroke="rgb(115, 161, 191)" stroke-width="1" d="M2393.500009842217,1483.4999999776483C2408.500009842217,1483.4999999776483,2408.500009842217,1455.4999999776483,2423.500009842217,1455.4999999776483L2567.500009842217,1455.4999999776483"></path><path id="kity_path_87" fill="none" stroke="rgb(115, 161, 191)" stroke-width="1" d="M2393.500009842217,1483.4999999776483C2408.500009842217,1483.4999999776483,2408.500009842217,1511.4999999776483,2423.500009842217,1511.4999999776483L2756.500009842217,1511.4999999776483"></path><path id="kity_path_89" fill="none" stroke="rgb(115, 161, 191)" stroke-width="1" d="M2117.500009842217,1612.4999999776483C2132.500009842217,1612.4999999776483,2132.500009842217,1741.4999999776483,2147.500009842217,1741.4999999776483L2348.500009842217,1741.4999999776483"></path><path id="kity_path_91" fill="none" stroke="rgb(115, 161, 191)" stroke-width="1" d="M2348.500009842217,1741.4999999776483C2363.500009842217,1741.4999999776483,2363.500009842217,1568.4999999776483,2378.500009842217,1568.4999999776483L2533.500009842217,1568.4999999776483"></path><path id="kity_path_93" fill="none" stroke="rgb(115, 161, 191)" stroke-width="1" d="M2348.500009842217,1741.4999999776483C2363.500009842217,1741.4999999776483,2363.500009842217,1624.4999999776483,2378.500009842217,1624.4999999776483L2656.500009842217,1624.4999999776483"></path><path id="kity_path_95" fill="none" stroke="rgb(115, 161, 191)" stroke-width="1" d="M2348.500009842217,1741.4999999776483C2363.500009842217,1741.4999999776483,2363.500009842217,1680.4999999776483,2378.500009842217,1680.4999999776483L2493.500009842217,1680.4999999776483"></path><path id="kity_path_97" fill="none" stroke="rgb(115, 161, 191)" stroke-width="1" d="M2348.500009842217,1741.4999999776483C2363.500009842217,1741.4999999776483,2363.500009842217,1915.4999999776483,2378.500009842217,1915.4999999776483L2608.500009842217,1915.4999999776483"></path><path id="kity_path_99" fill="none" stroke="rgb(115, 161, 191)" stroke-width="1" d="M1586.500009842217,1224.4999999776483A206,825,0,0,0,1792.500009842217,2049.4999999776483"></path><path id="kity_path_101" fill="none" stroke="rgb(115, 161, 191)" stroke-width="1" d="M2084.500009842217,2049.4999999776483C2099.500009842217,2049.4999999776483,2099.500009842217,2014.4999999776483,2114.500009842217,2014.4999999776483L2344.500009842217,2014.4999999776483"></path><path id="kity_path_103" fill="none" stroke="rgb(115, 161, 191)" stroke-width="1" d="M2344.500009842217,2014.4999999776483C2359.500009842217,2014.4999999776483,2359.500009842217,2030.4999999776483,2374.500009842217,2030.4999999776483L2575.500009842217,2030.4999999776483"></path><path id="kity_path_105" fill="none" stroke="rgb(115, 161, 191)" stroke-width="1" d="M2084.500009842217,2049.4999999776483C2099.500009842217,2049.4999999776483,2099.500009842217,2133.4999999776483,2114.500009842217,2133.4999999776483L2344.500009842217,2133.4999999776483"></path><path id="kity_path_109" fill="none" stroke="rgb(115, 161, 191)" stroke-width="1" d="M1586.500009842217,1224.4999999776483A206,487,0,0,0,1380.500009842217,737.4999999776483"></path><path id="kity_path_111" fill="none" stroke="rgb(115, 161, 191)" stroke-width="1" d="M1277.500009842217,737.4999999776483C1262.500009842217,737.4999999776483,1262.500009842217,592.4999999776483,1247.500009842217,592.4999999776483L621.500009842217,592.4999999776483"></path><path id="kity_path_113" fill="none" stroke="rgb(115, 161, 191)" stroke-width="1" d="M1277.500009842217,737.4999999776483C1262.500009842217,737.4999999776483,1262.500009842217,648.4999999776483,1247.500009842217,648.4999999776483L875.500009842217,648.4999999776483"></path><path id="kity_path_383" fill="none" stroke="rgb(115, 161, 191)" stroke-width="1" d="M1586.500009842217,1224.4999999776483A206,146,0,0,1,1380.500009842217,1370.4999999776483"></path><path id="kity_path_391" fill="none" stroke="rgb(115, 161, 191)" stroke-width="1" d="M1101.500009842217,1370.4999999776483C1086.500009842217,1370.4999999776483,1086.500009842217,1218.4999999776483,1071.500009842217,1218.4999999776483L492.50000984221697,1218.4999999776483"></path><path id="kity_path_399" fill="none" stroke="rgb(115, 161, 191)" stroke-width="1" d="M1101.500009842217,1370.4999999776483C1086.500009842217,1370.4999999776483,1086.500009842217,1274.4999999776483,1071.500009842217,1274.4999999776483L611.500009842217,1274.4999999776483"></path><path id="kity_path_406" fill="none" stroke="rgb(115, 161, 191)" stroke-width="1" d="M2344.500009842217,2133.4999999776483C2359.500009842217,2133.4999999776483,2359.500009842217,2139.4999999776483,2374.500009842217,2139.4999999776483L2574.500009842217,2139.4999999776483"></path><path id="kity_path_408" fill="none" stroke="rgb(115, 161, 191)" stroke-width="1" d="M1101.500009842217,1370.4999999776483C1086.500009842217,1370.4999999776483,1086.500009842217,1330.4999999776483,1071.500009842217,1330.4999999776483L19.50000984221697,1330.4999999776483"></path><path id="kity_path_416" fill="none" stroke="rgb(115, 161, 191)" stroke-width="1" d="M1101.500009842217,1370.4999999776483C1086.500009842217,1370.4999999776483,1086.500009842217,1386.4999999776483,1071.500009842217,1386.4999999776483L562.500009842217,1386.4999999776483"></path><path id="kity_path_424" fill="none" stroke="rgb(115, 161, 191)" stroke-width="1" d="M1101.500009842217,1370.4999999776483C1086.500009842217,1370.4999999776483,1086.500009842217,1442.4999999776483,1071.500009842217,1442.4999999776483L622.500009842217,1442.4999999776483"></path><path id="kity_path_432" fill="none" stroke="rgb(115, 161, 191)" stroke-width="1" d="M1101.500009842217,1370.4999999776483C1086.500009842217,1370.4999999776483,1086.500009842217,1498.4999999776483,1071.500009842217,1498.4999999776483L892.500009842217,1498.4999999776483"></path><path id="kity_path_440" fill="none" stroke="rgb(115, 161, 191)" stroke-width="1" d="M892.500009842217,1498.4999999776483C877.500009842217,1498.4999999776483,877.500009842217,1498.4999999776483,862.500009842217,1498.4999999776483L654.500009842217,1498.4999999776483"></path><path id="kity_path_448" fill="none" stroke="rgb(115, 161, 191)" stroke-width="1" d="M1101.500009842217,1370.4999999776483C1086.500009842217,1370.4999999776483,1086.500009842217,1554.4999999776483,1071.500009842217,1554.4999999776483L950.500009842217,1554.4999999776483"></path><path id="kity_path_456" fill="none" stroke="rgb(115, 161, 191)" stroke-width="1" d="M950.500009842217,1554.4999999776483C935.500009842217,1554.4999999776483,935.500009842217,1554.4999999776483,920.500009842217,1554.4999999776483L777.500009842217,1554.4999999776483"></path><path id="kity_path_464" fill="none" stroke="rgb(115, 161, 191)" stroke-width="1" d="M1277.500009842217,737.4999999776483C1262.500009842217,737.4999999776483,1262.500009842217,914.4999999776483,1247.500009842217,914.4999999776483L1153.500009842217,914.4999999776483"></path><path id="kity_path_472" fill="none" stroke="rgb(115, 161, 191)" stroke-width="1" d="M1153.500009842217,914.4999999776483C1138.500009842217,914.4999999776483,1138.500009842217,788.4999999776483,1123.500009842217,788.4999999776483L1023.500009842217,788.4999999776483"></path><path id="kity_path_480" fill="none" stroke="rgb(115, 161, 191)" stroke-width="1" d="M1023.500009842217,788.4999999776483C1008.500009842217,788.4999999776483,1008.500009842217,704.4999999776483,993.500009842217,704.4999999776483L834.500009842217,704.4999999776483"></path><path id="kity_path_488" fill="none" stroke="rgb(115, 161, 191)" stroke-width="1" d="M1153.500009842217,914.4999999776483C1138.500009842217,914.4999999776483,1138.500009842217,1040.4999999776483,1123.500009842217,1040.4999999776483L982.500009842217,1040.4999999776483"></path><path id="kity_path_496" fill="none" stroke="rgb(115, 161, 191)" stroke-width="1" d="M982.500009842217,1040.4999999776483C967.500009842217,1040.4999999776483,967.500009842217,928.4999999776483,952.500009842217,928.4999999776483L728.500009842217,928.4999999776483"></path><path id="kity_path_504" fill="none" stroke="rgb(115, 161, 191)" stroke-width="1" d="M1023.500009842217,788.4999999776483C1008.500009842217,788.4999999776483,1008.500009842217,760.4999999776483,993.500009842217,760.4999999776483L440.50000984221697,760.4999999776483"></path><path id="kity_path_512" fill="none" stroke="rgb(115, 161, 191)" stroke-width="1" d="M1023.500009842217,788.4999999776483C1008.500009842217,788.4999999776483,1008.500009842217,816.4999999776483,993.500009842217,816.4999999776483L654.500009842217,816.4999999776483"></path><path id="kity_path_528" fill="none" stroke="rgb(115, 161, 191)" stroke-width="1" d="M1023.500009842217,788.4999999776483C1008.500009842217,788.4999999776483,1008.500009842217,872.4999999776483,993.500009842217,872.4999999776483L787.500009842217,872.4999999776483"></path><path id="kity_path_536" fill="none" stroke="rgb(115, 161, 191)" stroke-width="1" d="M982.500009842217,1040.4999999776483C967.500009842217,1040.4999999776483,967.500009842217,984.4999999776483,952.500009842217,984.4999999776483L654.500009842217,984.4999999776483"></path><path id="kity_path_544" fill="none" stroke="rgb(115, 161, 191)" stroke-width="1" d="M982.500009842217,1040.4999999776483C967.500009842217,1040.4999999776483,967.500009842217,1096.4999999776483,952.500009842217,1096.4999999776483L453.50000984221697,1096.4999999776483"></path><path id="kity_path_552" fill="none" stroke="rgb(115, 161, 191)" stroke-width="1" d="M982.500009842217,1040.4999999776483C967.500009842217,1040.4999999776483,967.500009842217,1040.4999999776483,952.500009842217,1040.4999999776483L621.500009842217,1040.4999999776483"></path><path id="kity_path_560" fill="none" stroke="rgb(115, 161, 191)" stroke-width="1" d="M982.500009842217,1040.4999999776483C967.500009842217,1040.4999999776483,967.500009842217,1152.4999999776483,952.500009842217,1152.4999999776483L856.500009842217,1152.4999999776483"></path><path id="kity_path_568" fill="none" stroke="rgb(115, 161, 191)" stroke-width="1" d="M1586.500009842217,1224.4999999776483A206,487,0,0,1,1380.500009842217,1711.4999999776483"></path><path id="kity_path_576" fill="none" stroke="rgb(115, 161, 191)" stroke-width="1" d="M1284.500009842217,1711.4999999776483C1269.500009842217,1711.4999999776483,1269.500009842217,1620.4999999776483,1254.500009842217,1620.4999999776483L502.50000984221697,1620.4999999776483"></path><path id="kity_path_584" fill="none" stroke="rgb(115, 161, 191)" stroke-width="1" d="M1284.500009842217,1711.4999999776483C1269.500009842217,1711.4999999776483,1269.500009842217,1834.4999999776483,1254.500009842217,1834.4999999776483L1024.500009842217,1834.4999999776483"></path></g><g id="minder_node1"><path id="node_outline1" fill="rgb(115, 161, 191)" stroke="rgb(115, 161, 191)" d="M1503.500009842217,1204.4999999776483h166a5,5,0,0,1,5,5v30a5,5,0,0,1,-5,5h-166a5,5,0,0,1,-5,-5v-30a5,5,0,0,1,5,-5z" stroke-width="3"></path><g id="node_text1" fill="white"><text id="kity_text_22" text-rendering="inherit" font-size="16" dy=".8em" y="1214.0999999418855" x="1522.500009842217">Spectral Analysis</text></g></g><g id="kity_g_14" display="none"><path id="kity_path_15" fill="rgba(0, 92, 153, 0.5)" stroke="none" d="M739.500009842217,1289.4999999776483h247v15h-247z"></path><path id="kity_path_16" fill="none" stroke="rgb(0, 76, 128)" d="M739.500009842217,1289.4999999776483L986.500009842217,1289.4999999776483" stroke-width="1"></path></g><g id="minder_node2"><g id="node_expander13" style="cursor: pointer;"><path id="kity_path_293" fill="white" stroke="gray" d="M1793.5000137910247,400.49998769909143A6,6,0,1,1,1781.5000137910247,400.49998769909143A6,6,0,1,1,1793.5000137910247,400.49998769909143"></path><path id="kity_path_294" fill="none" stroke="gray" d="M1783.0000137910247,400.49998769909143L1792.0000137910247,400.49998769909143"></path></g><path id="node_outline14" fill="rgb(238, 243, 246)" stroke="rgb(115, 161, 191)" d="M1797.500014193356,386.49998769909143h238a3,3,0,0,1,3,3v22a3,3,0,0,1,-3,3h-238a3,3,0,0,1,-3,-3v-22a3,3,0,0,1,3,-3z" stroke-width="1"></path><g id="node_text14" fill="black"><text id="kity_text_139" text-rendering="inherit" font-size="16" dy=".8em" y="390.09998766332865" x="1814.500014193356">Discrete Fourier Transform</text></g></g><g id="minder_node3"><g id="node_expander1" style="cursor: pointer;" display="none"><path id="kity_path_257" fill="white" stroke="gray" d="M2078.5000180378556,33.499982230365276A6,6,0,1,1,2066.5000180378556,33.499982230365276A6,6,0,1,1,2078.5000180378556,33.499982230365276"></path><path id="kity_path_258" fill="none" stroke="gray"></path></g><path id="node_outline2" fill="none" stroke="none" d="M2083.500018276274,20.499982230365276h235a5,5,0,0,1,5,5v16a5,5,0,0,1,-5,5h-235a5,5,0,0,1,-5,-5v-16a5,5,0,0,1,5,-5z" stroke-width="3"></path><g id="node_text2" fill="black"><text id="kity_text_115" text-rendering="inherit" font-size="16" dy=".8em" y="23.09998219460249" x="2088.500018276274">取样数据不断循环形成无限信号</text></g></g><g id="minder_node4"><g id="node_expander2" style="cursor: pointer;" display="none"><path id="kity_path_260" fill="white" stroke="gray" d="M2078.5000180378556,89.4999830648303A6,6,0,1,1,2066.5000180378556,89.4999830648303A6,6,0,1,1,2078.5000180378556,89.4999830648303"></path><path id="kity_path_261" fill="none" stroke="gray"></path></g><path id="node_outline3" fill="none" stroke="none" d="M2083.500018276274,76.4999830648303h387a5,5,0,0,1,5,5v16a5,5,0,0,1,-5,5h-387a5,5,0,0,1,-5,-5v-16a5,5,0,0,1,5,-5z" stroke-width="3"></path><g id="node_text3" fill="black"><text id="kity_text_117" text-rendering="inherit" font-size="16" dy=".8em" y="79.09998302906752" x="2088.500018276274">将时空域表示转化为两个频域表示的数组 (sin 和 cos)</text></g></g><g id="minder_node5"><g id="node_expander3" style="cursor: pointer;" display="none"><path id="kity_path_263" fill="white" stroke="gray" d="M2078.5000180378556,163.9999841749668A6,6,0,1,1,2066.5000180378556,163.9999841749668A6,6,0,1,1,2078.5000180378556,163.9999841749668"></path><path id="kity_path_264" fill="none" stroke="gray"></path></g><path id="node_outline4" fill="none" stroke="none" d="M2083.500018917024,132.4999844506383h210a5,5,0,0,1,5,5v53a5,5,0,0,1,-5,5h-210a5,5,0,0,1,-5,-5v-53a5,5,0,0,1,5,-5z" stroke-width="3"></path><g id="node_text4" fill="black"><text id="kity_text_119" text-rendering="inherit" font-size="16" dy=".8em" y="172.0999844148755" x="2131.500018917024">cosine sin 同理</text></g><image id="kity_image_198" xlink:href="https://kityminder-img.gz.bcebos.com/6a94d45cbfc67e63d5583ac5a40490cf0b2d1fac" x="2088.500018917024" y="137.4999844506383" width="200" height="32"></image></g><g id="minder_node6"><g id="node_expander4" style="cursor: pointer;" display="none"><path id="kity_path_266" fill="white" stroke="gray" d="M2078.5000180378556,257.4999855682254A6,6,0,1,1,2066.5000180378556,257.4999855682254A6,6,0,1,1,2078.5000180378556,257.4999855682254"></path><path id="kity_path_267" fill="none" stroke="gray"></path></g><path id="node_outline5" fill="none" stroke="none" d="M2083.500019274652,225.49998585134745h210a5,5,0,0,1,5,5v54a5,5,0,0,1,-5,5h-210a5,5,0,0,1,-5,-5v-54a5,5,0,0,1,5,-5z" stroke-width="3"></path><g id="node_text5" fill="black"><text id="kity_text_121" text-rendering="inherit" font-size="16" dy=".8em" y="266.09998581558466" x="2155.500019274652">合成结果</text></g><image id="kity_image_199" xlink:href="https://kityminder-img.gz.bcebos.com/50b68ed90bb87e832930b4377a9bd3433f108a88" x="2088.500019274652" y="230.49998585134745" width="200" height="33"></image></g><g id="minder_node7"><g id="node_expander7" style="cursor: pointer;"><path id="kity_path_275" fill="white" stroke="gray" d="M2078.5000180378556,480.49998889118433A6,6,0,1,1,2066.5000180378556,480.49998889118433A6,6,0,1,1,2078.5000180378556,480.49998889118433"></path><path id="kity_path_276" fill="none" stroke="gray" d="M2068.0000180378556,480.49998889118433L2077.0000180378556,480.49998889118433"></path></g><path id="node_outline8" fill="none" stroke="none" d="M2083.500018276274,467.49998889118433h75a5,5,0,0,1,5,5v16a5,5,0,0,1,-5,5h-75a5,5,0,0,1,-5,-5v-16a5,5,0,0,1,5,-5z" stroke-width="3"></path><g id="node_text8" fill="black"><text id="kity_text_127" text-rendering="inherit" font-size="16" dy=".8em" y="470.09998885542154" x="2088.500018276274">调整缩放</text></g></g><g id="minder_node8"><g id="node_expander5" style="cursor: pointer;" display="none"><path id="kity_path_269" fill="white" stroke="gray" d="M2203.500019900501,393.4999875947833A6,6,0,1,1,2191.500019900501,393.4999875947833A6,6,0,1,1,2203.500019900501,393.4999875947833"></path><path id="kity_path_270" fill="none" stroke="gray"></path></g><path id="node_outline6" fill="none" stroke="none" d="M2208.500020839274,320.499988488853h199a5,5,0,0,1,5,5v136a5,5,0,0,1,-5,5h-199a5,5,0,0,1,-5,-5v-136a5,5,0,0,1,5,-5z" stroke-width="3"></path><g id="node_text6" fill="black"><text id="kity_text_123" text-rendering="inherit" font-size="16" dy=".8em" y="443.0999884530902" x="2260.500020839274">除 0 和 N / 2</text></g><image id="kity_image_200" xlink:href="https://kityminder-img.gz.bcebos.com/8e880a4603bc6c4baad3b7fdcd4bce49a950fb3c" x="2213.500020839274" y="325.499988488853" width="189" height="115"></image></g><g id="minder_node9"><g id="node_expander6" style="cursor: pointer;" display="none"><path id="kity_path_272" fill="white" stroke="gray" d="M2203.500019900501,568.9999902099371A6,6,0,1,1,2191.500019900501,568.9999902099371A6,6,0,1,1,2203.500019900501,568.9999902099371"></path><path id="kity_path_273" fill="none" stroke="gray"></path></g><path id="node_outline7" fill="none" stroke="none" d="M2208.5000210776925,496.4999910965562h210a5,5,0,0,1,5,5v135a5,5,0,0,1,-5,5h-210a5,5,0,0,1,-5,-5v-135a5,5,0,0,1,5,-5z" stroke-width="3"></path><g id="node_text7" fill="black"><text id="kity_text_125" text-rendering="inherit" font-size="16" dy=".8em" y="618.0999910607934" x="2276.5000210776925">0 和 N / 2</text></g><image id="kity_image_201" xlink:href="https://kityminder-img.gz.bcebos.com/760980e4930490e91ca916ce4c6b7639b9bceeec" x="2213.5000210776925" y="501.4999910965562" width="200" height="114"></image></g><g id="minder_node10"><g id="node_expander12" style="cursor: pointer;"><path id="kity_path_290" fill="white" stroke="gray" d="M2078.5000180378556,767.4999931678176A6,6,0,1,1,2066.5000180378556,767.4999931678176A6,6,0,1,1,2078.5000180378556,767.4999931678176"></path><path id="kity_path_291" fill="none" stroke="gray" d="M2068.0000180378556,767.4999931678176L2077.0000180378556,767.4999931678176"></path></g><path id="node_outline13" fill="none" stroke="none" d="M2083.500018276274,754.4999931678176h122a5,5,0,0,1,5,5v16a5,5,0,0,1,-5,5h-122a5,5,0,0,1,-5,-5v-16a5,5,0,0,1,5,-5z" stroke-width="3"></path><g id="node_text13" fill="black"><text id="kity_text_137" text-rendering="inherit" font-size="16" dy=".8em" y="757.0999931320548" x="2088.500018276274">xs 和 xc 的计算</text></g></g><g id="minder_node11"><g id="node_expander10" style="cursor: pointer;"><path id="kity_path_284" fill="white" stroke="gray" d="M2250.5000206008554,739.4999927505851A6,6,0,1,1,2238.5000206008554,739.4999927505851A6,6,0,1,1,2250.5000206008554,739.4999927505851"></path><path id="kity_path_285" fill="none" stroke="gray" d="M2240.0000206008554,739.4999927505851L2249.0000206008554,739.4999927505851"></path></g><path id="node_outline11" fill="none" stroke="none" d="M2255.5000217035413,670.4999935850501h210a5,5,0,0,1,5,5v128a5,5,0,0,1,-5,5h-210a5,5,0,0,1,-5,-5v-128a5,5,0,0,1,5,-5z" stroke-width="3"></path><g id="node_text11" fill="black"><text id="kity_text_133" text-rendering="inherit" font-size="16" dy=".8em" y="785.0999935492873" x="2318.5000217035413">correlation</text></g><image id="kity_image_203" xlink:href="https://kityminder-img.gz.bcebos.com/4a1c72a95c2d8c079deafa38d1228f29cffb369f" x="2260.5000217035413" y="675.4999935850501" width="200" height="107"></image></g><g id="minder_node12"><g id="node_expander8" style="cursor: pointer;" display="none"><path id="kity_path_278" fill="white" stroke="gray" d="M2510.5000244751573,684.4999919310212A6,6,0,1,1,2498.5000244751573,684.4999919310212A6,6,0,1,1,2510.5000244751573,684.4999919310212"></path><path id="kity_path_279" fill="none" stroke="gray"></path></g><path id="node_outline9" fill="none" stroke="none" d="M2515.500024713576,671.4999919310212h126a5,5,0,0,1,5,5v16a5,5,0,0,1,-5,5h-126a5,5,0,0,1,-5,-5v-16a5,5,0,0,1,5,-5z" stroke-width="3"></path><g id="node_text9" fill="black"><text id="kity_text_129" text-rendering="inherit" font-size="16" dy=".8em" y="674.0999918952584" x="2520.500024713576">DC component</text></g></g><g id="minder_node13"><g id="node_expander9" style="cursor: pointer;" display="none"><path id="kity_path_281" fill="white" stroke="gray" d="M2510.5000244751573,767.4999931678176A6,6,0,1,1,2498.5000244751573,767.4999931678176A6,6,0,1,1,2510.5000244751573,767.4999931678176"></path><path id="kity_path_282" fill="none" stroke="gray"></path></g><path id="node_outline10" fill="none" stroke="none" d="M2515.500024907291,727.499993570149h174a5,5,0,0,1,5,5v70a5,5,0,0,1,-5,5h-174a5,5,0,0,1,-5,-5v-70a5,5,0,0,1,5,-5z" stroke-width="3"></path><g id="node_text10" fill="black"><text id="kity_text_131" text-rendering="inherit" font-size="16" dy=".8em" y="784.0999935343862" x="2533.500024907291">sin[0]=sin[\pi i]=0</text></g><image id="kity_image_202" xlink:href="https://kityminder-img.gz.bcebos.com/0b6be0ffd4d644705cb63a9e99e07660432cd862" x="2520.500024907291" y="732.499993570149" width="164" height="49"></image></g><g id="minder_node14"><g id="node_expander11" style="cursor: pointer;" display="none"><path id="kity_path_287" fill="white" stroke="gray" d="M2250.5000206008554,851.4999944195151A6,6,0,1,1,2238.5000206008554,851.4999944195151A6,6,0,1,1,2250.5000206008554,851.4999944195151"></path><path id="kity_path_288" fill="none" stroke="gray"></path></g><path id="node_outline12" fill="none" stroke="none" d="M2255.500020839274,838.4999944195151h252a5,5,0,0,1,5,5v16a5,5,0,0,1,-5,5h-252a5,5,0,0,1,-5,-5v-16a5,5,0,0,1,5,-5z" stroke-width="3"></path><g id="node_text12" fill="black"><text id="kity_text_135" text-rendering="inherit" font-size="16" dy=".8em" y="841.0999943837523" x="2260.500020839274">不同频率的 sine, cosine 彼此独立</text></g></g><g id="minder_node15"><g id="node_expander34" style="cursor: pointer;"><path id="kity_path_356" fill="white" stroke="gray" d="M1793.5000137910247,1290.500000961125A6,6,0,1,1,1781.5000137910247,1290.500000961125A6,6,0,1,1,1793.5000137910247,1290.500000961125"></path><path id="kity_path_357" fill="none" stroke="gray" d="M1783.0000137910247,1290.500000961125L1792.0000137910247,1290.500000961125"></path></g><path id="node_outline35" fill="rgb(238, 243, 246)" stroke="rgb(115, 161, 191)" d="M1797.500014193356,1276.500000961125h146a3,3,0,0,1,3,3v22a3,3,0,0,1,-3,3h-146a3,3,0,0,1,-3,-3v-22a3,3,0,0,1,3,-3z" stroke-width="1"></path><g id="node_text35" fill="black"><text id="kity_text_181" text-rendering="inherit" font-size="16" dy=".8em" y="1280.100000925362" x="1814.500014193356">Polar Notation</text></g></g><g id="minder_node16"><g id="node_expander20" style="cursor: pointer;"><path id="kity_path_314" fill="white" stroke="gray" d="M1986.5000166669488,984.4999964013696A6,6,0,1,1,1974.5000166669488,984.4999964013696A6,6,0,1,1,1986.5000166669488,984.4999964013696"></path><path id="kity_path_315" fill="none" stroke="gray" d="M1976.0000166669488,984.4999964013696L1985.0000166669488,984.4999964013696"></path></g><path id="node_outline21" fill="none" stroke="none" d="M1991.5000169053674,971.4999964013696h227a5,5,0,0,1,5,5v16a5,5,0,0,1,-5,5h-227a5,5,0,0,1,-5,-5v-16a5,5,0,0,1,5,-5z" stroke-width="3"></path><g id="node_text21" fill="black"><text id="kity_text_153" text-rendering="inherit" font-size="16" dy=".8em" y="974.0999963656068" x="1996.5000169053674">represent frequency domain</text></g></g><g id="minder_node17"><g id="node_expander15" style="cursor: pointer;"><path id="kity_path_299" fill="white" stroke="gray" d="M2263.5000207945704,916.4999953880906A6,6,0,1,1,2251.5000207945704,916.4999953880906A6,6,0,1,1,2263.5000207945704,916.4999953880906"></path><path id="kity_path_300" fill="none" stroke="gray" d="M2253.0000207945704,916.4999953880906L2262.0000207945704,916.4999953880906"></path></g><path id="node_outline16" fill="none" stroke="none" d="M2268.500021032989,903.4999953880906h214a5,5,0,0,1,5,5v16a5,5,0,0,1,-5,5h-214a5,5,0,0,1,-5,-5v-16a5,5,0,0,1,5,-5z" stroke-width="3"></path><g id="node_text16" fill="black"><text id="kity_text_143" text-rendering="inherit" font-size="16" dy=".8em" y="906.0999953523278" x="2273.500021032989">rectangular representation</text></g></g><g id="minder_node18"><g id="node_expander14" style="cursor: pointer;" display="none"><path id="kity_path_296" fill="white" stroke="gray" d="M2527.500024728477,916.4999953880906A6,6,0,1,1,2515.500024728477,916.4999953880906A6,6,0,1,1,2527.500024728477,916.4999953880906"></path><path id="kity_path_297" fill="none" stroke="gray"></path></g><path id="node_outline15" fill="none" stroke="none" d="M2532.5000249668956,903.4999953880906h350a5,5,0,0,1,5,5v16a5,5,0,0,1,-5,5h-350a5,5,0,0,1,-5,-5v-16a5,5,0,0,1,5,-5z" stroke-width="3"></path><g id="node_text15" fill="black"><text id="kity_text_141" text-rendering="inherit" font-size="16" dy=".8em" y="906.0999953523278" x="2537.5000249668956">difficult to really understand anything useful</text></g></g><g id="minder_node19"><g id="node_expander19" style="cursor: pointer;"><path id="kity_path_311" fill="white" stroke="gray" d="M2263.5000207945704,1052.4999974146485A6,6,0,1,1,2251.5000207945704,1052.4999974146485A6,6,0,1,1,2263.5000207945704,1052.4999974146485"></path><path id="kity_path_312" fill="none" stroke="gray" d="M2253.0000207945704,1052.4999974146485L2262.0000207945704,1052.4999974146485"></path></g><path id="node_outline20" fill="none" stroke="none" d="M2268.500021032989,1039.4999974146485h166a5,5,0,0,1,5,5v16a5,5,0,0,1,-5,5h-166a5,5,0,0,1,-5,-5v-16a5,5,0,0,1,5,-5z" stroke-width="3"></path><g id="node_text20" fill="black"><text id="kity_text_151" text-rendering="inherit" font-size="16" dy=".8em" y="1042.0999973788857" x="2273.500021032989">polar representation</text></g></g><g id="minder_node20"><g id="node_expander16" style="cursor: pointer;" display="none"><path id="kity_path_302" fill="white" stroke="gray" d="M2479.5000240132213,984.9999964088202A6,6,0,1,1,2467.5000240132213,984.9999964088202A6,6,0,1,1,2479.5000240132213,984.9999964088202"></path><path id="kity_path_303" fill="none" stroke="gray"></path></g><path id="node_outline17" fill="none" stroke="none" d="M2484.50002425164,959.4999965950847h222a5,5,0,0,1,5,5v41a5,5,0,0,1,-5,5h-222a5,5,0,0,1,-5,-5v-41a5,5,0,0,1,5,-5z" stroke-width="3"></path><g id="node_text17" fill="black"><text id="kity_text_145" text-rendering="inherit" font-size="16" dy=".8em" y="987.0999965593219" x="2489.50002425164">相同频率 sine 和 cosine 组合</text></g><image id="kity_image_204" xlink:href="https://kityminder-img.gz.bcebos.com/4d24ebb89423593dfbdcfa7135a2b105ff266b29" x="2495.50002425164" y="964.4999965950847" width="200" height="20"></image></g><g id="minder_node21"><g id="node_expander17" style="cursor: pointer;" display="none"><path id="kity_path_305" fill="white" stroke="gray" d="M2479.5000240132213,1064.999997600913A6,6,0,1,1,2467.5000240132213,1064.999997600913A6,6,0,1,1,2479.5000240132213,1064.999997600913"></path><path id="kity_path_306" fill="none" stroke="gray"></path></g><path id="node_outline18" fill="none" stroke="none" d="M2484.50002489239,1040.4999977722764h210a5,5,0,0,1,5,5v39a5,5,0,0,1,-5,5h-210a5,5,0,0,1,-5,-5v-39a5,5,0,0,1,5,-5z" stroke-width="3"></path><g id="node_text18" fill="black"><text id="kity_text_147" text-rendering="inherit" font-size="16" dy=".8em" y="1066.0999977365136" x="2532.50002489239">频率和相位计算</text></g><image id="kity_image_205" xlink:href="https://kityminder-img.gz.bcebos.com/9b2b34cb72ccb4b25e8f7913d1bce332b7839bb8" x="2489.50002489239" y="1045.4999977722764" width="200" height="18"></image></g><g id="minder_node22"><g id="node_expander18" style="cursor: pointer;" display="none"><path id="kity_path_308" fill="white" stroke="gray" d="M2479.5000240132213,1132.4999986067414A6,6,0,1,1,2467.5000240132213,1132.4999986067414A6,6,0,1,1,2479.5000240132213,1132.4999986067414"></path><path id="kity_path_309" fill="none" stroke="gray"></path></g><path id="node_outline19" fill="none" stroke="none" d="M2484.50002425164,1119.4999986067414h327a5,5,0,0,1,5,5v16a5,5,0,0,1,-5,5h-327a5,5,0,0,1,-5,-5v-16a5,5,0,0,1,5,-5z" stroke-width="3"></path><g id="node_text19" fill="black"><text id="kity_text_149" text-rendering="inherit" font-size="16" dy=".8em" y="1122.0999985709786" x="2489.50002425164">xc 的值可能为0 ; unwrapping of the phase</text></g></g><g id="minder_node23"><g id="node_expander24" style="cursor: pointer;"><path id="kity_path_326" fill="white" stroke="gray" d="M1986.5000166669488,1286.5000009015203A6,6,0,1,1,1974.5000166669488,1286.5000009015203A6,6,0,1,1,1986.5000166669488,1286.5000009015203"></path><path id="kity_path_327" fill="none" stroke="gray" d="M1976.0000166669488,1286.5000009015203L1985.0000166669488,1286.5000009015203"></path></g><path id="node_outline25" fill="none" stroke="none" d="M1991.5000169053674,1273.5000009015203h144a5,5,0,0,1,5,5v16a5,5,0,0,1,-5,5h-144a5,5,0,0,1,-5,-5v-16a5,5,0,0,1,5,-5z" stroke-width="3"></path><g id="node_text25" fill="black"><text id="kity_text_161" text-rendering="inherit" font-size="16" dy=".8em" y="1276.1000008657575" x="1996.5000169053674">Properties of DFT</text></g></g><g id="minder_node24"><g id="node_expander21" style="cursor: pointer;" display="none"><path id="kity_path_317" fill="white" stroke="gray" d="M2180.500019557774,1201.4999996349216A6,6,0,1,1,2168.500019557774,1201.4999996349216A6,6,0,1,1,2180.500019557774,1201.4999996349216"></path><path id="kity_path_318" fill="none" stroke="gray"></path></g><path id="node_outline22" fill="none" stroke="none" d="M2185.5000201538205,1176.4999998137355h210a5,5,0,0,1,5,5v40a5,5,0,0,1,-5,5h-210a5,5,0,0,1,-5,-5v-40a5,5,0,0,1,5,-5z" stroke-width="3"></path><g id="node_text22" fill="black"><text id="kity_text_155" text-rendering="inherit" font-size="16" dy=".8em" y="1203.0999997779727" x="2214.5000201538205">Homogeneity : 齐次</text></g><image id="kity_image_206" xlink:href="https://kityminder-img.gz.bcebos.com/80747fd696663de6fbd86868ebf6c9ff3063a558" x="2190.5000201538205" y="1181.4999998137355" width="200" height="19"></image></g><g id="minder_node25"><g id="node_expander22" style="cursor: pointer;" display="none"><path id="kity_path_320" fill="white" stroke="gray" d="M2180.500019557774,1288.5000009313226A6,6,0,1,1,2168.500019557774,1288.5000009313226A6,6,0,1,1,2180.500019557774,1288.5000009313226"></path><path id="kity_path_321" fill="none" stroke="gray"></path></g><path id="node_outline23" fill="none" stroke="none" d="M2185.5000202581286,1256.5000012144446h210a5,5,0,0,1,5,5v54a5,5,0,0,1,-5,5h-210a5,5,0,0,1,-5,-5v-54a5,5,0,0,1,5,-5z" stroke-width="3"></path><g id="node_text23" fill="black"><text id="kity_text_157" text-rendering="inherit" font-size="16" dy=".8em" y="1297.1000011786819" x="2221.5000202581286">Additivity : 可加性</text></g><image id="kity_image_207" xlink:href="https://kityminder-img.gz.bcebos.com/f83c72f75955f7632d2145ddabba8e9500dfd52e" x="2190.5000202581286" y="1261.5000012144446" width="200" height="33"></image></g><g id="minder_node26"><g id="node_expander23" style="cursor: pointer;" display="none"><path id="kity_path_323" fill="white" stroke="gray" d="M2180.500019557774,1374.0000022053719A6,6,0,1,1,2168.500019557774,1374.0000022053719A6,6,0,1,1,2180.500019557774,1374.0000022053719"></path><path id="kity_path_324" fill="none" stroke="gray"></path></g><path id="node_outline24" fill="none" stroke="none" d="M2185.50002027303,1350.500002361834h210a5,5,0,0,1,5,5v37a5,5,0,0,1,-5,5h-210a5,5,0,0,1,-5,-5v-37a5,5,0,0,1,5,-5z" stroke-width="3"></path><g id="node_text24" fill="black"><text id="kity_text_159" text-rendering="inherit" font-size="16" dy=".8em" y="1374.1000023260713" x="2222.50002027303">Linear Phase Shift</text></g><image id="kity_image_208" xlink:href="https://kityminder-img.gz.bcebos.com/5e585415713dd3d69429bb96bd502148d2db1bcb" x="2190.50002027303" y="1355.500002361834" width="200" height="16"></image></g><g id="minder_node27"><g id="node_expander33" style="cursor: pointer;"><path id="kity_path_353" fill="white" stroke="gray" d="M1986.5000166669488,1596.5000055208802A6,6,0,1,1,1974.5000166669488,1596.5000055208802A6,6,0,1,1,1986.5000166669488,1596.5000055208802"></path><path id="kity_path_354" fill="none" stroke="gray" d="M1976.0000166669488,1596.5000055208802L1985.0000166669488,1596.5000055208802"></path></g><path id="node_outline34" fill="none" stroke="none" d="M1991.5000169053674,1583.5000055208802h121a5,5,0,0,1,5,5v16a5,5,0,0,1,-5,5h-121a5,5,0,0,1,-5,-5v-16a5,5,0,0,1,5,-5z" stroke-width="3"></path><g id="node_text34" fill="black"><text id="kity_text_179" text-rendering="inherit" font-size="16" dy=".8em" y="1586.1000054851174" x="1996.5000169053674">Signal analysis</text></g></g><g id="minder_node28"><g id="node_expander27" style="cursor: pointer;"><path id="kity_path_335" fill="white" stroke="gray" d="M2157.5000192150474,1467.5000035986304A6,6,0,1,1,2145.5000192150474,1467.5000035986304A6,6,0,1,1,2157.5000192150474,1467.5000035986304"></path><path id="kity_path_336" fill="none" stroke="gray" d="M2147.0000192150474,1467.5000035986304L2156.0000192150474,1467.5000035986304"></path></g><path id="node_outline28" fill="none" stroke="none" d="M2162.500019453466,1454.5000035986304h226a5,5,0,0,1,5,5v16a5,5,0,0,1,-5,5h-226a5,5,0,0,1,-5,-5v-16a5,5,0,0,1,5,-5z" stroke-width="3"></path><g id="node_text28" fill="black"><text id="kity_text_167" text-rendering="inherit" font-size="16" dy=".8em" y="1457.1000035628676" x="2167.500019453466">complex conjugate 复合共轭</text></g></g><g id="minder_node29"><g id="node_expander25" style="cursor: pointer;" display="none"><path id="kity_path_329" fill="white" stroke="gray" d="M2433.500023327768,1439.500003181398A6,6,0,1,1,2421.500023327768,1439.500003181398A6,6,0,1,1,2433.500023327768,1439.500003181398"></path><path id="kity_path_330" fill="none" stroke="gray"></path></g><path id="node_outline26" fill="none" stroke="none" d="M2438.5000235661864,1426.500003181398h124a5,5,0,0,1,5,5v16a5,5,0,0,1,-5,5h-124a5,5,0,0,1,-5,-5v-16a5,5,0,0,1,5,-5z" stroke-width="3"></path><g id="node_text26" fill="black"><text id="kity_text_163" text-rendering="inherit" font-size="16" dy=".8em" y="1429.1000031456351" x="2443.5000235661864">x 的复合共轭 x*</text></g></g><g id="minder_node30"><g id="node_expander26" style="cursor: pointer;" display="none"><path id="kity_path_332" fill="white" stroke="gray" d="M2433.500023327768,1495.500004015863A6,6,0,1,1,2421.500023327768,1495.500004015863A6,6,0,1,1,2433.500023327768,1495.500004015863"></path><path id="kity_path_333" fill="none" stroke="gray"></path></g><path id="node_outline27" fill="none" stroke="none" d="M2438.5000235661864,1482.500004015863h313a5,5,0,0,1,5,5v16a5,5,0,0,1,-5,5h-313a5,5,0,0,1,-5,-5v-16a5,5,0,0,1,5,-5z" stroke-width="3"></path><g id="node_text27" fill="black"><text id="kity_text_165" text-rendering="inherit" font-size="16" dy=".8em" y="1485.1000039801002" x="2443.5000235661864">symmetric signal always has zero phase</text></g></g><g id="minder_node31"><g id="node_expander32" style="cursor: pointer;"><path id="kity_path_350" fill="white" stroke="gray" d="M2157.5000192150474,1725.50000744313A6,6,0,1,1,2145.5000192150474,1725.50000744313A6,6,0,1,1,2157.5000192150474,1725.50000744313"></path><path id="kity_path_351" fill="none" stroke="gray" d="M2147.0000192150474,1725.50000744313L2156.0000192150474,1725.50000744313"></path></g><path id="node_outline33" fill="none" stroke="none" d="M2162.500019453466,1712.50000744313h181a5,5,0,0,1,5,5v16a5,5,0,0,1,-5,5h-181a5,5,0,0,1,-5,-5v-16a5,5,0,0,1,5,-5z" stroke-width="3"></path><g id="node_text33" fill="black"><text id="kity_text_177" text-rendering="inherit" font-size="16" dy=".8em" y="1715.1000074073672" x="2167.500019453466">amplitude modulation</text></g></g><g id="minder_node32"><g id="node_expander28" style="cursor: pointer;" display="none"><path id="kity_path_338" fill="white" stroke="gray" d="M2388.5000226572156,1552.5000048652291A6,6,0,1,1,2376.5000226572156,1552.5000048652291A6,6,0,1,1,2388.5000226572156,1552.5000048652291"></path><path id="kity_path_339" fill="none" stroke="gray"></path></g><path id="node_outline29" fill="none" stroke="none" d="M2393.500022895634,1539.5000048652291h135a5,5,0,0,1,5,5v16a5,5,0,0,1,-5,5h-135a5,5,0,0,1,-5,-5v-16a5,5,0,0,1,5,-5z" stroke-width="3"></path><g id="node_text29" fill="black"><text id="kity_text_169" text-rendering="inherit" font-size="16" dy=".8em" y="1542.1000048294663" x="2398.500022895634">bandlinited by b</text></g></g><g id="minder_node33"><g id="node_expander29" style="cursor: pointer;" display="none"><path id="kity_path_341" fill="white" stroke="gray" d="M2388.5000226572156,1608.5000056996942A6,6,0,1,1,2376.5000226572156,1608.5000056996942A6,6,0,1,1,2388.5000226572156,1608.5000056996942"></path><path id="kity_path_342" fill="none" stroke="gray"></path></g><path id="node_outline30" fill="none" stroke="none" d="M2393.500022895634,1595.5000056996942h258a5,5,0,0,1,5,5v16a5,5,0,0,1,-5,5h-258a5,5,0,0,1,-5,-5v-16a5,5,0,0,1,5,-5z" stroke-width="3"></path><g id="node_text30" fill="black"><text id="kity_text_171" text-rendering="inherit" font-size="16" dy=".8em" y="1598.1000056639314" x="2398.500022895634">carrier wave , carrier frequency c</text></g></g><g id="minder_node34"><g id="node_expander30" style="cursor: pointer;" display="none"><path id="kity_path_344" fill="white" stroke="gray" d="M2388.5000226572156,1664.5000065341592A6,6,0,1,1,2376.5000226572156,1664.5000065341592A6,6,0,1,1,2388.5000226572156,1664.5000065341592"></path><path id="kity_path_345" fill="none" stroke="gray"></path></g><path id="node_outline31" fill="none" stroke="none" d="M2393.500022895634,1651.5000065341592h95a5,5,0,0,1,5,5v16a5,5,0,0,1,-5,5h-95a5,5,0,0,1,-5,-5v-16a5,5,0,0,1,5,-5z" stroke-width="3"></path><g id="node_text31" fill="black"><text id="kity_text_173" text-rendering="inherit" font-size="16" dy=".8em" y="1654.1000064983964" x="2398.500022895634">notch filter</text></g></g><g id="minder_node35"><g id="node_expander31" style="cursor: pointer;" display="none"><path id="kity_path_347" fill="white" stroke="gray" d="M2388.5000226572156,1810.0000087022781A6,6,0,1,1,2376.5000226572156,1810.0000087022781A6,6,0,1,1,2388.5000226572156,1810.0000087022781"></path><path id="kity_path_348" fill="none" stroke="gray"></path></g><path id="node_outline32" fill="none" stroke="none" d="M2393.5000241324306,1707.500010035932h210a5,5,0,0,1,5,5v195a5,5,0,0,1,-5,5h-210a5,5,0,0,1,-5,-5v-195a5,5,0,0,1,5,-5z" stroke-width="3"></path><g id="node_text32" fill="black"><text id="kity_text_175" text-rendering="inherit" font-size="16" dy=".8em" y="1889.1000100001693" x="2481.5000241324306">过程</text></g><image id="kity_image_209" xlink:href="https://kityminder-img.gz.bcebos.com/cc0829df85fbe873579067d5223c9a5a1aae4f85" x="2398.5000241324306" y="1712.500010035932" width="200" height="174"></image></g><g id="minder_node36"><g id="node_expander39" style="cursor: pointer;"><path id="kity_path_371" fill="white" stroke="gray" d="M1793.5000137910247,2049.5000122711062A6,6,0,1,1,1781.5000137910247,2049.5000122711062A6,6,0,1,1,1793.5000137910247,2049.5000122711062"></path><path id="kity_path_372" fill="none" stroke="gray" d="M1783.0000137910247,2049.5000122711062L1792.0000137910247,2049.5000122711062"></path></g><path id="node_outline40" fill="rgb(238, 243, 246)" stroke="rgb(115, 161, 191)" d="M1797.500014193356,2035.5000122711062h284a3,3,0,0,1,3,3v22a3,3,0,0,1,-3,3h-284a3,3,0,0,1,-3,-3v-22a3,3,0,0,1,3,-3z" stroke-width="1"></path><g id="node_text40" fill="black"><text id="kity_text_191" text-rendering="inherit" font-size="16" dy=".8em" y="2039.1000122353435" x="1814.500014193356">Periodicity of Frequency Domain</text></g></g><g id="minder_node37"><g id="node_expander36" style="cursor: pointer;"><path id="kity_path_362" fill="white" stroke="gray" d="M2124.500018723309,1990.0000113844872A6,6,0,1,1,2112.500018723309,1990.0000113844872A6,6,0,1,1,2124.500018723309,1990.0000113844872"></path><path id="kity_path_363" fill="none" stroke="gray" d="M2114.000018723309,1990.0000113844872L2123.000018723309,1990.0000113844872"></path></g><path id="node_outline37" fill="none" stroke="none" d="M2129.500019900501,1968.500011511147h210a5,5,0,0,1,5,5v33a5,5,0,0,1,-5,5h-210a5,5,0,0,1,-5,-5v-33a5,5,0,0,1,5,-5z" stroke-width="3"></path><g id="node_text37" fill="black"><text id="kity_text_185" text-rendering="inherit" font-size="16" dy=".8em" y="1988.1000114753842" x="2197.500019900501">与y轴对称</text></g><image id="kity_image_211" xlink:href="https://kityminder-img.gz.bcebos.com/130994d1004d3e78ed4b23e5c58b9b66604da81f" x="2134.500019900501" y="1973.500011511147" width="200" height="12"></image></g><g id="minder_node38"><g id="node_expander35" style="cursor: pointer;" display="none"><path id="kity_path_359" fill="white" stroke="gray" d="M2384.500022597611,1990.0000113844872A6,6,0,1,1,2372.500022597611,1990.0000113844872A6,6,0,1,1,2384.500022597611,1990.0000113844872"></path><path id="kity_path_360" fill="none" stroke="gray"></path></g><path id="node_outline36" fill="none" stroke="none" d="M2389.500023730099,1952.5000117495656h181a5,5,0,0,1,5,5v65a5,5,0,0,1,-5,5h-181a5,5,0,0,1,-5,-5v-65a5,5,0,0,1,5,-5z" stroke-width="3"></path><g id="node_text36" fill="black"><text id="kity_text_183" text-rendering="inherit" font-size="16" dy=".8em" y="2004.1000117138028" x="2454.500023730099">对幅值 </text></g><image id="kity_image_210" xlink:href="https://kityminder-img.gz.bcebos.com/120f00959aa486c2fae284edd217fbd10807832f" x="2394.500023730099" y="1957.5000117495656" width="171" height="44"></image></g><g id="minder_node39" opacity="1"><g id="node_expander38" style="cursor: pointer;"><path id="kity_path_368" fill="white" stroke="gray" d="M2124.500018723309,2097.0000129789114A6,6,0,1,1,2112.500018723309,2097.0000129789114A6,6,0,1,1,2124.500018723309,2097.0000129789114"></path><path id="kity_path_369" fill="none" stroke="gray" d="M2114.000018723309,2097.0000129789114L2123.000018723309,2097.0000129789114"></path></g><path id="node_outline39" fill="none" stroke="none" d="M2129.500019840896,2063.500013284385h210a5,5,0,0,1,5,5v57a5,5,0,0,1,-5,5h-210a5,5,0,0,1,-5,-5v-57a5,5,0,0,1,5,-5z" stroke-width="3"></path><g id="node_text39" fill="black"><text id="kity_text_189" text-rendering="inherit" font-size="16" dy=".8em" y="2107.1000132486224" x="2193.500019840896">与原点对称</text></g><image id="kity_image_213" xlink:href="https://kityminder-img.gz.bcebos.com/d8906c72af36c4ed1fa335c84e7fc0c20019ddb4" x="2134.500019840896" y="2068.500013284385" width="200" height="36"></image></g><g id="minder_node41"><g id="node_expander42" style="cursor: pointer;"><path id="kity_path_380" fill="white" stroke="gray" d="M1391.5000078007579,737.4999927207828A6,6,0,1,1,1379.5000078007579,737.4999927207828A6,6,0,1,1,1391.5000078007579,737.4999927207828"></path><path id="kity_path_381" fill="none" stroke="gray" d="M1381.0000078007579,737.4999927207828L1390.0000078007579,737.4999927207828"></path></g><path id="node_outline43" fill="rgb(238, 243, 246)" stroke="rgb(115, 161, 191)" d="M1280.5000064894557,723.4999927207828h95a3,3,0,0,1,3,3v22a3,3,0,0,1,-3,3h-95a3,3,0,0,1,-3,-3v-22a3,3,0,0,1,3,-3z" stroke-width="1"></path><g id="node_text43" fill="black"><text id="kity_text_197" text-rendering="inherit" font-size="16" dy=".8em" y="727.09999268502" x="1297.5000064894557">Aliasing</text></g></g><g id="minder_node42"><g id="node_expander40" style="cursor: pointer;" display="none"><path id="kity_path_374" fill="white" stroke="gray" d="M1249.500005684793,576.4999903216958A6,6,0,1,1,1237.500005684793,576.4999903216958A6,6,0,1,1,1249.500005684793,576.4999903216958"></path><path id="kity_path_375" fill="none" stroke="gray"></path></g><path id="node_outline41" fill="none" stroke="none" d="M626.4999965652823,563.4999903216958h606a5,5,0,0,1,5,5v16a5,5,0,0,1,-5,5h-606a5,5,0,0,1,-5,-5v-16a5,5,0,0,1,5,-5z" stroke-width="3"></path><g id="node_text41" fill="black"><text id="kity_text_193" text-rendering="inherit" font-size="16" dy=".8em" y="566.099990285933" x="631.4999965652823">对 100 个样本及 25 个样本的数据卷积，用时域和频域结果不同，原因是取样不充分</text></g></g><g id="minder_node43"><g id="node_expander41" style="cursor: pointer;" display="none"><path id="kity_path_377" fill="white" stroke="gray" d="M1249.500005684793,632.4999911561608A6,6,0,1,1,1237.500005684793,632.4999911561608A6,6,0,1,1,1249.500005684793,632.4999911561608"></path><path id="kity_path_378" fill="none" stroke="gray"></path></g><path id="node_outline42" fill="none" stroke="none" d="M880.5000003501773,619.4999911561608h352a5,5,0,0,1,5,5v16a5,5,0,0,1,-5,5h-352a5,5,0,0,1,-5,-5v-16a5,5,0,0,1,5,-5z" stroke-width="3"></path><g id="node_text42" fill="black"><text id="kity_text_195" text-rendering="inherit" font-size="16" dy=".8em" y="622.099991120398" x="885.5000003501773">需要对两个数据进行 padding，使取样频率充分</text></g></g><g id="minder_node44"><g id="node_expander43" style="cursor: pointer;"><path id="kity_path_388" fill="white" stroke="gray" d="M1391.5000078007579,1370.5000021532178A6,6,0,1,1,1379.5000078007579,1370.5000021532178A6,6,0,1,1,1391.5000078007579,1370.5000021532178"></path><path id="kity_path_389" fill="none" stroke="gray" d="M1381.0000078007579,1370.5000021532178L1390.0000078007579,1370.5000021532178"></path></g><path id="node_outline44" fill="rgb(238, 243, 246)" stroke="rgb(115, 161, 191)" d="M1104.5000038668513,1356.5000021532178h271a3,3,0,0,1,3,3v22a3,3,0,0,1,-3,3h-271a3,3,0,0,1,-3,-3v-22a3,3,0,0,1,3,-3z" stroke-width="1"></path><g id="node_text44" fill="black"><text id="kity_text_385" text-rendering="inherit" font-size="16" dy=".8em" y="1360.100002117455" x="1121.5000038668513">Extension for 2D Interpretation</text></g></g><g id="minder_node45"><g id="node_expander44" style="cursor: pointer;" display="none"><path id="kity_path_396" fill="white" stroke="gray" d="M1073.5000030621886,1202.4999996498227A6,6,0,1,1,1061.5000030621886,1202.4999996498227A6,6,0,1,1,1073.5000030621886,1202.4999996498227"></path><path id="kity_path_397" fill="none" stroke="gray"></path></g><path id="node_outline45" fill="none" stroke="none" d="M497.49999464303255,1189.4999996498227h559a5,5,0,0,1,5,5v16a5,5,0,0,1,-5,5h-559a5,5,0,0,1,-5,-5v-16a5,5,0,0,1,5,-5z" stroke-width="3"></path><g id="node_text45" fill="black"><text id="kity_text_393" text-rendering="inherit" font-size="16" dy=".8em" y="1192.09999961406" x="502.49999464303255">zero frequency (or DC component) is at the bottom center of the image</text></g></g><g id="minder_node46"><g id="node_expander45" style="cursor: pointer;" display="none"><path id="kity_path_404" fill="white" stroke="gray" d="M1073.5000030621886,1258.5000004842877A6,6,0,1,1,1061.5000030621886,1258.5000004842877A6,6,0,1,1,1073.5000030621886,1258.5000004842877"></path><path id="kity_path_405" fill="none" stroke="gray"></path></g><path id="node_outline46" fill="none" stroke="none" d="M616.4999964162707,1245.5000004842877h440a5,5,0,0,1,5,5v16a5,5,0,0,1,-5,5h-440a5,5,0,0,1,-5,-5v-16a5,5,0,0,1,5,-5z" stroke-width="3"></path><g id="node_text46" fill="black"><text id="kity_text_401" text-rendering="inherit" font-size="16" dy=".8em" y="1248.100000448525" x="621.4999964162707">The orientation of the cosine wave can be from 0 to 180</text></g></g><g id="minder_node40"><g id="node_expander37" style="cursor: pointer;" display="none"><path id="kity_path_365" fill="white" stroke="gray" d="M2384.500022597611,2097.0000129789114A6,6,0,1,1,2372.500022597611,2097.0000129789114A6,6,0,1,1,2384.500022597611,2097.0000129789114"></path><path id="kity_path_366" fill="none" stroke="gray"></path></g><path id="node_outline38" fill="none" stroke="none" d="M2389.500023730099,2057.500013373792h180a5,5,0,0,1,5,5v69a5,5,0,0,1,-5,5h-180a5,5,0,0,1,-5,-5v-69a5,5,0,0,1,5,-5z" stroke-width="3"></path><g id="node_text38" fill="black"><text id="kity_text_187" text-rendering="inherit" font-size="16" dy=".8em" y="2113.1000133380294" x="2454.500023730099">对相位</text></g><image id="kity_image_212" xlink:href="https://kityminder-img.gz.bcebos.com/cc698bab4a572e8528306ca2532daf52d8eb707e" x="2394.500023730099" y="2062.500013373792" width="170" height="48"></image></g><g id="minder_node47"><g id="node_expander46" style="cursor: pointer;" display="none"><path id="kity_path_413" fill="white" stroke="gray" d="M1073.5000030621886,1314.5000013187528A6,6,0,1,1,1061.5000030621886,1314.5000013187528A6,6,0,1,1,1073.5000030621886,1314.5000013187528"></path><path id="kity_path_414" fill="none" stroke="gray"></path></g><path id="node_outline47" fill="none" stroke="none" d="M24.499987594783306,1301.5000013187528h1032a5,5,0,0,1,5,5v16a5,5,0,0,1,-5,5h-1032a5,5,0,0,1,-5,-5v-16a5,5,0,0,1,5,-5z" stroke-width="3"></path><g id="node_text47" fill="black"><text id="kity_text_410" text-rendering="inherit" font-size="16" dy=".8em" y="1304.10000128299" x="29.499987594783306">high gray values are at lower radius from the center denoting concentration of the most the energy of the signal at lower frequencies</text></g></g><g id="minder_node48"><g id="node_expander47" style="cursor: pointer;" display="none"><path id="kity_path_421" fill="white" stroke="gray" d="M1073.5000030621886,1370.5000021532178A6,6,0,1,1,1061.5000030621886,1370.5000021532178A6,6,0,1,1,1073.5000030621886,1370.5000021532178"></path><path id="kity_path_422" fill="none" stroke="gray"></path></g><path id="node_outline48" fill="none" stroke="none" d="M567.4999956861138,1357.5000021532178h489a5,5,0,0,1,5,5v16a5,5,0,0,1,-5,5h-489a5,5,0,0,1,-5,-5v-16a5,5,0,0,1,5,-5z" stroke-width="3"></path><g id="node_text48" fill="black"><text id="kity_text_418" text-rendering="inherit" font-size="16" dy=".8em" y="1360.100002117455" x="572.4999956861138">It is almost impossible to make any sense out of the phaseplot</text></g></g><g id="minder_node49"><g id="node_expander48" style="cursor: pointer;" display="none"><path id="kity_path_429" fill="white" stroke="gray" d="M1073.5000030621886,1426.5000029876828A6,6,0,1,1,1061.5000030621886,1426.5000029876828A6,6,0,1,1,1073.5000030621886,1426.5000029876828"></path><path id="kity_path_430" fill="none" stroke="gray"></path></g><path id="node_outline49" fill="none" stroke="none" d="M627.4999965801835,1413.5000029876828h429a5,5,0,0,1,5,5v16a5,5,0,0,1,-5,5h-429a5,5,0,0,1,-5,-5v-16a5,5,0,0,1,5,-5z" stroke-width="3"></path><g id="node_text49" fill="black"><text id="kity_text_426" text-rendering="inherit" font-size="16" dy=".8em" y="1416.10000295192" x="632.4999965801835">Feature detection is usually done in the spatial domain</text></g></g><g id="minder_node50"><g id="node_expander49" style="cursor: pointer;"><path id="kity_path_437" fill="white" stroke="gray" d="M1073.5000030621886,1482.5000038221478A6,6,0,1,1,1061.5000030621886,1482.5000038221478A6,6,0,1,1,1073.5000030621886,1482.5000038221478"></path><path id="kity_path_438" fill="none" stroke="gray" d="M1063.0000030621886,1482.5000038221478L1072.0000030621886,1482.5000038221478"></path></g><path id="node_outline50" fill="none" stroke="none" d="M897.500000603497,1469.5000038221478h159a5,5,0,0,1,5,5v16a5,5,0,0,1,-5,5h-159a5,5,0,0,1,-5,-5v-16a5,5,0,0,1,5,-5z" stroke-width="3"></path><g id="node_text50" fill="black"><text id="kity_text_434" text-rendering="inherit" font-size="16" dy=".8em" y="1472.100003786385" x="902.500000603497">Effect of Periodicity</text></g></g><g id="minder_node51"><g id="node_expander50" style="cursor: pointer;" display="none"><path id="kity_path_445" fill="white" stroke="gray" d="M864.4999999478459,1482.5000038221478A6,6,0,1,1,852.4999999478459,1482.5000038221478A6,6,0,1,1,864.4999999478459,1482.5000038221478"></path><path id="kity_path_446" fill="none" stroke="gray"></path></g><path id="node_outline51" fill="none" stroke="none" d="M659.4999970570207,1469.5000038221478h188a5,5,0,0,1,5,5v16a5,5,0,0,1,-5,5h-188a5,5,0,0,1,-5,-5v-16a5,5,0,0,1,5,-5z" stroke-width="3"></path><g id="node_text51" fill="black"><text id="kity_text_442" text-rendering="inherit" font-size="16" dy=".8em" y="1472.100003786385" x="664.4999970570207">在四个象限方向周期循环</text></g></g><g id="minder_node52"><g id="node_expander51" style="cursor: pointer;"><path id="kity_path_453" fill="white" stroke="gray" d="M1073.5000030621886,1538.5000046566129A6,6,0,1,1,1061.5000030621886,1538.5000046566129A6,6,0,1,1,1073.5000030621886,1538.5000046566129"></path><path id="kity_path_454" fill="none" stroke="gray" d="M1063.0000030621886,1538.5000046566129L1072.0000030621886,1538.5000046566129"></path></g><path id="node_outline52" fill="none" stroke="none" d="M955.5000014677644,1525.5000046566129h101a5,5,0,0,1,5,5v16a5,5,0,0,1,-5,5h-101a5,5,0,0,1,-5,-5v-16a5,5,0,0,1,5,-5z" stroke-width="3"></path><g id="node_text52" fill="black"><text id="kity_text_450" text-rendering="inherit" font-size="16" dy=".8em" y="1528.10000462085" x="960.5000014677644">Notch Filter</text></g></g><g id="minder_node53"><g id="node_expander52" style="cursor: pointer;" display="none"><path id="kity_path_461" fill="white" stroke="gray" d="M922.5000008121133,1538.5000046566129A6,6,0,1,1,910.5000008121133,1538.5000046566129A6,6,0,1,1,922.5000008121133,1538.5000046566129"></path><path id="kity_path_462" fill="none" stroke="gray"></path></g><path id="node_outline53" fill="none" stroke="none" d="M782.4999988898635,1525.5000046566129h123a5,5,0,0,1,5,5v16a5,5,0,0,1,-5,5h-123a5,5,0,0,1,-5,-5v-16a5,5,0,0,1,5,-5z" stroke-width="3"></path><g id="node_text53" fill="black"><text id="kity_text_458" text-rendering="inherit" font-size="16" dy=".8em" y="1528.10000462085" x="787.4999988898635">去除异常的高频</text></g></g><g id="minder_node54"><g id="node_expander53" style="cursor: pointer;"><path id="kity_path_469" fill="white" stroke="gray" d="M1249.500005684793,898.4999951198697A6,6,0,1,1,1237.500005684793,898.4999951198697A6,6,0,1,1,1249.500005684793,898.4999951198697"></path><path id="kity_path_470" fill="none" stroke="gray" d="M1239.000005684793,898.4999951198697L1248.000005684793,898.4999951198697"></path></g><path id="node_outline54" fill="none" stroke="none" d="M1158.5000044927,885.4999951198697h74a5,5,0,0,1,5,5v16a5,5,0,0,1,-5,5h-74a5,5,0,0,1,-5,-5v-16a5,5,0,0,1,5,-5z" stroke-width="3"></path><g id="node_text54" fill="black"><text id="kity_text_466" text-rendering="inherit" font-size="16" dy=".8em" y="888.0999950841069" x="1163.5000044927">Example</text></g></g><g id="minder_node55"><g id="node_expander54" style="cursor: pointer;"><path id="kity_path_477" fill="white" stroke="gray" d="M1125.500003837049,772.4999932423234A6,6,0,1,1,1113.500003837049,772.4999932423234A6,6,0,1,1,1125.500003837049,772.4999932423234"></path><path id="kity_path_478" fill="none" stroke="gray" d="M1115.000003837049,772.4999932423234L1124.000003837049,772.4999932423234"></path></g><path id="node_outline55" fill="none" stroke="none" d="M1028.5000025555491,759.4999932423234h80a5,5,0,0,1,5,5v16a5,5,0,0,1,-5,5h-80a5,5,0,0,1,-5,-5v-16a5,5,0,0,1,5,-5z" stroke-width="3"></path><g id="node_text55" fill="black"><text id="kity_text_474" text-rendering="inherit" font-size="16" dy=".8em" y="762.0999932065606" x="1033.5000025555491">sampling</text></g></g><g id="minder_node56"><g id="node_expander55" style="cursor: pointer;" display="none"><path id="kity_path_485" fill="white" stroke="gray" d="M995.500001899898,688.4999919906259A6,6,0,1,1,983.500001899898,688.4999919906259A6,6,0,1,1,995.500001899898,688.4999919906259"></path><path id="kity_path_486" fill="none" stroke="gray"></path></g><path id="node_outline56" fill="none" stroke="none" d="M839.4999997392297,675.4999919906259h139a5,5,0,0,1,5,5v16a5,5,0,0,1,-5,5h-139a5,5,0,0,1,-5,-5v-16a5,5,0,0,1,5,-5z" stroke-width="3"></path><g id="node_text56" fill="black"><text id="kity_text_482" text-rendering="inherit" font-size="16" dy=".8em" y="678.0999919548631" x="844.4999997392297">取样生成数字图片</text></g></g><g id="minder_node57"><g id="node_expander56" style="cursor: pointer;"><path id="kity_path_493" fill="white" stroke="gray" d="M1125.500003837049,1024.499996997416A6,6,0,1,1,1113.500003837049,1024.499996997416A6,6,0,1,1,1125.500003837049,1024.499996997416"></path><path id="kity_path_494" fill="none" stroke="gray" d="M1115.000003837049,1024.499996997416L1124.000003837049,1024.499996997416"></path></g><path id="node_outline57" fill="none" stroke="none" d="M987.5000019446015,1011.499996997416h121a5,5,0,0,1,5,5v16a5,5,0,0,1,-5,5h-121a5,5,0,0,1,-5,-5v-16a5,5,0,0,1,5,-5z" stroke-width="3"></path><g id="node_text57" fill="black"><text id="kity_text_490" text-rendering="inherit" font-size="16" dy=".8em" y="1014.0999969616532" x="992.5000019446015">reconstruction</text></g></g><g id="minder_node58"><g id="node_expander57" style="cursor: pointer;" display="none"><path id="kity_path_501" fill="white" stroke="gray" d="M954.5000012889504,912.499995328486A6,6,0,1,1,942.5000012889504,912.499995328486A6,6,0,1,1,954.5000012889504,912.499995328486"></path><path id="kity_path_502" fill="none" stroke="gray"></path></g><path id="node_outline58" fill="none" stroke="none" d="M733.4999981597066,899.499995328486h204a5,5,0,0,1,5,5v16a5,5,0,0,1,-5,5h-204a5,5,0,0,1,-5,-5v-16a5,5,0,0,1,5,-5z" stroke-width="3"></path><g id="node_text58" fill="black"><text id="kity_text_498" text-rendering="inherit" font-size="16" dy=".8em" y="902.0999952927232" x="738.4999981597066">使用像素展示这些取样数据</text></g></g><g id="minder_node59"><g id="node_expander58" style="cursor: pointer;" display="none"><path id="kity_path_509" fill="white" stroke="gray" d="M995.500001899898,744.4999928250909A6,6,0,1,1,983.500001899898,744.4999928250909A6,6,0,1,1,995.500001899898,744.4999928250909"></path><path id="kity_path_510" fill="none" stroke="gray"></path></g><path id="node_outline59" fill="none" stroke="none" d="M445.49999386817217,731.4999928250909h533a5,5,0,0,1,5,5v16a5,5,0,0,1,-5,5h-533a5,5,0,0,1,-5,-5v-16a5,5,0,0,1,5,-5z" stroke-width="3"></path><g id="node_text59" fill="black"><text id="kity_text_506" text-rendering="inherit" font-size="16" dy=".8em" y="734.0999927893281" font-weight="bold" x="450.49999386817217">使用 comb function 进行采用，该函数的频域表示也为 comb function</text></g></g><g id="minder_node60"><g id="node_expander59" style="cursor: pointer;" display="none"><path id="kity_path_517" fill="white" stroke="gray" d="M995.500001899898,800.4999936595559A6,6,0,1,1,983.500001899898,800.4999936595559A6,6,0,1,1,995.500001899898,800.4999936595559"></path><path id="kity_path_518" fill="none" stroke="gray" d="M985.000001899898,800.4999936595559L994.000001899898,800.4999936595559"></path></g><path id="node_outline60" fill="none" stroke="none" d="M659.4999970570207,787.4999936595559h319a5,5,0,0,1,5,5v16a5,5,0,0,1,-5,5h-319a5,5,0,0,1,-5,-5v-16a5,5,0,0,1,5,-5z" stroke-width="3"></path><g id="node_text60" fill="black"><text id="kity_text_514" text-rendering="inherit" font-size="16" dy=".8em" y="790.0999936237931" x="664.4999970570207">comb 频域在在 2f, 时域中 1/2f 的采样频率</text></g></g><g id="minder_node62" opacity="1"><g id="node_expander61" style="cursor: pointer;" display="none"><path id="kity_path_533" fill="white" stroke="gray" d="M995.500001899898,856.4999944940209A6,6,0,1,1,983.500001899898,856.4999944940209A6,6,0,1,1,995.500001899898,856.4999944940209"></path><path id="kity_path_534" fill="none" stroke="gray"></path></g><path id="node_outline62" fill="none" stroke="none" d="M792.4999990388751,843.4999944940209h186a5,5,0,0,1,5,5v16a5,5,0,0,1,-5,5h-186a5,5,0,0,1,-5,-5v-16a5,5,0,0,1,5,-5z" stroke-width="3"></path><g id="node_text62" fill="black"><text id="kity_text_530" text-rendering="inherit" font-size="16" dy=".8em" y="846.0999944582582" x="797.4999990388751">频率太高会导致 aliasing</text></g></g><g id="minder_node63"><g id="node_expander62" style="cursor: pointer;" display="none"><path id="kity_path_541" fill="white" stroke="gray" d="M954.5000012889504,968.499996162951A6,6,0,1,1,942.5000012889504,968.499996162951A6,6,0,1,1,954.5000012889504,968.499996162951"></path><path id="kity_path_542" fill="none" stroke="gray"></path></g><path id="node_outline63" fill="none" stroke="none" d="M659.4999970570207,955.499996162951h278a5,5,0,0,1,5,5v16a5,5,0,0,1,-5,5h-278a5,5,0,0,1,-5,-5v-16a5,5,0,0,1,5,-5z" stroke-width="3"></path><g id="node_text63" fill="black"><text id="kity_text_538" text-rendering="inherit" font-size="16" dy=".8em" y="958.0999961271882" font-weight="bold" x="664.4999970570207">使用 point spread function or PSF</text></g></g><g id="minder_node64" opacity="1"><g id="node_expander63" style="cursor: pointer;" display="none"><path id="kity_path_549" fill="white" stroke="gray" d="M954.5000012889504,1080.499997831881A6,6,0,1,1,942.5000012889504,1080.499997831881A6,6,0,1,1,954.5000012889504,1080.499997831881"></path><path id="kity_path_550" fill="none" stroke="gray"></path></g><path id="node_outline64" fill="none" stroke="none" d="M458.49999406188726,1067.499997831881h479a5,5,0,0,1,5,5v16a5,5,0,0,1,-5,5h-479a5,5,0,0,1,-5,-5v-16a5,5,0,0,1,5,-5z" stroke-width="3"></path><g id="node_text64" fill="black"><text id="kity_text_546" text-rendering="inherit" font-size="16" dy=".8em" y="1070.0999977961183" x="463.49999406188726">使用 f 频率可以正确重构，频率过高会导致 aliasing (pixelization)</text></g></g><g id="minder_node65" opacity="1"><g id="node_expander64" style="cursor: pointer;" display="none"><path id="kity_path_557" fill="white" stroke="gray" d="M954.5000012889504,1024.499996997416A6,6,0,1,1,942.5000012889504,1024.499996997416A6,6,0,1,1,954.5000012889504,1024.499996997416"></path><path id="kity_path_558" fill="none" stroke="gray"></path></g><path id="node_outline65" fill="none" stroke="none" d="M626.4999965652823,1011.499996997416h311a5,5,0,0,1,5,5v16a5,5,0,0,1,-5,5h-311a5,5,0,0,1,-5,-5v-16a5,5,0,0,1,5,-5z" stroke-width="3"></path><g id="node_text65" fill="black"><text id="kity_text_554" text-rendering="inherit" font-size="16" dy=".8em" y="1014.0999969616532" x="631.4999965652823">重构过程为将取样数据与PSF的核进行卷积</text></g></g><g id="kity_g_12" display="none"><path id="kity_path_13" fill="none" stroke="rgb(66, 94, 112)" d="M744.500009842217,1262.4999999776483h237a5,5,0,0,1,5,5v12a5,5,0,0,1,-5,5h-237a5,5,0,0,1,-5,-5v-12a5,5,0,0,1,5,-5z" stroke-width="5"></path></g><g id="minder_node66"><g id="node_expander65" style="cursor: pointer;" display="none"><path id="kity_path_565" fill="white" stroke="gray" d="M954.5000012889504,1136.499998666346A6,6,0,1,1,942.5000012889504,1136.499998666346A6,6,0,1,1,954.5000012889504,1136.499998666346"></path><path id="kity_path_566" fill="none" stroke="gray"></path></g><path id="node_outline66" fill="none" stroke="none" d="M861.5000000670552,1123.499998666346h76a5,5,0,0,1,5,5v16a5,5,0,0,1,-5,5h-76a5,5,0,0,1,-5,-5v-16a5,5,0,0,1,5,-5z" stroke-width="3"></path><g id="node_text66" fill="black"><text id="kity_text_562" text-rendering="inherit" font-size="16" dy=".8em" y="1126.0999986305833" x="866.5000000670552">分支主题</text></g></g><g id="minder_node67"><g id="node_expander66" style="cursor: pointer;"><path id="kity_path_573" fill="white" stroke="gray" d="M1391.5000078007579,1711.5000072345138A6,6,0,1,1,1379.5000078007579,1711.5000072345138A6,6,0,1,1,1391.5000078007579,1711.5000072345138"></path><path id="kity_path_574" fill="none" stroke="gray" d="M1381.0000078007579,1711.5000072345138L1390.0000078007579,1711.5000072345138"></path></g><path id="node_outline67" fill="rgb(238, 243, 246)" stroke="rgb(115, 161, 191)" d="M1287.5000065937638,1697.5000072345138h88a3,3,0,0,1,3,3v22a3,3,0,0,1,-3,3h-88a3,3,0,0,1,-3,-3v-22a3,3,0,0,1,3,-3z" stroke-width="1"></path><g id="node_text67" fill="black"><text id="kity_text_570" text-rendering="inherit" font-size="16" dy=".8em" y="1701.100007198751" x="1304.5000065937638">Duality</text></g></g><g id="minder_node68"><g id="node_expander67" style="cursor: pointer;" display="none"><path id="kity_path_581" fill="white" stroke="gray" d="M1256.5000057891011,1604.5000056400895A6,6,0,1,1,1244.5000057891011,1604.5000056400895A6,6,0,1,1,1256.5000057891011,1604.5000056400895"></path><path id="kity_path_582" fill="none" stroke="gray"></path></g><path id="node_outline68" fill="none" stroke="none" d="M507.49999479204416,1591.5000056400895h732a5,5,0,0,1,5,5v16a5,5,0,0,1,-5,5h-732a5,5,0,0,1,-5,-5v-16a5,5,0,0,1,5,-5z" stroke-width="3"></path><g id="node_text68" fill="black"><text id="kity_text_578" text-rendering="inherit" font-size="16" dy=".8em" y="1594.1000056043267" x="512.4999947920442">As the signal expands in the spatial domain, its frequency response compresses and vice versa</text></g></g><g id="minder_node69" opacity="1"><g id="node_expander68" style="cursor: pointer;" display="none"><path id="kity_path_589" fill="white" stroke="gray" d="M1256.5000057891011,1739.5000076517463A6,6,0,1,1,1244.5000057891011,1739.5000076517463A6,6,0,1,1,1256.5000057891011,1739.5000076517463"></path><path id="kity_path_590" fill="none" stroke="gray"></path></g><path id="node_outline69" fill="none" stroke="none" d="M1029.5000040456653,1647.500008828938h210a5,5,0,0,1,5,5v174a5,5,0,0,1,-5,5h-210a5,5,0,0,1,-5,-5v-174a5,5,0,0,1,5,-5z" stroke-width="3"></path><g id="node_text69" fill="black"><text id="kity_text_586" text-rendering="inherit" font-size="16" dy=".8em" y="1808.1000087931752" x="1133.5000040456653"> </text></g><image id="kity_image_591" xlink:href="https://kityminder-img.gz.bcebos.com/c649c72955f6a188d0f7786da57ea514d4cdf0e6" x="1034.5000040456653" y="1652.500008828938" width="200" height="153"></image></g></g></g></svg>