<svg id="kity_svg_6" xmlns="http://www.w3.org/2000/svg" xmlns:xlink="http://www.w3.org/1999/xlink" version="1.1" width="1304" height="217" style="background: rgb(251, 251, 251); visibility: visible;" viewBox="0 0 1304 217"><defs id="kity_defs_7"><linearGradient id="kity_linearGradient_17" x1="0" y1="0" x2="0" y2="1"><stop id="kity_stop_18" offset="0" stop-color="rgb(255, 255, 255)"></stop><stop id="kity_stop_19" offset="1" stop-color="rgb(204, 204, 204)"></stop></linearGradient><marker id="kity_marker_2" orient="auto" refX="6" refY="0" viewBox="-7 -7 14 14" markerWidth="7" markerHeight="7" markerUnits="userSpaceOnUse"><path id="kity_path_3" fill="rgb(115, 161, 191)" stroke="none" d="M6,0A6,6,0,1,1,-6,0A6,6,0,1,1,6,0"></path></marker></defs><g id="kity_g_8"><g id="minder1" text-rendering="optimize-speed"><g id="minder_connect_group1"><path id="kity_path_31" fill="none" stroke="rgb(115, 161, 191)" stroke-width="1" d="M571.000003553927,97.50000175088644A71.5,0,0,0,1,642.500003553927,97.50000175088644"></path><path id="kity_path_119" fill="none" stroke="rgb(115, 161, 191)" stroke-width="1" d="M571.000003553927,97.50000175088644A71.5,0,0,0,1,499.50000355392694,97.50000175088644"></path><path id="kity_path_127" fill="none" stroke="rgb(115, 161, 191)" stroke-width="1" d="M298.50000355392694,97.50000175088644C295.50000355392694,97.50000175088644,295.50000355392694,96.50000175088644,292.50000355392694,96.50000175088644L19.500003553926945,96.50000175088644"></path><path id="kity_path_135" fill="none" stroke="rgb(115, 161, 191)" stroke-width="1" d="M298.50000355392694,97.50000175088644C295.50000355392694,97.50000175088644,295.50000355392694,122.50000175088644,292.50000355392694,122.50000175088644L103.50000355392694,122.50000175088644"></path><path id="kity_path_142" fill="none" stroke="rgb(115, 161, 191)" stroke-width="1" d="M913.500003553927,67.50000175088644C916.500003553927,67.50000175088644,916.500003553927,41.50000175088644,919.500003553927,41.50000175088644L1247.500003553927,41.50000175088644"></path><path id="kity_path_143" fill="none" stroke="rgb(115, 161, 191)" stroke-width="1" d="M913.500003553927,67.50000175088644C916.500003553927,67.50000175088644,916.500003553927,67.50000175088644,919.500003553927,67.50000175088644L1118.500003553927,67.50000175088644"></path><path id="kity_path_144" fill="none" stroke="rgb(115, 161, 191)" stroke-width="1" d="M913.500003553927,67.50000175088644C916.500003553927,67.50000175088644,916.500003553927,93.50000175088644,919.500003553927,93.50000175088644L1283.500003553927,93.50000175088644"></path><path id="kity_path_145" fill="none" stroke="rgb(115, 161, 191)" stroke-width="1" d="M771.500003553927,97.50000175088644C774.500003553927,97.50000175088644,774.500003553927,67.50000175088644,777.500003553927,67.50000175088644L913.500003553927,67.50000175088644"></path><path id="kity_path_146" fill="none" stroke="rgb(115, 161, 191)" stroke-width="1" d="M918.500003553927,151.50000175088644C921.500003553927,151.50000175088644,921.500003553927,119.50000175088644,924.500003553927,119.50000175088644L1064.500003553927,119.50000175088644"></path><path id="kity_path_147" fill="none" stroke="rgb(115, 161, 191)" stroke-width="1" d="M918.500003553927,151.50000175088644C921.500003553927,151.50000175088644,921.500003553927,145.50000175088644,924.500003553927,145.50000175088644L1204.500003553927,145.50000175088644"></path><path id="kity_path_148" fill="none" stroke="rgb(115, 161, 191)" stroke-width="1" d="M1087.500003553927,184.50000175088644C1090.500003553927,184.50000175088644,1090.500003553927,171.50000175088644,1093.500003553927,171.50000175088644L1157.500003553927,171.50000175088644"></path><path id="kity_path_149" fill="none" stroke="rgb(115, 161, 191)" stroke-width="1" d="M1087.500003553927,184.50000175088644C1090.500003553927,184.50000175088644,1090.500003553927,197.50000175088644,1093.500003553927,197.50000175088644L1248.500003553927,197.50000175088644"></path><path id="kity_path_150" fill="none" stroke="rgb(115, 161, 191)" stroke-width="1" d="M918.500003553927,151.50000175088644C921.500003553927,151.50000175088644,921.500003553927,184.50000175088644,924.500003553927,184.50000175088644L1087.500003553927,184.50000175088644"></path><path id="kity_path_151" fill="none" stroke="rgb(115, 161, 191)" stroke-width="1" d="M771.500003553927,97.50000175088644C774.500003553927,97.50000175088644,774.500003553927,151.50000175088644,777.500003553927,151.50000175088644L918.500003553927,151.50000175088644"></path></g><g id="minder_node1"><path id="node_outline1" fill="rgb(115, 161, 191)" stroke="rgb(115, 161, 191)" d="M520.500003553927,83.50000175088644h101a5,5,0,0,1,5,5v18a5,5,0,0,1,-5,5h-101a5,5,0,0,1,-5,-5v-18a5,5,0,0,1,5,-5z" stroke-width="3"></path><g id="node_text1" fill="white"><text id="kity_text_22" text-rendering="inherit" font-size="16" dy=".8em" y="87.10000171512365" x="527.500003553927">Techniques</text></g></g><g id="kity_g_12" display="none"><path id="kity_path_13" fill="none" stroke="none" d="M527.500003553927,97.50000175088644h0v0h0z"></path></g><g id="kity_g_14" display="none"><path id="kity_path_15" fill="rgba(0, 92, 153, 0.5)" stroke="none" d="M1008.500003553927,159.50000175088644h270v4h-270z"></path><path id="kity_path_16" fill="none" stroke="rgb(0, 76, 128)" d="M1008.500003553927,159.50000175088644L1278.500003553927,159.50000175088644" stroke-width="1"></path></g><g id="minder_node2" opacity="1"><g id="node_expander8" style="cursor: pointer;"><path id="kity_path_92" fill="white" stroke="gray" d="M643.5000051930547,97.50000175088644A6,6,0,1,1,631.5000051930547,97.50000175088644A6,6,0,1,1,643.5000051930547,97.50000175088644"></path><path id="kity_path_93" fill="none" stroke="gray" d="M633.0000051930547,97.50000175088644L642.0000051930547,97.50000175088644"></path></g><path id="node_outline9" fill="rgb(238, 243, 246)" stroke="rgb(115, 161, 191)" d="M647.500005595386,84.50000175088644h121a3,3,0,0,1,3,3v20a3,3,0,0,1,-3,3h-121a3,3,0,0,1,-3,-3v-20a3,3,0,0,1,3,-3z" stroke-width="1"></path><g id="node_text9" fill="black"><text id="kity_text_61" text-rendering="inherit" font-size="14" dy=".8em" y="88.400001719594" x="664.500005595386">Interpolation</text></g></g><g id="minder_node13" opacity="1"><g id="node_expander12" style="cursor: pointer;"><path id="kity_path_124" fill="white" stroke="gray" d="M510.50000321120024,97.50000175088644A6,6,0,1,1,498.50000321120024,97.50000175088644A6,6,0,1,1,510.50000321120024,97.50000175088644"></path><path id="kity_path_125" fill="none" stroke="gray" d="M500.00000321120024,97.50000175088644L509.00000321120024,97.50000175088644"></path></g><path id="node_outline13" fill="rgb(238, 243, 246)" stroke="rgb(115, 161, 191)" d="M301.50000043958426,84.50000175088644h193a3,3,0,0,1,3,3v20a3,3,0,0,1,-3,3h-193a3,3,0,0,1,-3,-3v-20a3,3,0,0,1,3,-3z" stroke-width="1"></path><g id="node_text13" fill="black"><text id="kity_text_121" text-rendering="inherit" font-size="14" dy=".8em" y="88.400001719594" x="318.50000043958426">Geometric Intersections</text></g></g><g id="minder_node14"><g id="node_expander13" style="cursor: pointer;" display="none"><path id="kity_path_132" fill="white" stroke="gray" d="M294.4999999925494,84.50000155717134A6,6,0,1,1,282.4999999925494,84.50000155717134A6,6,0,1,1,294.4999999925494,84.50000155717134"></path><path id="kity_path_133" fill="none" stroke="gray"></path></g><path id="node_outline14" fill="none" stroke="none" d="M24.499996058642864,75.50000155717134h253a5,5,0,0,1,5,5v8a5,5,0,0,1,-5,5h-253a5,5,0,0,1,-5,-5v-8a5,5,0,0,1,5,-5z" stroke-width="3"></path><g id="node_text14" fill="black"><text id="kity_text_129" text-rendering="inherit" font-size="12" dy=".8em" y="76.70000153034925" x="24.499996058642864">linear-regression (least square optimization)</text></g></g><g id="minder_node15"><g id="node_expander14" style="cursor: pointer;" display="none"><path id="kity_path_140" fill="white" stroke="gray" d="M294.4999999925494,110.50000194460154A6,6,0,1,1,282.4999999925494,110.50000194460154A6,6,0,1,1,294.4999999925494,110.50000194460154"></path><path id="kity_path_141" fill="none" stroke="gray"></path></g><path id="node_outline15" fill="none" stroke="none" d="M108.4999973103404,101.50000194460154h169a5,5,0,0,1,5,5v8a5,5,0,0,1,-5,5h-169a5,5,0,0,1,-5,-5v-8a5,5,0,0,1,5,-5z" stroke-width="3"></path><g id="node_text15" fill="black"><text id="kity_text_137" text-rendering="inherit" font-size="12" dy=".8em" y="102.70000191777945" x="108.4999973103404">singular value decomposition</text></g></g><g id="minder_node4"><g id="node_expander1" style="cursor: pointer;" display="none"><path id="kity_path_71" fill="white" stroke="gray" d="M929.5000094547868,29.50000073760748A6,6,0,1,1,917.5000094547868,29.50000073760748A6,6,0,1,1,929.5000094547868,29.50000073760748"></path><path id="kity_path_72" fill="none" stroke="gray"></path></g><path id="node_outline2" fill="none" stroke="none" d="M934.5000096186996,20.50000073760748h308a5,5,0,0,1,5,5v8a5,5,0,0,1,-5,5h-308a5,5,0,0,1,-5,-5v-8a5,5,0,0,1,5,-5z" stroke-width="3"></path><g id="node_text2" fill="black"><text id="kity_text_47" text-rendering="inherit" font-size="12" dy=".8em" y="21.70000071078539" x="934.5000096186996">convex combination of 两头的点 (系数和为 1, 系数为正)</text></g></g><g id="minder_node5"><g id="node_expander2" style="cursor: pointer;" display="none"><path id="kity_path_74" fill="white" stroke="gray" d="M929.5000094547868,55.50000112503767A6,6,0,1,1,917.5000094547868,55.50000112503767A6,6,0,1,1,929.5000094547868,55.50000112503767"></path><path id="kity_path_75" fill="none" stroke="gray"></path></g><path id="node_outline3" fill="none" stroke="none" d="M934.5000096186996,46.50000112503767h179a5,5,0,0,1,5,5v8a5,5,0,0,1,-5,5h-179a5,5,0,0,1,-5,-5v-8a5,5,0,0,1,5,-5z" stroke-width="3"></path><g id="node_text3" fill="black"><text id="kity_text_49" text-rendering="inherit" font-size="12" dy=".8em" y="47.70000109821558" x="934.5000096186996">affine combination (系数和为 1)</text></g></g><g id="minder_node6"><g id="node_expander3" style="cursor: pointer;" display="none"><path id="kity_path_77" fill="white" stroke="gray" d="M929.5000094547868,81.50000151246786A6,6,0,1,1,917.5000094547868,81.50000151246786A6,6,0,1,1,929.5000094547868,81.50000151246786"></path><path id="kity_path_78" fill="none" stroke="gray"></path></g><path id="node_outline4" fill="none" stroke="none" d="M934.5000096186996,72.50000151246786h344a5,5,0,0,1,5,5v8a5,5,0,0,1,-5,5h-344a5,5,0,0,1,-5,-5v-8a5,5,0,0,1,5,-5z" stroke-width="3"></path><g id="node_text4" fill="black"><text id="kity_text_51" text-rendering="inherit" font-size="12" dy=".8em" y="73.70000148564577" x="934.5000096186996">linear combination (系数无限制) 不一定为 linear interpolation</text></g></g><g id="minder_node3"><g id="node_expander4" style="cursor: pointer;"><path id="kity_path_80" fill="white" stroke="gray" d="M787.5000073388219,55.50000112503767A6,6,0,1,1,775.5000073388219,55.50000112503767A6,6,0,1,1,787.5000073388219,55.50000112503767"></path><path id="kity_path_81" fill="none" stroke="gray" d="M777.0000073388219,55.50000112503767L786.0000073388219,55.50000112503767"></path></g><path id="node_outline5" fill="none" stroke="none" d="M792.5000075027347,46.50000112503767h116a5,5,0,0,1,5,5v8a5,5,0,0,1,-5,5h-116a5,5,0,0,1,-5,-5v-8a5,5,0,0,1,5,-5z" stroke-width="3"></path><g id="node_text5" fill="black"><text id="kity_text_53" text-rendering="inherit" font-size="12" dy=".8em" y="47.70000109821558" x="792.5000075027347">Linear Interpolation&#xa0;</text></g></g><g id="minder_node8"><g id="node_expander5" style="cursor: pointer;" display="none"><path id="kity_path_83" fill="white" stroke="gray" d="M934.5000095292926,107.50000189989805A6,6,0,1,1,922.5000095292926,107.50000189989805A6,6,0,1,1,934.5000095292926,107.50000189989805"></path><path id="kity_path_84" fill="none" stroke="gray"></path></g><path id="node_outline6" fill="none" stroke="none" d="M939.5000096932054,98.50000189989805h120a5,5,0,0,1,5,5v8a5,5,0,0,1,-5,5h-120a5,5,0,0,1,-5,-5v-8a5,5,0,0,1,5,-5z" stroke-width="3"></path><g id="node_text6" fill="black"><text id="kity_text_55" text-rendering="inherit" font-size="12" dy=".8em" y="99.70000187307596" x="939.5000096932054">convex combination&#xa0;</text></g></g><g id="minder_node9"><g id="node_expander6" style="cursor: pointer;" display="none"><path id="kity_path_86" fill="white" stroke="gray" d="M934.5000095292926,133.50000228732824A6,6,0,1,1,922.5000095292926,133.50000228732824A6,6,0,1,1,934.5000095292926,133.50000228732824"></path><path id="kity_path_87" fill="none" stroke="gray"></path></g><path id="node_outline7" fill="none" stroke="none" d="M939.5000096932054,124.50000228732824h260a5,5,0,0,1,5,5v8a5,5,0,0,1,-5,5h-260a5,5,0,0,1,-5,-5v-8a5,5,0,0,1,5,-5z" stroke-width="3"></path><g id="node_text7" fill="black"><text id="kity_text_57" text-rendering="inherit" font-size="12" dy=".8em" y="125.70000226050615" x="939.5000096932054">4-connected, 8-connected (非整形空间坐标中)</text></g></g><g id="minder_node11"><g id="node_expander10" style="cursor: pointer;" display="none"><path id="kity_path_108" fill="white" stroke="gray" d="M1103.5000120475888,159.50000267475843A6,6,0,1,1,1091.5000120475888,159.50000267475843A6,6,0,1,1,1103.5000120475888,159.50000267475843"></path><path id="kity_path_109" fill="none" stroke="gray"></path></g><path id="node_outline11" fill="none" stroke="none" d="M1108.5000122115016,150.50000267475843h44a5,5,0,0,1,5,5v8a5,5,0,0,1,-5,5h-44a5,5,0,0,1,-5,-5v-8a5,5,0,0,1,5,-5z" stroke-width="3"></path><g id="node_text11" fill="black"><text id="kity_text_105" text-rendering="inherit" font-size="12" dy=".8em" y="151.70000264793634" x="1108.5000122115016">simplex</text></g></g><g id="minder_node12"><g id="node_expander11" style="cursor: pointer;" display="none"><path id="kity_path_116" fill="white" stroke="gray" d="M1103.5000120475888,185.50000306218863A6,6,0,1,1,1091.5000120475888,185.50000306218863A6,6,0,1,1,1103.5000120475888,185.50000306218863"></path><path id="kity_path_117" fill="none" stroke="gray"></path></g><path id="node_outline12" fill="none" stroke="none" d="M1108.5000122115016,176.50000306218863h135a5,5,0,0,1,5,5v8a5,5,0,0,1,-5,5h-135a5,5,0,0,1,-5,-5v-8a5,5,0,0,1,5,-5z" stroke-width="3"></path><g id="node_text12" fill="black"><text id="kity_text_113" text-rendering="inherit" font-size="12" dy=".8em" y="177.70000303536654" x="1108.5000122115016">barycentric coordinates</text></g></g><g id="minder_node10" opacity="1"><g id="node_expander9" style="cursor: pointer;"><path id="kity_path_100" fill="white" stroke="gray" d="M934.5000095292926,172.50000286847353A6,6,0,1,1,922.5000095292926,172.50000286847353A6,6,0,1,1,934.5000095292926,172.50000286847353"></path><path id="kity_path_101" fill="none" stroke="gray" d="M924.0000095292926,172.50000286847353L933.0000095292926,172.50000286847353"></path></g><path id="node_outline10" fill="none" stroke="none" d="M939.5000096932054,163.50000286847353h143a5,5,0,0,1,5,5v8a5,5,0,0,1,-5,5h-143a5,5,0,0,1,-5,-5v-8a5,5,0,0,1,5,-5z" stroke-width="3"></path><g id="node_text10" fill="black"><text id="kity_text_97" text-rendering="inherit" font-size="12" dy=".8em" y="164.70000284165144" x="939.5000096932054">Interpolation uniqueness</text></g></g><g id="minder_node7"><g id="node_expander7" style="cursor: pointer;"><path id="kity_path_89" fill="white" stroke="gray" d="M787.5000073388219,139.5000023767352A6,6,0,1,1,775.5000073388219,139.5000023767352A6,6,0,1,1,787.5000073388219,139.5000023767352"></path><path id="kity_path_90" fill="none" stroke="gray" d="M777.0000073388219,139.5000023767352L786.0000073388219,139.5000023767352"></path></g><path id="node_outline8" fill="none" stroke="none" d="M792.5000075027347,130.5000023767352h121a5,5,0,0,1,5,5v8a5,5,0,0,1,-5,5h-121a5,5,0,0,1,-5,-5v-8a5,5,0,0,1,5,-5z" stroke-width="3"></path><g id="node_text8" fill="black"><text id="kity_text_59" text-rendering="inherit" font-size="12" dy=".8em" y="131.70000234991312" x="792.5000075027347">Bilinear Interpolation</text></g></g></g></g></svg>